<?xml version="1.0" encoding="utf-8"?>
<!-- Generator: Adobe Illustrator 16.0.0, SVG Export Plug-In . SVG Version: 6.00 Build 0)  -->
<!DOCTYPE svg PUBLIC "-//W3C//DTD SVG 1.1//EN" "http://www.w3.org/Graphics/SVG/1.1/DTD/svg11.dtd" [
	<!ENTITY ns_extend "http://ns.adobe.com/Extensibility/1.0/">
	<!ENTITY ns_ai "http://ns.adobe.com/AdobeIllustrator/10.0/">
	<!ENTITY ns_graphs "http://ns.adobe.com/Graphs/1.0/">
	<!ENTITY ns_vars "http://ns.adobe.com/Variables/1.0/">
	<!ENTITY ns_imrep "http://ns.adobe.com/ImageReplacement/1.0/">
	<!ENTITY ns_sfw "http://ns.adobe.com/SaveForWeb/1.0/">
	<!ENTITY ns_custom "http://ns.adobe.com/GenericCustomNamespace/1.0/">
	<!ENTITY ns_adobe_xpath "http://ns.adobe.com/XPath/1.0/">
]>
<svg version="1.1" id="Layer_1" xmlns:x="&ns_extend;" xmlns:i="&ns_ai;" xmlns:graph="&ns_graphs;"
	 xmlns="http://www.w3.org/2000/svg" xmlns:xlink="http://www.w3.org/1999/xlink" x="0px" y="0px" width="578px" height="578px"
	 viewBox="0 0 578 578" enable-background="new 0 0 578 578" xml:space="preserve">
<metadata><?xpacket begin="﻿" id="W5M0MpCehiHzreSzNTczkc9d"?>
<x:xmpmeta xmlns:x="adobe:ns:meta/" x:xmptk="Adobe XMP Core 5.3-c011 66.145661, 2012/02/06-14:56:27        ">
   <rdf:RDF xmlns:rdf="http://www.w3.org/1999/02/22-rdf-syntax-ns#">
      <rdf:Description rdf:about=""
            xmlns:xmp="http://ns.adobe.com/xap/1.0/"
            xmlns:xmpGImg="http://ns.adobe.com/xap/1.0/g/img/">
         <xmp:CreatorTool>Adobe Illustrator CS6 (Windows)</xmp:CreatorTool>
         <xmp:CreateDate>2016-02-25T12:47:09-06:00</xmp:CreateDate>
         <xmp:ModifyDate>2016-02-25T12:47:10-06:00</xmp:ModifyDate>
         <xmp:MetadataDate>2016-02-25T12:47:10-06:00</xmp:MetadataDate>
         <xmp:Thumbnails>
            <rdf:Alt>
               <rdf:li rdf:parseType="Resource">
                  <xmpGImg:width>256</xmpGImg:width>
                  <xmpGImg:height>192</xmpGImg:height>
                  <xmpGImg:format>JPEG</xmpGImg:format>
                  <xmpGImg:image>/9j/4AAQSkZJRgABAgEASABIAAD/7QAsUGhvdG9zaG9wIDMuMAA4QklNA+0AAAAAABAASAAAAAEA&#xA;AQBIAAAAAQAB/+4ADkFkb2JlAGTAAAAAAf/bAIQABgQEBAUEBgUFBgkGBQYJCwgGBggLDAoKCwoK&#xA;DBAMDAwMDAwQDA4PEA8ODBMTFBQTExwbGxscHx8fHx8fHx8fHwEHBwcNDA0YEBAYGhURFRofHx8f&#xA;Hx8fHx8fHx8fHx8fHx8fHx8fHx8fHx8fHx8fHx8fHx8fHx8fHx8fHx8fHx8f/8AAEQgAwAEAAwER&#xA;AAIRAQMRAf/EAaIAAAAHAQEBAQEAAAAAAAAAAAQFAwIGAQAHCAkKCwEAAgIDAQEBAQEAAAAAAAAA&#xA;AQACAwQFBgcICQoLEAACAQMDAgQCBgcDBAIGAnMBAgMRBAAFIRIxQVEGE2EicYEUMpGhBxWxQiPB&#xA;UtHhMxZi8CRygvElQzRTkqKyY3PCNUQnk6OzNhdUZHTD0uIIJoMJChgZhJRFRqS0VtNVKBry4/PE&#xA;1OT0ZXWFlaW1xdXl9WZ2hpamtsbW5vY3R1dnd4eXp7fH1+f3OEhYaHiImKi4yNjo+Ck5SVlpeYmZ&#xA;qbnJ2en5KjpKWmp6ipqqusra6voRAAICAQIDBQUEBQYECAMDbQEAAhEDBCESMUEFURNhIgZxgZEy&#xA;obHwFMHR4SNCFVJicvEzJDRDghaSUyWiY7LCB3PSNeJEgxdUkwgJChgZJjZFGidkdFU38qOzwygp&#xA;0+PzhJSktMTU5PRldYWVpbXF1eX1RlZmdoaWprbG1ub2R1dnd4eXp7fH1+f3OEhYaHiImKi4yNjo&#xA;+DlJWWl5iZmpucnZ6fkqOkpaanqKmqq6ytrq+v/aAAwDAQACEQMRAD8A9U4q7FXYq7FXYq7FXYq7&#xA;FXybJqF/LI0klzK8jks7s7EknqSSc60QA6PCHJI9Vv1y7/3/ACf8E39cPCO5HGe931y7/wB/yf8A&#xA;BN/XHhHcvGe931y7/wB/yf8ABN/XHhHcvGe931y7/wB/yf8ABN/XHhHcvGe931y8/wB/yf8ABt/X&#xA;HhHcvGe99S+X5ZJdB02WVi8klrAzuxqSxjUkknuc5XKKmfeXt8BvHEnuCPyttdirsVdirsVdirsV&#xA;dirsVdirsVdirsVdirsVdirsVdirsVdirsVdirsVdirsVfKcmh61HI0b2FwroSrKYnqCNiOmdYMs&#xA;T1DwxwzHQ/JRnsL63TnPbSwoTQNIjKK+FSMImDyLGUJDmFDJMHYqqQW1xcPwgieZwKlY1LGnjQYC&#xA;QObKMSeSv+h9X/5Ybj/kU/8ATI+JHvDLwp9x+T6e8vI8egaZHIpR0tIFdGFCCI1BBBzl8x9Z95e1&#xA;wCscfcEwyttdirsVdirsVdirsVdirsVdirsVdirsVdirsVdirsVdirsVdirsVdirsVdirsVdirBf&#xA;zn/5QiX/AJiIf1nM/s7+9+DrO1/7j4h4BnQPKOxV6X+RH/KRah/zB/8AM1M1nan0D3u57F/vJf1f&#xA;0vbs0b0rsVdirsVdirsVdirsVdirsVdirsVdirsVdirsVdirsVdirsVdirsVdirsVdirsVdirsVY&#xA;L+c//KES/wDMRD+s5n9nf3vwdZ2v/cfEPAM6B5R2KvS/yI/5SLUP+YP/AJmpms7U+ge93PYv95L+&#xA;r+l7dmjelWTzwwQvNPIsUMYLSSOQqqo3JJOwGEAk0EEgCy838yfnbpNm7W+i251CVag3Dkxwg/5O&#xA;3J/w+ebLD2ZKW8jTp9R2xCO0Bxfcwe8/OPz1O5aK6itATXhDDGQPb96JT+OZ0ezsQ6X8XWT7Wznk&#xA;QPh+u0LH+avn6Mmmqk13IaGBv1x5M6HD/N+9gO084/i+wfqTrS/zw8zW7gahbwX0X7VAYZPoZar/&#xA;AMJlE+zIHkSHJxds5B9QEvsel+VPzG8ueYyIbeU218f+POeiuf8AUNeL/Rv7ZrM+jnj3O473c6bX&#xA;482w2l3FlGYrmuxV2KrLi4gt4XnuJFhgjBaSVyFVQOpJOwwgEmgiUgBZ5PNfMX536VaSPBotsb+R&#xA;dvrMhMcNfFRTm34Zs8PZkjvI06bUdsxjtAcXn0YVefnJ55nYmK5htAf2YYUIH/I0SnM2PZ2IdL+L&#xA;rp9rZzyIHw/XaDT80/PyMWGrNU+MUBH3FCMn+Rw/zfvax2ln/nfYP1J3pX54eZbdwNRt4L6H9qgM&#xA;Mn0MtV/4TKMnZkD9JIcnF2zkH1AS+x6h5U8/eXvMq8LOUxXiir2U1FlAHUr2Yf6v05q8+lni58u9&#xA;3Wm12PN9J37mR5jOY7FXYq7FXYq7FXYq7FXYq7FXYq7FWC/nP/yhEv8AzEQ/rOZ/Z3978HWdr/3H&#xA;xDwDOgeUdir0v8iP+Ui1D/mD/wCZqZrO1PoHvdz2L/eS/q/pe1XNxBbW8lxcOIoIVLyyNsFVRUk/&#xA;IZpACTQeklIAWeT56/MD8wr/AMy3j28DNDosTfuLfoZKdJJfEnsOg+e+dFpNIMQs/U8nrtfLMaG0&#xA;PxzYfmY652KuxV2Kto7o6ujFXUhlZTQgjcEEYkJBp7f+Vf5jyauBouryctSjWtrcnrOqipVv8tR9&#xA;49xvo9do+D1R+n7npeze0Dk9E/q6eb0nNY7hSu7u2s7WW6uZBFbwKZJZG2CqoqScMYkmhzYykIiz&#xA;yD558/fmDfeZ7wxRFrfR4j+4tq0Lkf7slp1bwHb8T0Wk0gxC/wCJ5PXa6WY0Nod362I5mOvVba0u&#xA;rqX0raF55TuI4lLt9ygnBKQHNlGJkaAtXvNF1myTne2FxbJ/NNE8Y392AyMckZciCznhnH6gR8EH&#xA;k2pUt7i4tp47i3kaKeJg0cqEqysOhBGAgEUWUZEGxze//lp5/HmWya1veKavaKDLTYSp09VR232Y&#xA;f1zn9bpPCNj6S9V2drvGjUvrH2+bNswXZOxV2KuxV2KuxV2KuxV2KuxV2KsF/Of/AJQiX/mIh/Wc&#xA;z+zv734Os7X/ALj4h4BnQPKOxV6X+RH/ACkWof8AMH/zNTNZ2p9A97uexf7yX9X9Kf8A54eYpLXT&#xA;LXRIG4tfEy3VOvpRkcV+TPv/ALHMfszDcjM9HL7Z1HDEQH8XP3PFc3bzbsVez+Qvyi0xdPi1HzDE&#xA;bi6nUSR2ZLKkSkVXmBQs/iDsOmaXVdoSvhhsO96PRdlR4RLILJ6MuvPy58k3UJifSIIwejwgxMPc&#xA;MhXMOOsyg/UXPn2fhkK4Q8X/ADC8iTeVtQT0nafTLqptZm+0COsb025Dx7jN3pNUMo/pB5zX6I4J&#xA;bbxPJiWZbgK1je3NjeQXls5juLd1kicdmU1GCURIUeRZwmYkEcw+pdC1WLV9Gs9Si2S7iWTj/KxH&#xA;xL/sWqM5XLj4JGPc9thyjJASHUPNPzx8zSRpbeXrd6CUC5vad1BpEh+lSxHyzZ9mYecz8HTds6iq&#xA;xj3n9Dx/Nw8+mXlrQ7jXdctNKgPFrl6PJ14Io5O3+xUE5VmyjHAyPRv0+E5ZiA6vpfQ9B0rRLFLL&#xA;TYFhhUDkwA5uR+07dWbOZy5ZTNyL2WHBDHHhiKR7okiMkih0YUZWFQQeoIOVgthFvEfzc8h2ukSR&#xA;61pcQisbh/TubdB8McpqVZR2Vt9ugPzzedn6oz9MuYeb7U0Qx+uP0nm81zZumTPyzrk+h67Z6nCT&#xA;/o8gMqD9uM7On+yWuVZsQnAxLfp8xxTEh0fUkUsc0SSxtyjkUOjDoVYVBzliKe2BsWF2BLsVdirs&#xA;VdirsVdirsVdirsVYL+c/wDyhEv/ADEQ/rOZ/Z3978HWdr/3HxDwDOgeUdir0v8AIj/lItQ/5g/+&#xA;ZqZrO1PoHvdz2L/eS/q/pSv847x5/PNzExJFpDDCtewKCXb6Zct7OjWIedtPa07zkdwH6/0sIzOd&#xA;Ym/lHT49R80aXZSisU1zGJVPdAwLD6VGU6ifDjkfJyNLj48sYnvfUWcs9s7FWHfm1pqXvke9Yisl&#xA;mY7mI+BVgrf8IzZmaCfDlHm6/tTHxYD5bvnfOjeRdir338lrxrjyUsTGotLmWFfkeMv/ADNzn+0o&#xA;1l94eq7IneGu4n9f6Xkv5i373vnbV5WNfTnaBfYQUip/wmbfRw4cUfd97odfPizSPnXy2Y5mS4ae&#xA;eT/NU/lnVm1KG2juZDE0ISQkAciDyBHf4aZRqMAyx4SacrSak4Z8QF7M1/5Xzq//AFa7f/g3zC/k&#xA;qP8AOLsf5bn/ADQ7/lfOr/8AVrt/+DfH+So/ziv8tz/mhK/M35t6hr2i3GlT6dBFHccayBnZl4MH&#xA;BFe9Vy3DoBjkJAnZp1HakssDAxG7Asz3VOxV9Lfl1em88kaPMTUrAIa/8YGMX/GmczrI8OWQ83st&#xA;BPiwRPl92zI8xnMdirsVdirsVdirsVdirsVdirBfzn/5QiX/AJiIf1nM/s7+9+DrO1/7j4h4BnQP&#xA;KOxV6X+RH/KRah/zB/8AM1M1nan0D3u57F/vJf1f0pD+a8Ji8/ap1o5hdSf8qBP45kaA3hH46uL2&#xA;mKzy+H3MSzLcBkv5bMg886QXbiPWIB9yjAD6TmNrP7qTm9n/AN/H3vpTOZexdirHPzFuFg8kaw7U&#xA;obcx7+MhCD8WzJ0YvLH3uHr5Vgl7nzTnTPGuxV7r+RiMvlC5JFA9/IV+XpRD9YzQ9qf3g9363p+x&#xA;h+5P9b9AePealdfM+sK5q63tyGPWpErVzc4P7uPuDz+p/vZf1j96V5a0IrTdJ1PU5jBp1rLdzKvN&#xA;khQuQo2qadt8jPJGIuRpsx4pTNRFpl/gXzl/1Zbz/kS/9Mq/NYv5wbvyWb+bL5O/wL5y/wCrLef8&#xA;iX/pj+axfzgv5LN/Nl8nf4F85f8AVlvP+RL/ANMfzWL+cF/JZv5svk7/AAL5y/6st5/yJf8Apj+a&#xA;xfzgv5LN/Nl8nf4F85f9WW8/5Ev/AEx/NYv5wX8lm/my+T3D8rLDUrDydb2mo27208ckvGKQFWCs&#xA;5YEg+5OaPXTjLITE29L2bCUcIEhR3ZbmG57sVdirsVdirsVdirsVdirsVYL+c/8AyhEv/MRD+s5n&#xA;9nf3vwdZ2v8A3HxDwDOgeUdir0v8iP8AlItQ/wCYP/mamaztT6B73c9i/wB5L+r+lT/PLTGg8y2t&#xA;+FpFe24Ut4yQkhv+FZcPZk7gR3FHbOOsgl3j7nnGbJ06I02+m0/ULa+g/vrWVJo/DlGwYV+7IziJ&#xA;RIPVnjmYSEh0L6m0jVLPVdNt9Rs3529ygdD3Feqn3U7HOVyQMJGJ5h7fFlE4iQ5FF5BseZ/nd5ig&#xA;g0aLQ43rdXjrLOg/ZhjNRX/WcCnyObPszCTLj6B03bGcCAgOZ+54lm8eadir6P8Ayw0x9O8k6bHI&#xA;CJZ1a5cH/i5iy/8ACFc5vWz4spew7Ox8GGPnv83jf5paY1h531EUIjuWW5jJ7iVQWP8AwfIZudDP&#xA;ixDy2ee7Sx8OeXnuxTMtwGbflBrkOmeb4452CQ6hG1rybYB2IaP72Xj9OYPaGIyx7dN3Z9lZhDNR&#xA;5S2fQec89W7FXYqhIdY0me7ks4b2CW7iNJbdJUaRSOzIDyGTOOQFkGmsZYE0CLReQbHYq7FXYq7F&#xA;XYq7FXYq7FXYq7FXYqwX85/+UIl/5iIf1nM/s7+9+DrO1/7j4h4BnQPKOxV6X+RH/KRah/zB/wDM&#xA;1M1nan0D3u57F/vJf1f0vRvzG8qHzJ5dkt4QPr9sfXsye7qN0r/lrt86ZrdHn8OdnkebuNfpfGx0&#xA;PqG4fOEkckUjRyKUkQlXRhQgg0IIOdKDbx5FbLcUMg8ree/MPlpmXT5Ve2kPKS0mBeIt/NQFSp/1&#xA;SMx8+lhl583L02tyYfpO3cye8/PPzNLAY7a0tbaQihmo7kHxUM3H7wcxY9mQB3JLmz7ZykbAB5/f&#xA;395qF5LeXszT3Ux5Syuakn/PpmwhARFDk6qczM3I2SoZJgyPyF5SuPMuvRW3E/UYSJb+XssYP2a/&#xA;zPSg+/tmNqtQMUL69HM0WlObJX8I5vpVEREVEAVFACqNgANgBnMkvZAU88/OPyjJqukx6vZx87zT&#xA;gfVRRVntzu3/AAB+L5VzY9najglwnkfvdR2tpTOHGOcfueFZvnmHAkEEGhG4IxV6l5S/Ou4s7eOz&#xA;1+B7tIwFW9iIM1B09RWIDn/KqD881Wo7NBNwNeTvNL2wYisgvz6s0H5v+Q/RMn16QP8A759CXn9/&#xA;Hj/w2YX8n5b5fa7H+VcFc/sLBfOX5zXeoQvZaDG9lbuKSXclBOwPUIFJCfOpPyzP0/ZwibnufsdZ&#xA;q+1zMcOPYd/V5mGYMGBIYGoI61zZumZVoH5h+d7CWK2s72S7DsEjtZx64Yk0CjlVx8lYZi5dJilu&#xA;RX2Obg1+eJABvyO76H01799Pt31BEjvmjU3McVSiyEfEFrXYHOcnVmuT1uMy4RxfV1RGRZuxV2Ku&#xA;xV2KuxV2KuxV2KuxVgv5z/8AKES/8xEP6zmf2d/e/B1na/8AcfEPAM6B5R2KvS/yI/5SLUP+YP8A&#xA;5mpms7U+ge93PYv95L+r+l7dmjelef8A5hflbBrzPqellbfViKyo20c9BQV/lbbr37+ObDSa44/T&#xA;L6fudTr+zRl9Udp/e8Q1PSdS0u7a01G2e2uE6xyCm3iD0I9xm9hkjMXE2Hm8mKUDUhRQuSa3Yq7F&#xA;WT+Uvy98weY5UaGI22nk/HfSghKf5A6ufl9JGYuo1cMfPc9zm6XQZMx2FR73vvlryzpfl3TEsNPS&#xA;ij4pZmpzkfu7n/Omc/mzSySsvVafTxxR4YprlTe7FXk3n38n3nml1Py2qh3JabTahRU9TCTQD/VP&#xA;0eGbfS9oUOGfz/W6HW9lWeLH8v1PJLuzu7Odre7he3nTZ4pVKMPmDQ5t4yBFh0MoGJoiipYWLsVd&#xA;iqN0jRNW1i6FrptrJdTHqEGyjxZj8Kj3JyGTLGAuRptxYZ5DURZe4/l7+WNt5dpqGoMlzq7Cild4&#xA;4AeoSvVj3b6B76LV605NhtH73pdB2cMPqlvP7md5gO0dirsVdirsVdirsVdirsVdirsVYL+c/wDy&#xA;hEv/ADEQ/rOZ/Z3978HWdr/3HxDwDOgeUdir0v8AIj/lItQ/5g/+ZqZrO1PoHvdz2L/eS/q/pe3Z&#xA;o3pXYqhtQ0vTdSgNvqFrFdQ9eEyBwD4io2PvkoTlE2DTDJjjMVIWGJXv5O+R7li0dtLak7kQytT7&#xA;pOeZke0co624E+ycB6EfFCr+SPk0NUyXjCteJlSny2QHJfynl8mH8j4f6Xz/AGJ1pX5beS9MdZIN&#xA;NjllXpJcFpjXxo5ZQfkMpyazLLmXIxdn4Yco/PdkwAAAAoBsAMxXNdirsVdirsVQep6NpOqRelqN&#xA;nDdoOglRWI/1Sdx9GThklH6TTXkwwmKkAWK3f5O+RpyTHay2xP8AvmZ/1SF8y49o5R1twZdk4D0r&#xA;4oX/AJUj5N/nvP8Akan/ADRkv5Ty+TD+R8P9L5o+x/KXyNaMGNi1y46GeR2H/Agqp+kZXLX5T1pt&#xA;h2Xgj0v3sqsrCysYBb2VvHbQL0ihRUX7lAGYspGRsm3OhCMRURQV8iydirsVdirsVYx5486w+WrW&#xA;ILF699chvq8Z2QBaVZyN6fF0HXMDX64YANrkeTuOyOyjq5GzUI8+/wCDbtr2teRIpLGcQ6veW8Mi&#xA;zg+lRiys9Co+Gq1AxJyZdODE1MgeSAMOn1pExeKMiK599fa868j695jfzlY2d5qN1KnqSRzQSzPI&#xA;hKo1QQzEGhGaTQajKc8YylI/F6rtfR6caSU4QiNgQREDqHtedU+fOxV2KuxVgv5z/wDKES/8xEP6&#xA;zmf2d/e/B1na/wDcfEPAM6B5R2KvS/yI/wCUi1D/AJg/+ZqZrO1PoHvdz2L/AHkv6v6WWfmnF5rt&#xA;wuq6dfSW2l28SJcRwzNE4kaQjmQvGoPJR1zie1RmHrjIiAHQ11fTfZ6Wml+6yREskiasA7Vy+9hn&#xA;lyXz9rs8sem6rdM8Ch39W6kAoxp+0SM1emOpykiEpbf0i7/XR0WniDkxxo90QirHz95w0DVza6tK&#xA;9ykD8Lq1m4s1B3WTrWm43ocsx9oZ8M6mbrmC05uxtLqcXFiAiSNiP1J3+Zl55ntJ7fWdP1GWLR7l&#xA;I4oVhlZKOyl6lBSvICoOZfak8sSJxkRA9xdf2Bi004nFOAOWJJNi/Lmyf8tNRvr/AMqwzXs73Eyy&#xA;SJ6sh5OVU7VY7n6cz+zMkp4QZGy6ft7BDFqSIDhFDkynNg6Z2KuxV2KuxV2KoDXrXUbvSLq202cW&#xA;19IlIJySoU1HdQSNu4ynUQlKBETUnJ0eTHDLGWQcUBzDyXy7rHmay8822mX+qXE4jujbTo00ksbG&#xA;pTo56V6bZzmmzZY6gQlIn1VzJe312l0+TRyyQxxFx4h6QD39HtOdS+fuxV2KuxV2KuxV2KuxV4x+&#xA;bmlXVt5gS/km9SC/X9ym/wC79FVVl3J8eW3jnL9sYTHLxE7S/Q9/7NamM8HABRhz87v+xmP5YeX7&#xA;zTtKF9NeGeHUIYpIbb4uMXU9zTfl2GbPsrTyhDiJsSA27nQ+0Gthly8AjRgSCe95fZWWoX3m1rTT&#xA;5vq93NcyrHNyKcaluR5Lv9mvTNBCEp5uGJqRJewy5YY9LxZBxRERt8kXc2+s+UfNscQui9xG8btL&#xA;GzcZUehowPUHcEHLJRnps1Xvt8WnHPFrtKTw+kg/B6j+Y3mi40HRFNoQt9dv6ULkV4ACrvQ9x0Hz&#xA;zf8AaWqOHH6fqLx3YfZ8dTm9f0RFnz7g8vstK07VdPk1HU/MaQ6o5YxQTcpGqp25uTUcj92aGGGO&#xA;SPFPJU/N7DLqcmGYx48JOPqRt8h5Mo/KnzdqE182h30zXETIz2jueTIU3KVO5Ur08KZn9k6yRl4c&#xA;jfc6f2j7Mxxh40Bwm9/O+qcfnP8A8oRL/wAxEP6znX9nf3vwfOu1/wC4+IeAZ0DyjsVel/kR/wAp&#xA;FqH/ADB/8zUzWdqfQPe7nsX+8l/V/S9G/M3/AJQfUv8Anh/1ER5yfan+Ly+H3h73sD/HIf53+5Ly&#xA;3yR5zHliW8kNp9b+soigCT06FCT14v15Zz+h1vgEmrt7Ltbsr82Iji4eG+l8/iENN+l/OPmaWaCC&#xA;tzeOvJUB4RoqhAWbwVV3OQlx6nKSBvL7G6PhaDTgE+mI+JPP73oH5sWq2nkvTrVSWW3uYYlY9SEg&#xA;kWv4Zue14cOCI7iPuLzHs5k49XOX86Mj85Rb8iadcal+W81jb3BtZp5JVScVqp5A9iDvSmOgxmel&#xA;MQaJtHbGeOLtATkOIADZi/5f3WqwefbawuLqRwrXEM6GRmRjHE579RyQHMDs6cxqREk9R9hdz21j&#xA;xS0UpxiP4SNu8j9BS7zbDreg+YJbZtSmleonimV3U0c1FQTsQffKNYMmHKRxE9XK7Nlh1OAS4AOl&#xA;UHqP5h6HqGp6T61nfNafUElnkQFgJAFrQlSKU4ntm/7RwSyQuMq4bPveO7E1ePFlqceLjoe7d5Z5&#xA;YsvN2vTzWWm38qKEDXBkuJEj41oOQBJP3Zz+lhmzExhI+e5ey7Qy6XTRE8kB5ekWhtTTzD5Z1a40&#xA;/wCvSwXEdOcltNIqsGAYGo4noe+QyjLgmY8RB8i3ac4NXiE+EGJ/nAJt5l8n+cNL01dY1K99ejKJ&#xA;AJpJJYy/QksKddjQ5kanR58ceOcr+JtwdB2npc2Twsca/wA0AF6B+Vur3+p+WWe9laeW3uHgWVzV&#xA;igRHHInc/b75ueys0smL1G6Nfc8x7Q6aGHUVAUJRB+0j9DzDzAl7J58vI7Elb179ltmU8SJDJRKH&#xA;tvmh1AkdQeH6uLb5vYaIwGiiZ/R4e/urdF+ZvKnmHyq9tqcl96ks7cTcwu4dZAOVCxoTWnXLNVpM&#xA;unqZlueoadB2jg1gljEaA6ECqZ3H59nT8vF1xwr6iD9WoQApnrxDED/J+On0Ztx2gfy3ifxcvj+N&#xA;3m5djROv8Ef3f1f5vd+hgWl2Nt5lFzfa/wCYktLoMViS4PJjUVqAWUKnai5p8WMZ7lkyUfN6XUZp&#xA;aThhgwmUetf2Hf3pv+XPmrUbLzAmg3Nz9bsJnaGJ+RdUda8WiY/sNTp9OZPZurlDJ4ZNxO39jg9u&#xA;dnY8mDx4x4ZgWenz8whfzG07VtF1o3I1OWSPUZJp4kVnT0hzqE+0fs8qDK+0sc8WS+I+qz7m7sPP&#xA;i1GHh4ADAAHkb258lXSbHzx5vvLXU5JSLG2kjCPI5SP90RyKKKlm23NOuSw49RqZCZPpH6GGpzaP&#xA;QwljA9cgeQs79/6nsmdO8E7FXl/52rIRo7cT6a/WAX7cm9Pb/hc0HbgPo+P6HsfZMj953+n/AHyZ&#xA;eUPPukReVG9WGdV0S3gS6bipDF29NeHxdz40y/R9oQGHcH0AX9zidp9jZTqdjH97KVfDffZ5voOu&#xA;29h5rg1iaNjAs7yOi0LBZOQ2rStOWaPT5xDMJnlb1es0csumOIHfhA+SdfmlIF84rPSqNBBIvuu/&#xA;9Myu1T+/vyDgez0b0nD/AEpBkXn4f4q8pWWuaTHJJDbPI0kLLSQIfhckAt9kp2PTM3tD/CMIyQ5B&#xA;1XY3+B6qWHKQDIDfpfT52x3yvqX5cx6SI9c09zqEXItKPUYSgmq04sApptTYZhaXLpRCskfV8d3a&#xA;9oYNect4Z+g9NtvsZT5AvPKmoavJJpOgyWctspK3nMugVvho1W2Zh2Fc2HZ88M5kwgY11dN2zi1O&#xA;LEBlyiYl/DVfo6fBV/OyUp5MC1H7y7iXf2V22/4HOq7NH734PA9sH9z8Q8EzfvLOxV6X+RH/ACkW&#xA;of8AMH/zNTNZ2p9A97uexf7yX9X9LMPzZ8yWdtpMmglHa8vUjlVhTgsay8qk1rUmOlKZxfa+pjGB&#xA;x/xSr7/2Ppfs3oJzyjP/AAwsfGv2sG/L/X9E0e/nbVLQ3IuFSOFlRJCh5b7OV2Pt4ZqeztRjxSPG&#xA;Lt6LtrRZs8B4cuHhsnci/k91jiiiXjGiov8AKoAH4Z1oAHJ84lIncvMfzi8wWskcOgrG/wBYilS6&#xA;klNAgXg6hRvUn480PbOoBAx9bt7D2X0UgTnJHCQY+fMfqRn5Q6/Zyae2hhJBdw+pcs5A9MoWVdjW&#xA;tat4ZZ2PqImPh/xDdo9ptHMZPG24TUfO6LB4dRfy558lvJISRaXcweI/aMblkNPfg1RmqGTwNQZE&#xA;cpF6KWAarRCAP1Qjv5ij94Q3nHzGvmDW31BIjDFwWOKNjVgq9zTxJOV63U+Nk4qpt7L0P5XCIE2b&#xA;t6drX5haPJ5Ra89G4UamlxbW0ZVa81XiSxDU41br+Gb7P2jA4eKj6rAeQ0nYmUarguP7sxkfd8ub&#xA;B/yw8xWej608d0jsL8R28bIAeLlxQtUjbftmq7L1McWSj/Fs9F7QaGefCDGvRZ+xS/NP/lNLv/Uh&#xA;/wCTa5Htb+/Pw+5l7O/4pH3n72a+ctfstd/Li41CzV0ieWNOEoAYMsqg1oWH45tNbqI5tKZR5X+l&#xA;0HZejnpteMc6ujy9yR/lt510jRdHvLK9WX1BJJdq0ahgy+mi8RuPiqnfb3zE7M10MUDGV9/2B2Pb&#xA;3ZOXUZYzhVUI/afs3Yld6+D5tk121Q8frn1qKOSgJAfkFalaVHXNdPUfvvEH863dY9F/gowyP8HC&#xA;fkn3n7z9Z+Y7O0tLO3liSJ/WmMvGvPiVCqFLVHxHc5mdodoRzxEYgh13Y3Y09LOU5kGxQruTr/CO&#xA;pH8q1t1ib696v1/6uB8RFacaePp/FT6MyvycvydV6r4q/Hk6/wDlPH/KXFforgv8eezHPJ195Eit&#xA;JofMdkWuQ/KK5HqMGWg+AqjbEH2zB0WTTgEZRv37u17Uw60yB08vT1G3z3ZN5RvfJOo+Yo4dL8vS&#xA;xvCfUhveZYJx3DyKWovtud8z9Hk088tQxnbq6jtPFrMWAnJmBvYx7/Ibb/YkX5p+Y9P1fVIba0Dk&#xA;6cZYZncAKzFgDw3rQFT1AzE7W1MckwI/w2HY+zuhyYMZlOvXRH7Wcflp5l0y/wBIh0q2jkjuNOgQ&#xA;T81UIxJPJkIY/teIGbXszVQnAQHOIee7e0GTFlOWRBjORr9rMs2joHYqoXthZX0Bt72CO5gJqY5V&#xA;DrUdDQ98hPHGYqQsNmLNPHLigTE+Sja6Ho1pby21tYwRW8/99EsahX7fGKfF9ORhghEECIALZk1e&#xA;WchKUpGQ5G+XuUU8seWkYOmk2SupBVhbxAgjoQeORGlxD+CPyDM9oagijkn/AKY/rRF3pGlXj87u&#xA;yguHI48pYkc0HarA5OeGEvqAPwa8epy4xUZSj7iQr29tb20KQW8SQwxiiRRqEVR7KKAZKMREUBQa&#xA;pzlM8UjZPUpXdeT/ACvdTGafS7dpWNWYIFJPieNK5RPR4ZGzEObj7T1MBUZyr3plZ2VnZQCCzgjt&#xA;4RuI4lCLXxoKZdCEYioig4mXLPIeKZMj5vJ/zy8x2csdnoMDiSeKX6zdBSDwIUpGp9yHY0+Wbvsz&#xA;CRcz7nnO2dQDWMc+ZeSZt3QOxV6z+Qlmxm1e9I+FVhhU+JJZm+6gzUdqy2iHfdiQ3lL3PVL3RtHv&#xA;pFkvbG3upFHFXmiSRgta0BYHbfNFPBCZuUQfeHp8Wqy4xUJyiPIkKMflny5FIskelWaSIQUdbeIE&#xA;EdCCFyI0uIGxGPyDZLX6gijknX9Y/rTLL3EQd7ouj30glvbG3upFHFXmiSRgOtAWB2yqeCEzcog+&#xA;8N+LVZcYqE5RHkSG7LR9IsHZ7Gxt7V3FHaCJIyR1oSoGGGGEPpiB7guXVZcgqcpS95JU77y/od/M&#xA;J72wt7iYCnqSRqzUHYkjfI5NPjmblEE+5nh1ubGKhOUR5FbL5c8vS8fV0u0k4KETlBE3FRuFFV2G&#xA;+A6bEecY/ILHXZ48skx/nFWk0fSJLRLOSxt3tIzyS3aJDGp33CEcR1OTOGBHCYiu6mEdVlEuMSlx&#xA;HrZv5qUHlzy9bzJNBpdpFNGeUciQRKykdwQtRkY6bEDYjEH3BnPXZ5CpTmQf6RXXehaJeTGe70+2&#xA;uZiADLLDG7UHQcmBOGenxyNyiCfcGOPWZsYqE5RHlIhUXStMWyNitnAtk32rURoIjU13SnHr7YRi&#xA;hw8NDh7q2YnUZDPj4pcffZv5qMPl3y/AxaDTLSJmUozJBGpKsKMpovQjrkY6bGOUY/INk9dnlsZz&#xA;P+cXW/l7QLaVZrfTLSGZfsyRwRqw+RCg4x02OJsRiD7gs9dnmKlOZHnIrY/LPl2K5+tR6ZbJcA8h&#xA;KIkBDeI22OAaXEDYiL9yZa/OY8JnLh95TLL3ESq+8q+W76UzXem28srGrScAGJ92WhP05j5NJimb&#xA;lEW5uHtHUYxUZyA96NsdN0/T4fRsbaO2irUpEoQE+Jp1y3HijAVEABx82eeU3ORkfNDS+WvLk0ry&#xA;y6VZySuSzyPbxMzE7kklak5WdLiJsxj8g3R1+oiKGSYA/pH9atZaRpNgzNY2UFqzijtBEkZIHY8Q&#xA;K5OGGEPpAHuDXl1OXJtOUpe8kovLGh2KuxV2KuxV2KuxVgP50399ZeVbaSzuJLaR76NGeJ2RivpS&#xA;mlVINKqM2HZsBLIbF7fqdV2vOUcQINer9BeM/wCLPNXD0/0zfenSnD6zNSnhTlm6/L4/5o+Qed/N&#xA;Zf50vmUqJLEsxqTuSepOWtLsUOxV9Gfld5dk0TylbpOvG6vGN3Op6qZAAin5IoqPGuc5rs3HkNch&#xA;s9f2bg8PEL5ndluYbnuxV2KuxV2KuxV2KuxV2KuxV2KuxV2KuxV2KuxV2KuxV2KuxV2KuxV2KuxV&#xA;2KuxV51+ev8AyiNp/wAx8f8AyZmzZdl/3h/q/pDqO2v7of1v0F4Xm9eYdiq6GGaaVYoUaWVzxSNA&#xA;WZiewA3OJIG5SASaD1f8u/yluluYdX8xR+kkRD2+nNuzMNw0vgB/L18adDqNXrxXDD5u90HZZsTy&#xA;fL9b2DNO9A7FXYq7FXYq7FXYq7FXYq7FXYq7FXYq7FXYq7FXYq7FXYq7FXYq7FXYq7FXYq7FWndE&#xA;RndgqKCWYmgAHUk4qS8F89fmO+q+Y4Hs0SfSNNkPpW8yh4rg9HaRGBBVhsvgN9jm/wBLo+CBv6pf&#xA;Y8tre0OPIK3hH7Xo2l+Uvy48zaVBqdvpMIhuFqVjLwlGH2kYRMlCpFM109RmxSMTJ2+PS6fNASER&#xA;R+H3Ihfyo8gKwYaUKjxnuCPuMmR/P5v532Bn/Jmn/m/af1p9pegaJpSkadYwWldmaJFVj82pyP05&#xA;jzyyn9RJcrHghD6QAj8rbXYq7FXYq7FXYq7FXYq7FXYq7FXYq7FXYq7FXYq7FXYq7FXYq7FXYq7F&#xA;XYq7FXYq7FXmX5z+cGsbBNAs3pc3q87xlO6wVoF/56Efd882nZ2n4jxnkOTpe19Xwx8Mczz937Xi&#xA;ebt5tnf5T+czomsjTruSmmaiwRqnaOY7I+/QH7Lff2zA1+m448Q+oO07L1fhz4T9Mvve/Zz71TsV&#xA;dirsVdirsVdirsVdirsVdirsVdirsVdirsVdirsVdirsVdirsVdirsVdirsVdirsVQ+o39vp9hcX&#xA;1y3GC1jaWU9+KCpp77ZKETIgDqwyTEImR5B8u69rF1rOr3Wp3RrLcyF+NahV6Kg9lWgGdTixiERE&#xA;dHic+U5JmR6oDLGp2Kvov8rvMr675Whad+d7ZH6tck9W4iqOf9ZCN/Guc5rsPh5NuR3ev7N1Hi4h&#xA;f1DZl2YbnuxV2KuxV2KuxV2KuxV2KuxV2KuxV2KuxV2KuxV2KuxV2KuxV2KuxV2KuxV2KuxV2KsI&#xA;/OO8e38kXCIafWpooWI8OXM/8QzO7OjeUeTre1p1gPmQ+fc6F5N2KuxV6j+Q11Iur6paA/upLdJW&#xA;H+VG/EfhIc1fasfSD5u77EkeOQ8ntGaR6N2KuxV2KuxV2KuxV2KuxV2KuxV2KuxV2KuxV2KuxV2K&#xA;uxV2KuxV2KuxV2KuxV2KuxVi/wCZejTav5Nv7eBS9xEFuIkHUmI8mAHclK098ytFkEMoJ5OF2jhO&#xA;TCQOfN83Z0rxzsVdir178iNGmVdS1iRSsbhbWAn9qh5yfd8OaftTINo/F6DsXEfVP4PW81DvnYq7&#xA;FXYq7FXYq7FXYq7FXYq7FXYq7FXYq7FXYq7FXYq7FXYq7FXYq7FXYq7FXYq7FXYq8o89fk7Jd3Uu&#xA;peXeCvKS82nuQgLHqYmPwiv8poPftm20vaNDhn83Ra3skyPFj+X6nnknkHzpG7I2jXRK7ErGWH0M&#xA;tQc2I1eI/wAQdSdDmH8JZH5a/JrzFfzpJq4Gm2QILglWnYeCqtQvzb7jmNm7RhEen1Fy9P2TkkfX&#xA;6Y/a9u0zTbLTLGGwsYhDa268Yox2Hv4kncnNHOZkbPN6XHjjCIjHYBE5Fm7FXYq7FXYq7FXYq7FX&#xA;Yq7FXYq7FXYq7FXYq7FXYq7FXYq7FXYq7FX/2Q==</xmpGImg:image>
               </rdf:li>
            </rdf:Alt>
         </xmp:Thumbnails>
      </rdf:Description>
      <rdf:Description rdf:about=""
            xmlns:xmpTPg="http://ns.adobe.com/xap/1.0/t/pg/"
            xmlns:stDim="http://ns.adobe.com/xap/1.0/sType/Dimensions#"
            xmlns:xmpG="http://ns.adobe.com/xap/1.0/g/">
         <xmpTPg:NPages>1</xmpTPg:NPages>
         <xmpTPg:HasVisibleTransparency>False</xmpTPg:HasVisibleTransparency>
         <xmpTPg:HasVisibleOverprint>False</xmpTPg:HasVisibleOverprint>
         <xmpTPg:MaxPageSize rdf:parseType="Resource">
            <stDim:w>578.000000</stDim:w>
            <stDim:h>578.000000</stDim:h>
            <stDim:unit>Points</stDim:unit>
         </xmpTPg:MaxPageSize>
         <xmpTPg:PlateNames>
            <rdf:Seq>
               <rdf:li>Cyan</rdf:li>
               <rdf:li>Magenta</rdf:li>
               <rdf:li>Yellow</rdf:li>
               <rdf:li>Black</rdf:li>
            </rdf:Seq>
         </xmpTPg:PlateNames>
         <xmpTPg:SwatchGroups>
            <rdf:Seq>
               <rdf:li rdf:parseType="Resource">
                  <xmpG:groupName>Default Swatch Group</xmpG:groupName>
                  <xmpG:groupType>0</xmpG:groupType>
               </rdf:li>
            </rdf:Seq>
         </xmpTPg:SwatchGroups>
      </rdf:Description>
      <rdf:Description rdf:about=""
            xmlns:dc="http://purl.org/dc/elements/1.1/">
         <dc:format>image/svg+xml</dc:format>
         <dc:title>
            <rdf:Alt>
               <rdf:li xml:lang="x-default">Untitled-2qrqraratrwqgtey</rdf:li>
            </rdf:Alt>
         </dc:title>
      </rdf:Description>
      <rdf:Description rdf:about=""
            xmlns:xmpMM="http://ns.adobe.com/xap/1.0/mm/"
            xmlns:stRef="http://ns.adobe.com/xap/1.0/sType/ResourceRef#"
            xmlns:stEvt="http://ns.adobe.com/xap/1.0/sType/ResourceEvent#">
         <xmpMM:RenditionClass>proof:pdf</xmpMM:RenditionClass>
         <xmpMM:DocumentID>xmp.did:F93C372DF0DBE511B85DB709F06CD765</xmpMM:DocumentID>
         <xmpMM:InstanceID>xmp.iid:F93C372DF0DBE511B85DB709F06CD765</xmpMM:InstanceID>
         <xmpMM:OriginalDocumentID>uuid:d0d4cd04-ca72-46af-9745-37026557c2e2</xmpMM:OriginalDocumentID>
         <xmpMM:DerivedFrom rdf:parseType="Resource">
            <stRef:instanceID>uuid:2c1daa6e-cbde-4d10-976f-8520c444a2c4</stRef:instanceID>
            <stRef:documentID>uuid:d0d4cd04-ca72-46af-9745-37026557c2e2</stRef:documentID>
            <stRef:originalDocumentID>uuid:d0d4cd04-ca72-46af-9745-37026557c2e2</stRef:originalDocumentID>
            <stRef:renditionClass>proof:pdf</stRef:renditionClass>
         </xmpMM:DerivedFrom>
         <xmpMM:History>
            <rdf:Seq>
               <rdf:li rdf:parseType="Resource">
                  <stEvt:action>saved</stEvt:action>
                  <stEvt:instanceID>xmp.iid:F93C372DF0DBE511B85DB709F06CD765</stEvt:instanceID>
                  <stEvt:when>2016-02-25T12:47:10-06:00</stEvt:when>
                  <stEvt:softwareAgent>Adobe Illustrator CS6 (Windows)</stEvt:softwareAgent>
                  <stEvt:changed>/</stEvt:changed>
               </rdf:li>
            </rdf:Seq>
         </xmpMM:History>
      </rdf:Description>
      <rdf:Description rdf:about=""
            xmlns:pdf="http://ns.adobe.com/pdf/1.3/">
         <pdf:Producer>Adobe PDF library 10.01</pdf:Producer>
      </rdf:Description>
   </rdf:RDF>
</x:xmpmeta>
                                                                                                    
                                                                                                    
                                                                                                    
                                                                                                    
                                                                                                    
                                                                                                    
                                                                                                    
                                                                                                    
                                                                                                    
                                                                                                    
                                                                                                    
                                                                                                    
                                                                                                    
                                                                                                    
                                                                                                    
                                                                                                    
                                                                                                    
                                                                                                    
                                                                                                    
                                                                                                    
                           
<?xpacket end="w"?>
	</metadata>
<g>
	<g>
		<path fill-rule="evenodd" clip-rule="evenodd" fill="none" d="M33.4414063,477.0380859c0-127.3613281,0-254.7255859,0-382.0878906
			c170.3730469,0,340.7451172,0,511.1171875,0c0,127.3623047,0,254.7265625,0,382.0878906
			C374.1865234,477.0380859,203.8144531,477.0380859,33.4414063,477.0380859z M155.5224609,383.0302734
			c-2.0048828,2.7832031-3.8789063,5.6738281-6.0390625,8.3300781c-6.0693359,7.46875-11.2109375,15.5488281-15.6640625,24.0390625
			c-3.5117188,6.6953125-7.4003906,13.3046875-8.8583984,20.8632813
			c-1.8681641,9.6835938-0.4785156,18.9296875,5.3945313,26.9570313
			c7.8857422,10.7773438,21.1503906,14.8554688,33.9628906,11.3320313
			c16.9335938-4.6542969,24.875-21.6269531,21.6376953-37.7675781c-1.9101563-9.5175781-6.4892578-17.96875-11.5039063-26.0722656
			c-5.4697266-8.8417969-11.6591797-17.2382813-17.4921875-25.8574219
			c-0.1191406-0.1777344,0.2929688-0.7128906,0.4570313-1.0820313c3.2685547,0.4609375,6.5419922,0.8867188,9.8046875,1.3847656
			c9.5712891,1.4667969,19.2246094,1.9082031,28.6621094-0.2617188
			c18.6386719-4.2832031,30.9746094-15.4140625,35.7021484-34.3808594c1.890625-7.5859375,2.7480469-15.2910156,2.84375-23.0458984
			c0.1738281-13.9980469-0.0244141-28.0009766-0.0273438-42.0019531
			c-0.0097656-51.0058594-0.0039063-102.0117188-0.0039063-153.0175781c0-0.6669922,0.0019531-1.3330078,0-2
			c-0.015625-5.5488281,0.0605469-4.6171875,4.4833984-4.6474609c5.5-0.0361328,11.0009766-0.0410156,16.5019531,0.0078125
			c2.0498047,0.0185547,3.0585938-0.7177734,3.0429688-2.9121094c-0.0585938-8.3339844-0.0449219-16.6679688-0.0078125-25.0029297
			c0.0068359-1.5224609-0.6484375-2.0839844-2.09375-2.0107422c-0.9970703,0.0507813-2,0.0039063-2.9990234,0.0039063
			c-29.0039063,0-58.0068359,0-87.0107422,0c-0.8330078,0-1.671875,0.0605469-2.4990234-0.0107422
			c-1.6484375-0.1416016-2.3876953,0.4101563-2.3730469,2.2148438c0.0683594,8.5,0.0605469,17.0019531,0.0068359,25.5029297
			c-0.0117188,1.7900391,0.7529297,2.2421875,2.4091797,2.2246094c6.3330078-0.0673828,12.6679688-0.0498047,19.0019531-0.0195313
			c6.4716797,0.03125,5.5107422-0.6503906,5.5136719,5.6074219c0.0224609,61.6738281,0.0419922,123.3476563-0.0273438,185.0214844
			c-0.0078125,6.7861328-0.4248047,13.5820313-0.9296875,20.3535156
			c-0.6103516,8.1835938-5.2099609,14.3789063-12.6787109,15.7773438c-4.4296875,0.828125-9.2304688,0.21875-13.7880859-0.3535156
			c-4.3671875-0.546875-5.5068359-0.0410156-5.5146484,4.328125
			C155.4189453,365.3642578,155.4882813,374.1982422,155.5224609,383.0302734z M244.9248047,211.5019531
			c0.5146484,5.0957031,0.7207031,10.2451172,1.6025391,15.2763672
			c2.7910156,15.9316406,11.0517578,28.4638672,24.2568359,37.7539063
			c9.6748047,6.8066406,20.5498047,10.5253906,32.2275391,11.3466797c8.2314453,0.578125,16.4912109,0.3007813,24.6816406-1.7587891
			c13.6376953-3.4267578,24.9482422-10.3242188,33.7724609-21.1992188
			c7.0175781-8.6494141,10.7558594-18.6113281,12.3134766-29.6962891
			c1.3369141-9.5078125,1.4033203-18.9902344-0.5390625-28.1816406
			c-4.5439453-21.5068359-17.734375-36.0517578-38.1533203-44.0488281
			c-8.7460938-3.4257813-17.8779297-4.2304688-27.2119141-4.1777344
			c-13.4384766,0.0761719-25.7695313,3.5800781-36.7490234,11.2900391
			c-10.8535156,7.6210938-18.8447266,17.4609375-22.8417969,30.3837891
			C245.9541016,196.0253906,245.1113281,203.6513672,244.9248047,211.5019531z M471.25,219.8144531
			c14.4970703,0,28.9951172-0.0410156,43.4912109,0.0449219c2.1757813,0.0126953,3.0683594-0.6474609,2.8183594-2.8173828
			c-0.6601563-5.7333984-1.1367188-11.4931641-1.9648438-17.2021484
			c-2.1777344-15.0322266-8.2089844-28.078125-19.8925781-38.2216797
			c-7.7714844-6.7490234-16.6875-11.4287109-26.6445313-13.4638672c-9.2470703-1.890625-18.671875-1.7226563-28.1542969-0.390625
			c-14.5800781,2.0458984-26.5976563,8.7099609-36.5507813,19.1259766
			c-11.9375,12.4951172-17.3828125,27.8554688-17.6220703,44.9472656
			c-0.0869141,6.2138672,0.5458984,12.5947266,1.9521484,18.6435547
			c4.3769531,18.8300781,15.8964844,31.9335938,33.5957031,39.5712891c9.984375,4.3085938,20.5,5.8457031,31.3476563,6.0224609
			c9.1708984,0.1503906,18.1806641-0.6142578,26.9570313-3.2041016
			c13.9609375-4.1210938,25.1757813-12.1962891,33.5253906-24.1542969c1.6152344-2.3125,1.4326172-2.8408203-1.2734375-3.7177734
			c-8.578125-2.7783203-17.21875-5.375-25.7480469-8.2929688c-1.6279297-0.5585938-2.3066406-0.1386719-3.3964844,0.7724609
			c-3.5537109,2.9658203-7.0019531,6.1386719-10.8886719,8.6054688c-5.2167969,3.3115234-11.140625,5.1191406-17.3701172,4.7294922
			c-4.9228516-0.3066406-9.6933594-1.7382813-14.1787109-3.9033203
			c-10.3359375-4.9882813-14.4628906-13.9238281-15.6708984-24.7089844
			c-0.1835938-1.6416016,0.3662109-2.5410156,2.1787109-2.3955078c0.9931641,0.0800781,1.9980469,0.0107422,2.9980469,0.0107422
			C444.2568359,219.8144531,457.7529297,219.8144531,471.25,219.8144531z M389.5224609,325.1337891
			c0.0039063,0,0.0078125,0,0.0117188,0c0,2.8300781,0.0888672,5.6621094-0.0302734,8.4873047
			c-0.0849609,2.03125,0.8818359,2.5986328,2.6943359,2.5732422c3.4931641-0.0507813,6.9921875-0.0898438,10.484375,0.0136719
			c2.1445313,0.0644531,3.0625-0.7763672,2.8710938-2.9101563c-0.0742188-0.8251953-0.0371094-1.6650391-0.0039063-2.4951172
			c0.046875-1.2011719-0.4179688-1.6855469-1.6982422-1.8574219c-3.4833984-0.4677734-3.4814453-0.5507813-3.5068359-4.0458984
			c-0.015625-2.1630859-0.0117188-4.3271484,0-6.4902344c0.0214844-4.4238281,0.8320313-5.4160156,5.125-6.3007813
			c4.3847656-0.9042969,6.6855469,0.8037109,7.0107422,5.2558594c0.0839844,1.1601563,0.0253906,2.3300781,0.0263672,3.4941406
			c0.0039063,4.328125,0.0126953,8.6552734,0.0029297,12.9833984c-0.0029297,1.25,0.0869141,2.3505859,1.7744141,2.3408203
			c4.1621094-0.0253906,8.3222656,0.0078125,12.484375-0.0410156c0.4257813-0.0039063,1.1914063-0.3623047,1.21875-0.6181641
			c0.1914063-1.7910156,0.4521484-3.6337891,0.1796875-5.3818359c-0.0810547-0.5175781-1.8144531-1.1210938-2.7705078-1.0888672
			c-2.2060547,0.0751953-2.8525391-0.7822266-2.8076172-2.9140625c0.0957031-4.6572266,0.1191406-9.3271484-0.1230469-13.9765625
			c-0.2617188-5.0712891-2.3769531-6.9775391-7.2988281-8.5488281c-3.6210938-1.15625-6.8857422-0.1210938-10.2050781,0.6455078
			c-3.4941406,0.8066406-8.21875,0.9238281-11.3847656-0.2402344c-0.1523438-0.0566406-0.3417969-0.0146484-0.4921875-0.0751953
			c-4.5-1.8027344-8.7460938-0.4960938-12.9453125,1.1025391c-1.0488281,0.4013672-1.9511719,1.40625-2.7558594-0.4101563
			c-0.2050781-0.4609375-1.3984375-0.6630859-2.1425781-0.6777344c-3.4941406-0.0683594-6.9912109-0.1015625-10.484375-0.0058594
			c-2.671875,0.0732422-3.0195313,0.6162109-3.0546875,3.8925781c-0.0332031,2.8515625-0.0371094,3.0400391,2.9130859,3.1123047
			c2.1337891,0.0517578,2.9228516,0.6728516,2.8447266,2.8681641c-0.1445313,4.1552734-0.0996094,8.3212891-0.0136719,12.4814453
			c0.0351563,1.8105469-0.4003906,2.6494141-2.4570313,2.7412109c-3.25,0.1435547-3.875,1.2646484-3.265625,4.7353516
			c0.2597656,1.4804688,0.9335938,2.4150391,2.6054688,2.4072266c5.4921875-0.0273438,10.9863281-0.0136719,16.4785156-0.0117188
			c1.671875,0.0019531,2.3671875-1.0019531,2.4941406-2.4951172c0.0820313-0.9912109,0.1953125-2.0361328-0.0273438-2.9804688
			c-0.1484375-0.6289063-0.7626953-1.4169922-1.3466797-1.6191406c-1.3388672-0.4638672-3.3984375-0.1572266-4.0283203-1.0058594
			c-0.7294922-0.984375-0.2607422-2.8710938-0.2744141-4.3652344c-0.0195313-2.1650391,0.2060547-4.3544922-0.0625-6.4853516
			c-0.2890625-2.2880859,0.7763672-3.4550781,2.6494141-4.1191406c1.3808594-0.4892578,2.8339844-0.9433594,4.2792969-1.0429688
			c3.375-0.2324219,4.8984375,1.1914063,5.0117188,4.5800781
			C389.5976563,319.4716797,389.5224609,322.3037109,389.5224609,325.1337891z M262.0351563,288.71875
			c-0.0087891,0.125-0.0175781,0.25-0.0273438,0.375c-3.5009766,0-7.0019531-0.0429688-10.5019531,0.0117188
			c-3.7431641,0.0585938-3.984375,0.3330078-4.1103516,3.9589844c-0.1230469,3.5712891-0.1289063,3.6552734,3.6005859,3.9150391
			c1.5810547,0.1103516,2.4345703,0.4248047,2.421875,2.2539063c-0.0615234,9.0009766-0.0322266,18.0029297-0.0214844,27.0039063
			c0.0019531,1.5507813-0.5546875,2.5400391-2.2509766,2.6679688c-1.1220703,0.0849609-2.8085938-0.0908203-3.2207031,0.5283203
			c-0.6357422,0.9570313-0.5273438,2.4970703-0.5,3.7861328c0.0585938,2.8320313,0.1181641,2.9121094,3.2919922,2.9453125
			c5.8330078,0.0605469,11.6689453,0.0605469,17.5029297,0c3.2832031-0.0332031,3.9042969-0.7480469,4.0917969-4.1640625
			c0.1464844-2.6523438-0.0712891-2.9189453-2.5214844-3.0957031c-4.2890625-0.3076172-4.2890625-0.3076172-4.2949219-4.7724609
			c-0.0009766-1,0.0439453-2.0029297-0.0048828-3c-0.0722656-1.4638672,0.5341797-2.078125,2.0400391-2.0517578
			c2.6650391,0.0488281,5.3447266,0.1054688,7.9960938-0.1054688c3.6435547-0.2900391,7.3740234-0.8349609,10.0117188-3.640625
			c4.2353516-4.5068359,6.1054688-9.7685547,3.9677734-15.9355469c-1.9248047-5.5498047-5.9619141-8.6943359-11.6416016-9.4267578
			C272.6210938,289.296875,267.3144531,289.1171875,262.0351563,288.71875z M446.5253906,306.3154297
			c-0.2988281-2.8447266-0.6542969-5.2675781-0.78125-7.7041016c-0.1289063-2.4921875-0.0654297-4.9951172-0.0234375-7.4921875
			c0.0253906-1.4902344-0.6455078-2.0546875-2.1005859-2.0371094c-3.6640625,0.0449219-7.3300781-0.0556641-10.9912109,0.0351563
			c-2.6337891,0.0664063-2.8662109,0.4033203-2.9003906,3.4541016c-0.0205078,1.7626953-0.5136719,3.6162109,2.5224609,3.6982422
			c3.1933594,0.0869141,3.2539063,0.4072266,3.2695313,3.5205078c0.0390625,8.3261719,0.0195313,16.6533203,0.0097656,24.9794922
			c-0.0058594,3.7216797-0.0136719,3.7978516-3.8183594,4.1826172c-1.4609375,0.1474609-2.1132813,0.6464844-2.0058594,2.1240234
			c0.0605469,0.8291016,0.0917969,1.6738281-0.0048828,2.4951172c-0.2324219,1.9726563,0.6337891,2.6796875,2.5556641,2.6367188
			c3.4941406-0.0820313,6.9941406,0,10.4902344-0.046875c0.8105469-0.0097656,2.0566406,0.0214844,2.3515625-0.4443359
			c1.6669922-2.6318359,3.125-1.0166016,4.8994141-0.1494141c7.1142578,3.4785156,15.5830078,0.0556641,18.4101563-7.3691406
			c1.6416016-4.3125,1.7509766-8.9169922,0.8642578-13.2607422c-1.1835938-5.8017578-4.5214844-10.4365234-10.7021484-11.8066406
			C454.390625,302.2050781,450.3515625,303.2451172,446.5253906,306.3154297z M109.4589844,305.9160156
			c0-5.1191406-0.1035156-9.6132813,0.0439453-14.0996094c0.0742188-2.2441406-0.7763672-2.8535156-2.8876953-2.7617188
			c-3.3261719,0.1455078-6.6660156-0.0390625-9.9951172,0.0634766c-2.796875,0.0869141-3.0654297,0.5107422-3.1630859,3.8291016
			c-0.1025391,3.4589844-0.1123047,3.5703125,2.7148438,3.8242188c1.5175781,0.1357422,2.4970703,0.3154297,2.4863281,2.1816406
			c-0.0527344,9.3300781-0.0390625,18.6601563-0.0087891,27.9902344c0.0048828,1.4833984-0.5957031,2.0634766-2.0644531,2.0654297
			c-0.9423828,0.0009766-2.6230469,0.1396484-2.6982422,0.4892578c-0.3349609,1.5654297-0.5126953,3.3046875-0.1289063,4.8251953
			c0.1933594,0.7675781,1.6835938,1.6777344,2.6171875,1.7109375c4.8251953,0.1699219,9.6601563,0.078125,14.4921875,0.078125
			c1.4033203-0.0019531,2.5664063-0.1132813,2.7519531-2.0166016c0.3193359-3.2734375-0.03125-4.7832031-2.0869141-5
			c-1.8994141-0.1992188-2.1113281-1.0449219-2.0888672-2.5615234c0.0537109-3.6640625-0.0332031-7.3310547,0.0341797-10.9960938
			c0.046875-2.6035156,2.3027344-4.3945313,5.3710938-4.421875c2.0566406-0.0185547,3.4921875,1.6914063,3.5732422,4.4863281
			c0.0820313,2.8300781-0.0605469,5.6669922,0.0371094,8.4960938c0.1357422,3.9355469,0.4033203,7.8652344,0.6142578,11.796875
			c3.9824219,0.0742188,7.9648438,0.1484375,11.9472656,0.2207031c0.1660156,0.0039063,0.3339844-0.015625,0.4990234,0
			c1.5615234,0.1445313,2.0263672-0.6982422,1.9570313-2.1005859c-0.0488281-0.9970703-0.0615234-2.0029297,0.0058594-2.9980469
			c0.0986328-1.4746094-0.5039063-2.2294922-2.0019531-2.0185547c-2.5869141,0.3632813-3.0205078-0.9648438-2.9609375-3.2099609
			c0.1230469-4.6601563,0.1308594-9.3330078-0.0556641-13.9902344c-0.21875-5.4892578-3.7617188-8.6621094-9.2089844-8.9277344
			C115.7392578,302.7001953,112.8359375,304.1914063,109.4589844,305.9160156z M352.6132813,316.7001953
			c-0.0029297,0-0.0048828,0-0.0078125,0c0-3.4980469-0.0166016-6.9941406,0.0078125-10.4921875
			c0.0097656-1.3017578-0.1904297-2.3007813-1.8408203-2.2832031c-3.8300781,0.0419922-7.6611328,0.0136719-11.4912109,0.0585938
			c-0.4541016,0.0058594-1.2685547,0.2402344-1.3017578,0.4580078c-0.2578125,1.7685547-0.5478516,3.5654297-0.4746094,5.3388672
			c0.0751953,1.8095703,1.6982422,1.2333984,2.7167969,1.2050781c1.8261719-0.0507813,2.2441406,0.8408203,2.2119141,2.4521484
			c-0.0693359,3.4960938,0.0488281,6.9970703-0.0683594,10.4912109c-0.0292969,0.8945313-0.4033203,2.0644531-1.0439453,2.5966797
			c-1.8779297,1.5595703-4.2324219,2.171875-6.5410156,1.359375c-1.9824219-0.7001953-1.7773438-2.9179688-2.125-4.5957031
			c-0.2324219-1.1181641-0.0449219-2.3222656-0.0458984-3.4882813c-0.0029297-4.4960938-0.0419922-8.9931641,0.0117188-13.4892578
			c0.0185547-1.6230469-0.4462891-2.4541016-2.2509766-2.40625c-3.4960938,0.09375-6.9941406,0.0107422-10.4921875,0.0556641
			c-0.6230469,0.0078125-1.7421875,0.1914063-1.7851563,0.4423828c-0.3085938,1.7578125-0.546875,3.5566406-0.5107422,5.3359375
			c0.0380859,1.8662109,1.6591797,1.28125,2.6679688,1.2431641c1.7861328-0.0673828,2.2841797,0.7089844,2.2607422,2.3759766
			c-0.0673828,4.6621094-0.1523438,9.3320313,0.0273438,13.9873047c0.2226563,5.7587891,3.2988281,9.6220703,10.1884766,9.5537109
			c2.0888672-0.0195313,4.2451172-0.5859375,6.2324219-1.2939453c1.6396484-0.5830078,3.0888672-1.8935547,4.2978516,0.4794922
			c4.4853516-0.0292969,8.9804688,0.0898438,13.4521484-0.171875c1.5576172-0.0908203,2.3935547-5.5390625,1.1259766-6.5605469
			c-0.2363281-0.1904297-0.5917969-0.2587891-0.9052734-0.3242188c-1.3994141-0.2929688-3.4189453-0.1103516-4.0439453-0.9609375
			c-0.7285156-0.9892578-0.2558594-2.875-0.2675781-4.3720703
			C352.6005859,321.3632813,352.6132813,319.0322266,352.6132813,316.7001953z M509.2646484,329.4404297
			c-3.8310547-1.9433594-7.1787109-3.3164063-11.4414063-0.3261719c-4.4326172,3.1083984-9.9765625,0.7548828-11.8574219-4.0917969
			c-0.8740234-2.2509766-0.4472656-2.9570313,2.0878906-2.9804688c6.1611328-0.0556641,12.3242188,0.0097656,18.4853516-0.03125
			c3.1083984-0.0205078,3.1337891-0.0771484,3.1035156-2.890625c-0.0664063-6.0849609-2.5664063-10.9619141-7.8417969-13.9863281
			c-5.6865234-3.2578125-11.7841797-3.3417969-17.515625-0.2265625c-6.3837891,3.4716797-9.1962891,9.1074219-8.8896484,16.4658203
			c0.2910156,6.9892578,3.1933594,11.8994141,9.4521484,14.2832031
			C491.7978516,338.3037109,503.3427734,338.4619141,509.2646484,329.4404297z M172.3417969,329.2412109
			c-2.5146484-0.7753906-4.9091797-1.9208984-7.3779297-2.1152344c-1.3515625-0.1054688-2.8037109,1.4472656-4.2529297,2.1630859
			c-4.4658203,2.2060547-9.9824219,0.4257813-11.890625-3.8007813c-0.9736328-2.1572266-0.2363281-3.4326172,2.140625-3.4501953
			c6.1572266-0.0458984,12.3144531,0.0136719,18.4716797-0.0273438c3.1630859-0.0205078,3.1992188-0.078125,3.0732422-3.390625
			c-0.4042969-10.6455078-9.6982422-18.171875-21.7695313-15.1640625
			c-7.6933594,1.9179688-12.6103516,7.7548828-12.8076172,17.2607422
			c-0.1474609,7.0488281,3.6445313,12.2324219,9.7558594,14.8378906
			C154.8076172,338.5927734,166.5244141,338.5908203,172.3417969,329.2412109z M309.6044922,308.9921875
			c-0.0107422,0-0.0205078,0-0.0302734,0c0-5.828125-0.0253906-11.65625,0.0166016-17.4853516
			c0.0117188-1.5654297-0.3242188-2.4892578-2.1845703-2.4394531c-3.6611328,0.0986328-7.3271484,0.0664063-10.9902344,0.0117188
			c-1.5205078-0.0224609-2.0947266,0.6503906-2.0166016,2.0957031c0.0449219,0.8300781,0.0800781,1.6738281-0.0117188,2.4960938
			c-0.2509766,2.2675781,0.4375,3.4941406,2.9931641,3.1757813c1.9296875-0.2421875,2.0371094,1.1123047,2.0332031,2.5771484
			c-0.0244141,8.9921875-0.0527344,17.984375,0.0214844,26.9765625c0.015625,1.9179688-0.5927734,2.8417969-2.5556641,2.578125
			c-2.0234375-0.2705078-2.6972656,0.6757813-2.4912109,2.5742188c0.0898438,0.8242188,0.046875,1.6650391,0.0195313,2.4970703
			c-0.0449219,1.4003906,0.4921875,2.1484375,2.0107422,2.1386719c5.4951172-0.0351563,10.9902344,0.0214844,16.4833984-0.0859375
			c0.5351563-0.0097656,1.3378906-0.8417969,1.5097656-1.4375c0.2675781-0.9257813,0.0654297-1.9794922,0.1220703-2.9765625
			c0.0957031-1.6728516-0.0683594-3.0527344-2.3310547-2.7109375c-2.4082031,0.3642578-2.6494141-1.0830078-2.625-3.0009766
			C309.6503906,320.3164063,309.6044922,314.6542969,309.6044922,308.9921875z M529.6455078,310.8564453
			c0-1.6953125-0.0507813-2.9951172,0.0136719-4.2890625c0.0917969-1.9003906-0.7363281-2.6923828-2.6494141-2.6523438
			c-3.4980469,0.0722656-7-0.0136719-10.4970703,0.0517578c-0.5800781,0.0117188-1.6162109,0.4150391-1.6474609,0.7177734
			c-0.1826172,1.8085938-0.3496094,3.6816406-0.0185547,5.4375c0.0888672,0.4707031,1.9570313,0.9082031,2.9726563,0.8388672
			c2.3027344-0.1572266,2.8105469,0.8759766,2.7460938,2.9335938c-0.1191406,3.828125-0.0097656,7.6640625-0.0410156,11.4970703
			c-0.0253906,3.296875-0.0488281,3.4482422-3.484375,3.5332031c-1.9541016,0.0478516-2.7666016,0.6269531-2.5214844,2.5839844
			c0.0820313,0.6572266,0.0849609,1.3417969,0.0009766,1.9980469c-0.2939453,2.2900391,0.8740234,2.7519531,2.9052734,2.7128906
			c5.4970703-0.1015625,10.9980469-0.0527344,16.4980469-0.0273438c3.9628906,0.0195313,3.5957031,0.1777344,3.6347656-3.9345703
			c0.0039063-0.5009766-0.0273438-1.0019531,0-1.5c0.0683594-1.2490234-0.4921875-1.8378906-1.7568359-1.7753906
			c-0.6650391,0.0332031-1.3349609,0.0263672-1.9990234-0.0039063c-3.1523438-0.1416016-3.1523438-0.1474609-3.1464844-3.4619141
			c0-0.5-0.0371094-1.0039063,0.0078125-1.4990234c0.5722656-6.1162109,3.9121094-10.1796875,8.9882813-10.9589844
			c3.7109375-0.5693359,3.7109375-0.5693359,3.7226563-4.4003906c0.0019531-0.5,0.0097656-1,0-1.4990234
			c-0.0878906-4.0898438-0.890625-4.6162109-4.7578125-3.6699219
			C534.5810547,304.4765625,532.3916016,307.625,529.6455078,310.8564453z M83.5527344,291.0234375
			c-2.6035156,1.8710938-4.6621094,3.5439453-6.9091797,4.9072266c-2.1591797,1.3115234-3.5390625,2.8037109-3.3623047,5.5419922
			c0.0488281,0.7431641-0.8291016,2.1689453-1.3935547,2.2294922c-3.5458984,0.375-2.2021484,3.015625-2.5,4.9052734
			c-0.3486328,2.2148438,1.1425781,2.2333984,2.6875,2.5791016c0.5634766,0.1259766,1.2089844,1.4121094,1.2294922,2.1845703
			c0.1269531,4.8144531,0.3789063,9.6533203,0.0234375,14.4423828c-0.3876953,5.2207031,2.8291016,9.1777344,9.1337891,9.0742188
			c6.1308594-0.1015625,7.2265625-1.1621094,7.0625-7.2412109c-0.0117188-0.4462891-0.2558594-0.8867188-0.3896484-1.3193359
			c-5.0498047,0.953125-5.5146484,0.6396484-5.5732422-3.9160156c-0.0449219-3.4873047,0.0693359-6.9785156-0.0390625-10.4619141
			c-0.0625-2.0019531,0.3759766-2.9775391,2.6992188-2.9951172c3.3583984-0.0263672,3.3574219-0.2226563,3.3320313-3.6337891
			c-0.0214844-3.0117188-0.0117188-3.1699219-3.1289063-3.3671875c-2.1533203-0.1367188-2.9365234-1.015625-2.890625-3.0751953
			C83.6054688,297.7470703,83.5527344,294.6123047,83.5527344,291.0234375z"/>
		<path fill-rule="evenodd" clip-rule="evenodd" fill="#288CBD" d="M155.5224609,383.0302734
			c-0.0341797-8.8320313-0.1035156-17.6660156-0.0859375-26.4960938c0.0078125-4.3691406,1.1474609-4.875,5.5146484-4.328125
			c4.5576172,0.5722656,9.3583984,1.1816406,13.7880859,0.3535156c7.46875-1.3984375,12.0683594-7.59375,12.6787109-15.7773438
			c0.5048828-6.7714844,0.921875-13.5673828,0.9296875-20.3535156
			c0.0693359-61.6738281,0.0498047-123.3476563,0.0273438-185.0214844
			c-0.0029297-6.2578125,0.9580078-5.5761719-5.5136719-5.6074219c-6.3339844-0.0302734-12.6689453-0.0478516-19.0019531,0.0195313
			c-1.65625,0.0175781-2.4208984-0.4345703-2.4091797-2.2246094c0.0537109-8.5009766,0.0615234-17.0029297-0.0068359-25.5029297
			c-0.0146484-1.8046875,0.7246094-2.3564453,2.3730469-2.2148438c0.8271484,0.0712891,1.6660156,0.0107422,2.4990234,0.0107422
			c29.0039063,0,58.0068359,0,87.0107422,0c0.9990234,0,2.0019531,0.046875,2.9990234-0.0039063
			c1.4453125-0.0732422,2.1005859,0.4882813,2.09375,2.0107422c-0.0371094,8.3349609-0.0507813,16.6689453,0.0078125,25.0029297
			c0.015625,2.1943359-0.9931641,2.9306641-3.0429688,2.9121094c-5.5009766-0.0488281-11.0019531-0.0439453-16.5019531-0.0078125
			c-4.4228516,0.0302734-4.4990234-0.9013672-4.4833984,4.6474609c0.0019531,0.6669922,0,1.3330078,0,2
			c0,51.0058594-0.0058594,102.0117188,0.0039063,153.0175781c0.0029297,14.0009766,0.2011719,28.0039063,0.0273438,42.0019531
			c-0.0957031,7.7548828-0.953125,15.4599609-2.84375,23.0458984
			c-4.7275391,18.9667969-17.0634766,30.0976563-35.7021484,34.3808594
			c-9.4375,2.1699219-19.0908203,1.7285156-28.6621094,0.2617188c-3.2626953-0.4980469-6.5361328-0.9238281-9.8046875-1.3847656
			C156.7861328,383.5263672,156.1542969,383.2763672,155.5224609,383.0302734z"/>
		<path fill-rule="evenodd" clip-rule="evenodd" fill="#288CBD" d="M244.9248047,211.5019531
			c0.1865234-7.8505859,1.0292969-15.4765625,3.359375-23.0117188
			c3.9970703-12.9228516,11.9882813-22.7626953,22.8417969-30.3837891
			c10.9794922-7.7099609,23.3105469-11.2138672,36.7490234-11.2900391
			c9.3339844-0.0527344,18.4658203,0.7519531,27.2119141,4.1777344
			c20.4189453,7.9970703,33.609375,22.5419922,38.1533203,44.0488281
			c1.9423828,9.1914063,1.8759766,18.6738281,0.5390625,28.1816406
			c-1.5576172,11.0849609-5.2958984,21.046875-12.3134766,29.6962891
			c-8.8242188,10.875-20.1347656,17.7724609-33.7724609,21.1992188c-8.1904297,2.0595703-16.4501953,2.3369141-24.6816406,1.7587891
			c-11.6777344-0.8212891-22.5527344-4.5400391-32.2275391-11.3466797
			c-13.2050781-9.2900391-21.4658203-21.8222656-24.2568359-37.7539063
			C245.6455078,221.7470703,245.4394531,216.5976563,244.9248047,211.5019531z M285.5869141,211.8261719
			c-0.7617188,6.2568359,0.4824219,12.7324219,2.9814453,18.9326172
			c3.7480469,9.2958984,10.6601563,14.9589844,20.7636719,15.0136719c9.65625,0.0507813,17.0507813-4.5761719,21.2236328-13.6435547
			c1.8828125-4.0898438,2.5429688-8.4238281,3.2441406-12.859375c1.4580078-9.2138672,0.7333984-18.1318359-2.4052734-26.7939453
			c-2.2734375-6.2753906-6.3154297-11.3603516-12.7685547-13.8095703
			c-11.8720703-4.5068359-25.7158203-0.5839844-30.4013672,13.6894531
			C286.1777344,198.5908203,285.1611328,204.8349609,285.5869141,211.8261719z"/>
		<path fill-rule="evenodd" clip-rule="evenodd" fill="#288CBD" d="M471.25,219.8144531
			c-13.4970703,0-26.9931641,0-40.4912109,0.0009766c-1,0-2.0048828,0.0693359-2.9980469-0.0107422
			c-1.8125-0.1455078-2.3623047,0.7539063-2.1787109,2.3955078c1.2080078,10.7851563,5.3349609,19.7207031,15.6708984,24.7089844
			c4.4853516,2.1650391,9.2558594,3.5966797,14.1787109,3.9033203c6.2294922,0.3896484,12.1533203-1.4179688,17.3701172-4.7294922
			c3.8867188-2.4667969,7.3349609-5.6396484,10.8886719-8.6054688c1.0898438-0.9111328,1.7685547-1.3310547,3.3964844-0.7724609
			c8.5292969,2.9179688,17.1699219,5.5146484,25.7480469,8.2929688c2.7060547,0.8769531,2.8886719,1.4052734,1.2734375,3.7177734
			c-8.3496094,11.9580078-19.5644531,20.0332031-33.5253906,24.1542969
			c-8.7763672,2.5898438-17.7861328,3.3544922-26.9570313,3.2041016
			c-10.8476563-0.1767578-21.3632813-1.7138672-31.3476563-6.0224609
			c-17.6992188-7.6376953-29.21875-20.7412109-33.5957031-39.5712891c-1.40625-6.0488281-2.0390625-12.4296875-1.9521484-18.6435547
			c0.2392578-17.0917969,5.6845703-32.4521484,17.6220703-44.9472656
			c9.953125-10.4160156,21.9707031-17.0800781,36.5507813-19.1259766c9.4824219-1.3320313,18.9072266-1.5,28.1542969,0.390625
			c9.9570313,2.0351563,18.8730469,6.7148438,26.6445313,13.4638672
			c11.6835938,10.1435547,17.7148438,23.1894531,19.8925781,38.2216797c0.828125,5.7089844,1.3046875,11.46875,1.9648438,17.2021484
			c0.25,2.1699219-0.6425781,2.8300781-2.8183594,2.8173828C500.2451172,219.7734375,485.7470703,219.8144531,471.25,219.8144531z
			 M451.6083984,197.9033203c0,0.0019531,0,0.0039063,0,0.0068359c7.1513672,0,14.3027344,0.0097656,21.4550781-0.0039063
			c5.1464844-0.0097656,5.3339844-0.2939453,3.7490234-5.3789063c-0.0976563-0.3134766-0.1240234-0.6513672-0.2363281-0.9589844
			c-3.2001953-8.7861328-8.2304688-15.7636719-17.9716797-18.0009766
			c-4.7363281-1.0878906-9.5136719-1.0957031-14.2304688,0.0449219c-2.0517578,0.4970703-4.1796875,1.1162109-5.9658203,2.1904297
			c-7.1943359,4.3232422-10.1152344,11.4228516-11.7978516,19.171875c-0.5097656,2.3466797,0.0585938,2.8964844,2.5439453,2.9121094
			C436.6386719,197.9326172,444.1240234,197.9033203,451.6083984,197.9033203z"/>
		<path fill-rule="evenodd" clip-rule="evenodd" fill="#288CBD" d="M155.5224609,383.0302734
			c0.6318359,0.2460938,1.2636719,0.4960938,1.8945313,0.7421875c-0.1640625,0.3691406-0.5761719,0.9042969-0.4570313,1.0820313
			c5.8330078,8.6191406,12.0224609,17.015625,17.4921875,25.8574219c5.0146484,8.1035156,9.59375,16.5546875,11.5039063,26.0722656
			c3.2373047,16.140625-4.7041016,33.1132813-21.6376953,37.7675781c-12.8125,3.5234375-26.0771484-0.5546875-33.9628906-11.3320313
			c-5.8730469-8.0273438-7.2626953-17.2734375-5.3945313-26.9570313c1.4580078-7.5585938,5.3466797-14.1679688,8.8583984-20.8632813
			c4.453125-8.4902344,9.5947266-16.5703125,15.6640625-24.0390625
			C151.6435547,388.7041016,153.5175781,385.8134766,155.5224609,383.0302734z"/>
		<path fill-rule="evenodd" clip-rule="evenodd" fill="#FE5C25" d="M389.5224609,325.1337891
			c0-2.8300781,0.0751953-5.6621094-0.0195313-8.4882813c-0.1132813-3.3886719-1.6367188-4.8125-5.0117188-4.5800781
			c-1.4453125,0.0996094-2.8984375,0.5537109-4.2792969,1.0429688c-1.8730469,0.6640625-2.9384766,1.8310547-2.6494141,4.1191406
			c0.2685547,2.1308594,0.0429688,4.3203125,0.0625,6.4853516c0.0136719,1.4941406-0.4550781,3.3808594,0.2744141,4.3652344
			c0.6298828,0.8486328,2.6894531,0.5419922,4.0283203,1.0058594c0.5839844,0.2021484,1.1982422,0.9902344,1.3466797,1.6191406
			c0.2226563,0.9443359,0.109375,1.9892578,0.0273438,2.9804688c-0.1269531,1.4931641-0.8222656,2.4970703-2.4941406,2.4951172
			c-5.4921875-0.0019531-10.9863281-0.015625-16.4785156,0.0117188c-1.671875,0.0078125-2.3457031-0.9267578-2.6054688-2.4072266
			c-0.609375-3.4707031,0.015625-4.5917969,3.265625-4.7353516c2.0566406-0.0917969,2.4921875-0.9306641,2.4570313-2.7412109
			c-0.0859375-4.1601563-0.1308594-8.3261719,0.0136719-12.4814453c0.078125-2.1953125-0.7109375-2.8164063-2.8447266-2.8681641
			c-2.9501953-0.0722656-2.9462891-0.2607422-2.9130859-3.1123047c0.0351563-3.2763672,0.3828125-3.8193359,3.0546875-3.8925781
			c3.4931641-0.0957031,6.9902344-0.0625,10.484375,0.0058594c0.7441406,0.0146484,1.9375,0.2167969,2.1425781,0.6777344
			c0.8046875,1.8164063,1.7070313,0.8115234,2.7558594,0.4101563c4.1992188-1.5986328,8.4453125-2.9052734,12.9453125-1.1025391
			c0.1503906,0.0605469,0.3398438,0.0185547,0.4921875,0.0751953c3.1660156,1.1640625,7.890625,1.046875,11.3847656,0.2402344
			c3.3193359-0.7666016,6.5839844-1.8017578,10.2050781-0.6455078c4.921875,1.5712891,7.0371094,3.4775391,7.2988281,8.5488281
			c0.2421875,4.6494141,0.21875,9.3193359,0.1230469,13.9765625c-0.0449219,2.1318359,0.6015625,2.9892578,2.8076172,2.9140625
			c0.9560547-0.0322266,2.6894531,0.5712891,2.7705078,1.0888672c0.2724609,1.7480469,0.0117188,3.5908203-0.1796875,5.3818359
			c-0.0273438,0.2558594-0.7929688,0.6142578-1.21875,0.6181641c-4.1621094,0.0488281-8.3222656,0.015625-12.484375,0.0410156
			c-1.6875,0.0097656-1.7773438-1.0908203-1.7744141-2.3408203c0.0097656-4.328125,0.0009766-8.6552734-0.0029297-12.9833984
			c-0.0009766-1.1640625,0.0576172-2.3339844-0.0263672-3.4941406c-0.3251953-4.4521484-2.6259766-6.1601563-7.0107422-5.2558594
			c-4.2929688,0.8847656-5.1035156,1.8769531-5.125,6.3007813c-0.0117188,2.1630859-0.015625,4.3271484,0,6.4902344
			c0.0253906,3.4951172,0.0234375,3.578125,3.5068359,4.0458984c1.2802734,0.171875,1.7451172,0.65625,1.6982422,1.8574219
			c-0.0332031,0.8300781-0.0703125,1.6699219,0.0039063,2.4951172c0.1914063,2.1337891-0.7265625,2.9746094-2.8710938,2.9101563
			c-3.4921875-0.1035156-6.9912109-0.0644531-10.484375-0.0136719c-1.8125,0.0253906-2.7792969-0.5419922-2.6943359-2.5732422
			c0.1191406-2.8251953,0.0302734-5.6572266,0.0302734-8.4873047
			C389.5302734,325.1337891,389.5263672,325.1337891,389.5224609,325.1337891z"/>
		<path fill-rule="evenodd" clip-rule="evenodd" fill="#FE5C25" d="M262.0351563,288.71875
			c5.2792969,0.3984375,10.5859375,0.578125,15.8291016,1.2539063c5.6796875,0.7324219,9.7167969,3.8769531,11.6416016,9.4267578
			c2.1376953,6.1669922,0.2675781,11.4287109-3.9677734,15.9355469c-2.6376953,2.8056641-6.3681641,3.3505859-10.0117188,3.640625
			c-2.6513672,0.2109375-5.3310547,0.1542969-7.9960938,0.1054688c-1.5058594-0.0263672-2.1123047,0.5878906-2.0400391,2.0517578
			c0.0488281,0.9970703,0.0039063,2,0.0048828,3c0.0058594,4.4648438,0.0058594,4.4648438,4.2949219,4.7724609
			c2.4501953,0.1767578,2.6679688,0.4433594,2.5214844,3.0957031c-0.1875,3.4160156-0.8085938,4.1308594-4.0917969,4.1640625
			c-5.8339844,0.0605469-11.6699219,0.0605469-17.5029297,0c-3.1738281-0.0332031-3.2333984-0.1132813-3.2919922-2.9453125
			c-0.0273438-1.2890625-0.1357422-2.8291016,0.5-3.7861328c0.4121094-0.6191406,2.0986328-0.4433594,3.2207031-0.5283203
			c1.6962891-0.1279297,2.2529297-1.1171875,2.2509766-2.6679688c-0.0107422-9.0009766-0.0400391-18.0029297,0.0214844-27.0039063
			c0.0126953-1.8291016-0.8408203-2.1435547-2.421875-2.2539063c-3.7294922-0.2597656-3.7236328-0.34375-3.6005859-3.9150391
			c0.1259766-3.6259766,0.3671875-3.9003906,4.1103516-3.9589844c3.5-0.0546875,7.0009766-0.0117188,10.5019531-0.0117188
			C262.0175781,288.96875,262.0263672,288.84375,262.0351563,288.71875z M265.4931641,304.0351563
			c0,1.4912109,0.1162109,2.9941406-0.0263672,4.4716797c-0.21875,2.2646484,0.8476563,2.9199219,2.8867188,2.6865234
			c0.9853516-0.1132813,1.9892578-0.0693359,2.9726563-0.1904297c3.6367188-0.4482422,5.5263672-2.3574219,6.0517578-6.0488281
			c0.3955078-2.7724609-1.7558594-6.8466797-4.5214844-7.5117188c-2.1591797-0.5195313-4.5332031-0.1484375-6.8115234-0.1738281
			c-0.1845703,1.5917969-0.3896484,3.1826172-0.5419922,4.7792969
			C265.4404297,302.7041016,265.4921875,303.3720703,265.4931641,304.0351563z"/>
		<path fill-rule="evenodd" clip-rule="evenodd" fill="#FE5C25" d="M446.5253906,306.3154297
			c3.8261719-3.0703125,7.8652344-4.1103516,12.0449219-3.1845703c6.1806641,1.3701172,9.5185547,6.0048828,10.7021484,11.8066406
			c0.8867188,4.34375,0.7773438,8.9482422-0.8642578,13.2607422c-2.8271484,7.4248047-11.2958984,10.8476563-18.4101563,7.3691406
			c-1.7744141-0.8671875-3.2324219-2.4824219-4.8994141,0.1494141c-0.2949219,0.4658203-1.5410156,0.4345703-2.3515625,0.4443359
			c-3.4960938,0.046875-6.9960938-0.0351563-10.4902344,0.046875c-1.921875,0.0429688-2.7880859-0.6640625-2.5556641-2.6367188
			c0.0966797-0.8212891,0.0654297-1.6660156,0.0048828-2.4951172c-0.1074219-1.4775391,0.5449219-1.9765625,2.0058594-2.1240234
			c3.8046875-0.3847656,3.8125-0.4609375,3.8183594-4.1826172c0.0097656-8.3261719,0.0292969-16.6533203-0.0097656-24.9794922
			c-0.015625-3.1132813-0.0761719-3.4335938-3.2695313-3.5205078c-3.0361328-0.0820313-2.5429688-1.9355469-2.5224609-3.6982422
			c0.0341797-3.0507813,0.2666016-3.3876953,2.9003906-3.4541016c3.6611328-0.0908203,7.3271484,0.0097656,10.9912109-0.0351563
			c1.4550781-0.0175781,2.1259766,0.546875,2.1005859,2.0371094c-0.0419922,2.4970703-0.1054688,5,0.0234375,7.4921875
			C445.8710938,301.0478516,446.2265625,303.4707031,446.5253906,306.3154297z M458.78125,320.3476563
			c-0.0986328-1.5498047-0.0644531-2.7255859-0.2666016-3.8583984c-0.5488281-3.0917969-2.7880859-5.2080078-5.578125-5.4101563
			c-2.5527344-0.1845703-5.578125,1.9033203-6.2929688,4.65625c-0.78125,3.0136719-0.9228516,6.0996094,0.2324219,9.0888672
			c0.9648438,2.4951172,3.2333984,4.1220703,5.6191406,4.1416016c2.4697266,0.0195313,5.09375-1.9257813,5.8203125-4.5898438
			C458.7001953,322.9648438,458.6669922,321.4394531,458.78125,320.3476563z"/>
		<path fill-rule="evenodd" clip-rule="evenodd" fill="#FE5C25" d="M109.4589844,305.9160156
			c3.3769531-1.7246094,6.2802734-3.2158203,9.7958984-3.0449219c5.4472656,0.265625,8.9902344,3.4384766,9.2089844,8.9277344
			c0.1865234,4.6572266,0.1787109,9.3300781,0.0556641,13.9902344c-0.0595703,2.2451172,0.3740234,3.5732422,2.9609375,3.2099609
			c1.4980469-0.2109375,2.1005859,0.5439453,2.0019531,2.0185547c-0.0673828,0.9951172-0.0546875,2.0009766-0.0058594,2.9980469
			c0.0693359,1.4023438-0.3955078,2.2451172-1.9570313,2.1005859c-0.1650391-0.015625-0.3330078,0.0039063-0.4990234,0
			c-3.9824219-0.0722656-7.9648438-0.1464844-11.9472656-0.2207031c-0.2109375-3.9316406-0.4785156-7.8613281-0.6142578-11.796875
			c-0.0976563-2.8291016,0.0449219-5.6660156-0.0371094-8.4960938c-0.0810547-2.7949219-1.5166016-4.5048828-3.5732422-4.4863281
			c-3.0683594,0.0273438-5.3242188,1.8183594-5.3710938,4.421875c-0.0673828,3.6650391,0.0195313,7.3320313-0.0341797,10.9960938
			c-0.0224609,1.5166016,0.1894531,2.3623047,2.0888672,2.5615234c2.0556641,0.2167969,2.40625,1.7265625,2.0869141,5
			c-0.1855469,1.9033203-1.3486328,2.0146484-2.7519531,2.0166016c-4.8320313,0-9.6669922,0.0917969-14.4921875-0.078125
			c-0.9335938-0.0332031-2.4238281-0.9433594-2.6171875-1.7109375c-0.3837891-1.5205078-0.2060547-3.2597656,0.1289063-4.8251953
			c0.0751953-0.3496094,1.7558594-0.4882813,2.6982422-0.4892578c1.46875-0.0019531,2.0693359-0.5820313,2.0644531-2.0654297
			c-0.0302734-9.3300781-0.0439453-18.6601563,0.0087891-27.9902344c0.0107422-1.8662109-0.96875-2.0458984-2.4863281-2.1816406
			c-2.8271484-0.2539063-2.8173828-0.3652344-2.7148438-3.8242188c0.0976563-3.3183594,0.3662109-3.7421875,3.1630859-3.8291016
			c3.3291016-0.1025391,6.6689453,0.0820313,9.9951172-0.0634766c2.1113281-0.0917969,2.9619141,0.5175781,2.8876953,2.7617188
			C109.3554688,296.3027344,109.4589844,300.796875,109.4589844,305.9160156z"/>
		<path fill-rule="evenodd" clip-rule="evenodd" fill="#FE5C25" d="M352.6132813,316.7001953
			c0,2.3320313-0.0126953,4.6630859,0.0048828,6.9951172c0.0117188,1.4970703-0.4609375,3.3828125,0.2675781,4.3720703
			c0.625,0.8505859,2.6445313,0.6679688,4.0439453,0.9609375c0.3134766,0.0654297,0.6689453,0.1337891,0.9052734,0.3242188
			c1.2675781,1.0214844,0.4316406,6.4697266-1.1259766,6.5605469c-4.4716797,0.2617188-8.9667969,0.1425781-13.4521484,0.171875
			c-1.2089844-2.3730469-2.6582031-1.0625-4.2978516-0.4794922c-1.9873047,0.7080078-4.1435547,1.2744141-6.2324219,1.2939453
			c-6.8896484,0.0683594-9.9658203-3.7949219-10.1884766-9.5537109c-0.1796875-4.6552734-0.0947266-9.3251953-0.0273438-13.9873047
			c0.0234375-1.6669922-0.4746094-2.4433594-2.2607422-2.3759766c-1.0087891,0.0380859-2.6298828,0.6230469-2.6679688-1.2431641
			c-0.0361328-1.7792969,0.2021484-3.578125,0.5107422-5.3359375c0.0429688-0.2509766,1.1621094-0.4345703,1.7851563-0.4423828
			c3.4980469-0.0449219,6.9960938,0.0380859,10.4921875-0.0556641c1.8046875-0.0478516,2.2695313,0.7832031,2.2509766,2.40625
			c-0.0537109,4.4960938-0.0146484,8.9931641-0.0117188,13.4892578c0.0009766,1.1660156-0.1865234,2.3701172,0.0458984,3.4882813
			c0.3476563,1.6777344,0.1425781,3.8955078,2.125,4.5957031c2.3085938,0.8125,4.6630859,0.2001953,6.5410156-1.359375
			c0.640625-0.5322266,1.0146484-1.7021484,1.0439453-2.5966797c0.1171875-3.4941406-0.0009766-6.9951172,0.0683594-10.4912109
			c0.0322266-1.6113281-0.3857422-2.5029297-2.2119141-2.4521484c-1.0185547,0.0283203-2.6416016,0.6044922-2.7167969-1.2050781
			c-0.0732422-1.7734375,0.2167969-3.5703125,0.4746094-5.3388672c0.0332031-0.2177734,0.8476563-0.4521484,1.3017578-0.4580078
			c3.8300781-0.0449219,7.6611328-0.0166016,11.4912109-0.0585938c1.6503906-0.0175781,1.8505859,0.9814453,1.8408203,2.2832031
			c-0.0244141,3.4980469-0.0078125,6.9941406-0.0078125,10.4921875
			C352.6083984,316.7001953,352.6103516,316.7001953,352.6132813,316.7001953z"/>
		<path fill-rule="evenodd" clip-rule="evenodd" fill="#FE5C25" d="M509.2646484,329.4404297
			c-5.921875,9.0214844-17.4667969,8.8632813-24.4169922,6.2158203c-6.2587891-2.3837891-9.1611328-7.2939453-9.4521484-14.2832031
			c-0.3066406-7.3583984,2.5058594-12.9941406,8.8896484-16.4658203c5.7314453-3.1152344,11.8291016-3.03125,17.515625,0.2265625
			c5.2753906,3.0244141,7.7753906,7.9013672,7.8417969,13.9863281c0.0302734,2.8134766,0.0048828,2.8701172-3.1035156,2.890625
			c-6.1611328,0.0410156-12.3242188-0.0244141-18.4853516,0.03125c-2.5351563,0.0234375-2.9619141,0.7294922-2.0878906,2.9804688
			c1.8808594,4.8466797,7.4248047,7.2001953,11.8574219,4.0917969
			C502.0859375,326.1240234,505.4335938,327.4970703,509.2646484,329.4404297z M492.3701172,316.1884766
			c0.0009766-0.0195313,0.0009766-0.0390625,0.0009766-0.0585938c1.9775391,0,3.9599609,0.0673828,5.9306641-0.0605469
			c0.3691406-0.0234375,1.0761719-1.0429688,0.96875-1.2402344c-1.1796875-2.1445313-2.2998047-4.3730469-5.1269531-4.8486328
			c-3.4863281-0.5878906-5.8486328,0.1796875-7.3300781,2.6835938c-0.4824219,0.8154297-0.6757813,1.8027344-1,2.7109375
			c1.03125,0.2714844,2.0488281,0.65625,3.0966797,0.7822266
			C490.0478516,316.2929688,491.2158203,316.1884766,492.3701172,316.1884766z"/>
		<path fill-rule="evenodd" clip-rule="evenodd" fill="#FE5C25" d="M172.3417969,329.2412109
			c-5.8173828,9.3496094-17.5341797,9.3515625-24.6572266,6.3134766c-6.1113281-2.6054688-9.9033203-7.7890625-9.7558594-14.8378906
			c0.1972656-9.5058594,5.1142578-15.3427734,12.8076172-17.2607422
			c12.0712891-3.0078125,21.3652344,4.5185547,21.7695313,15.1640625c0.1259766,3.3125,0.0898438,3.3701172-3.0732422,3.390625
			c-6.1572266,0.0410156-12.3144531-0.0185547-18.4716797,0.0273438c-2.3769531,0.0175781-3.1142578,1.2929688-2.140625,3.4501953
			c1.9082031,4.2265625,7.4248047,6.0068359,11.890625,3.8007813c1.4492188-0.7158203,2.9013672-2.2685547,4.2529297-2.1630859
			C167.4326172,327.3203125,169.8271484,328.4658203,172.3417969,329.2412109z M148.4140625,315.9316406
			c4.984375,0,9.3388672,0,13.796875,0c-2.1279297-5.2226563-3.2802734-6.0292969-7.3642578-6.0712891
			C150.9023438,309.8193359,149.5097656,312.2988281,148.4140625,315.9316406z"/>
		<path fill-rule="evenodd" clip-rule="evenodd" fill="#FE5C25" d="M309.6044922,308.9921875
			c0,5.6621094,0.0458984,11.3242188-0.0263672,16.984375c-0.0244141,1.9179688,0.2167969,3.3652344,2.625,3.0009766
			c2.2626953-0.3417969,2.4267578,1.0380859,2.3310547,2.7109375c-0.0566406,0.9970703,0.1455078,2.0507813-0.1220703,2.9765625
			c-0.171875,0.5957031-0.9746094,1.4277344-1.5097656,1.4375c-5.4931641,0.1074219-10.9882813,0.0507813-16.4833984,0.0859375
			c-1.5185547,0.0097656-2.0556641-0.7382813-2.0107422-2.1386719c0.0273438-0.8320313,0.0703125-1.6728516-0.0195313-2.4970703
			c-0.2060547-1.8984375,0.4677734-2.8447266,2.4912109-2.5742188c1.9628906,0.2636719,2.5712891-0.6601563,2.5556641-2.578125
			c-0.0742188-8.9921875-0.0458984-17.984375-0.0214844-26.9765625c0.0039063-1.4648438-0.1035156-2.8193359-2.0332031-2.5771484
			c-2.5556641,0.3183594-3.2441406-0.9082031-2.9931641-3.1757813c0.0917969-0.8222656,0.0566406-1.6660156,0.0117188-2.4960938
			c-0.078125-1.4453125,0.4960938-2.1181641,2.0166016-2.0957031c3.6630859,0.0546875,7.3291016,0.0869141,10.9902344-0.0117188
			c1.8603516-0.0498047,2.1962891,0.8740234,2.1845703,2.4394531c-0.0419922,5.8291016-0.0166016,11.6572266-0.0166016,17.4853516
			C309.5839844,308.9921875,309.59375,308.9921875,309.6044922,308.9921875z"/>
		<path fill-rule="evenodd" clip-rule="evenodd" fill="#FE5C25" d="M529.6455078,310.8564453
			c2.7460938-3.2314453,4.9355469-6.3798828,8.9707031-7.3671875c3.8671875-0.9462891,4.6699219-0.4199219,4.7578125,3.6699219
			c0.0097656,0.4990234,0.0019531,0.9990234,0,1.4990234c-0.0117188,3.8310547-0.0117188,3.8310547-3.7226563,4.4003906
			c-5.0761719,0.7792969-8.4160156,4.8427734-8.9882813,10.9589844c-0.0449219,0.4951172-0.0078125,0.9990234-0.0078125,1.4990234
			c-0.0058594,3.3144531-0.0058594,3.3203125,3.1464844,3.4619141c0.6640625,0.0302734,1.3339844,0.0371094,1.9990234,0.0039063
			c1.2646484-0.0625,1.8251953,0.5263672,1.7568359,1.7753906c-0.0273438,0.4980469,0.0039063,0.9990234,0,1.5
			c-0.0390625,4.1123047,0.328125,3.9541016-3.6347656,3.9345703c-5.5-0.0253906-11.0009766-0.0742188-16.4980469,0.0273438
			c-2.03125,0.0390625-3.1992188-0.4228516-2.9052734-2.7128906c0.0839844-0.65625,0.0810547-1.3408203-0.0009766-1.9980469
			c-0.2451172-1.9570313,0.5673828-2.5361328,2.5214844-2.5839844c3.4355469-0.0849609,3.4589844-0.2363281,3.484375-3.5332031
			c0.03125-3.8330078-0.078125-7.6689453,0.0410156-11.4970703c0.0644531-2.0576172-0.4433594-3.0908203-2.7460938-2.9335938
			c-1.015625,0.0693359-2.8837891-0.3681641-2.9726563-0.8388672c-0.3310547-1.7558594-0.1640625-3.6289063,0.0185547-5.4375
			c0.03125-0.3027344,1.0673828-0.7060547,1.6474609-0.7177734c3.4970703-0.0654297,6.9990234,0.0205078,10.4970703-0.0517578
			c1.9130859-0.0400391,2.7412109,0.7519531,2.6494141,2.6523438
			C529.5947266,307.8613281,529.6455078,309.1611328,529.6455078,310.8564453z"/>
		<path fill-rule="evenodd" clip-rule="evenodd" fill="#FE5C25" d="M83.5527344,291.0234375
			c0,3.5888672,0.0527344,6.7236328-0.0185547,9.8544922c-0.0458984,2.0595703,0.7373047,2.9384766,2.890625,3.0751953
			c3.1171875,0.1972656,3.1074219,0.3554688,3.1289063,3.3671875c0.0253906,3.4111328,0.0263672,3.6074219-3.3320313,3.6337891
			c-2.3232422,0.0175781-2.7617188,0.9931641-2.6992188,2.9951172c0.1083984,3.4833984-0.0058594,6.9746094,0.0390625,10.4619141
			c0.0585938,4.5556641,0.5234375,4.8691406,5.5732422,3.9160156c0.1337891,0.4326172,0.3779297,0.8730469,0.3896484,1.3193359
			c0.1640625,6.0791016-0.9316406,7.1396484-7.0625,7.2412109c-6.3046875,0.1035156-9.5214844-3.8535156-9.1337891-9.0742188
			c0.3554688-4.7890625,0.1035156-9.6279297-0.0234375-14.4423828c-0.0205078-0.7724609-0.6660156-2.0585938-1.2294922-2.1845703
			c-1.5449219-0.3457031-3.0361328-0.3642578-2.6875-2.5791016c0.2978516-1.8896484-1.0458984-4.5302734,2.5-4.9052734
			c0.5644531-0.0605469,1.4423828-1.4863281,1.3935547-2.2294922c-0.1767578-2.7382813,1.203125-4.2304688,3.3623047-5.5419922
			C78.890625,294.5673828,80.9492188,292.8945313,83.5527344,291.0234375z"/>
		<path fill-rule="evenodd" clip-rule="evenodd" fill="none" d="M285.5869141,211.8261719
			c-0.4257813-6.9912109,0.5908203-13.2353516,2.6376953-19.4707031
			c4.6855469-14.2734375,18.5292969-18.1962891,30.4013672-13.6894531
			c6.453125,2.4492188,10.4951172,7.5341797,12.7685547,13.8095703c3.1386719,8.6621094,3.8632813,17.5800781,2.4052734,26.7939453
			c-0.7011719,4.4355469-1.3613281,8.7695313-3.2441406,12.859375
			c-4.1728516,9.0673828-11.5673828,13.6943359-21.2236328,13.6435547
			c-10.1035156-0.0546875-17.015625-5.7177734-20.7636719-15.0136719
			C286.0693359,224.5585938,284.8251953,218.0830078,285.5869141,211.8261719z"/>
		<path fill-rule="evenodd" clip-rule="evenodd" fill="none" d="M451.6083984,197.9033203
			c-7.484375,0-14.9697266,0.0292969-22.4541016-0.0166016c-2.4853516-0.015625-3.0537109-0.5654297-2.5439453-2.9121094
			c1.6826172-7.7490234,4.6035156-14.8486328,11.7978516-19.171875c1.7861328-1.0742188,3.9140625-1.6933594,5.9658203-2.1904297
			c4.7167969-1.140625,9.4941406-1.1328125,14.2304688-0.0449219c9.7412109,2.2373047,14.7714844,9.2148438,17.9716797,18.0009766
			c0.1123047,0.3076172,0.1386719,0.6455078,0.2363281,0.9589844c1.5849609,5.0849609,1.3974609,5.3691406-3.7490234,5.3789063
			c-7.1523438,0.0136719-14.3037109,0.0039063-21.4550781,0.0039063
			C451.6083984,197.9072266,451.6083984,197.9052734,451.6083984,197.9033203z"/>
		<path fill-rule="evenodd" clip-rule="evenodd" fill="none" d="M265.4931641,304.0351563
			c-0.0009766-0.6630859-0.0527344-1.3310547,0.0097656-1.9873047c0.1523438-1.5966797,0.3574219-3.1875,0.5419922-4.7792969
			c2.2783203,0.0253906,4.6523438-0.3457031,6.8115234,0.1738281c2.765625,0.6650391,4.9169922,4.7392578,4.5214844,7.5117188
			c-0.5253906,3.6914063-2.4150391,5.6005859-6.0517578,6.0488281c-0.9833984,0.1210938-1.9873047,0.0771484-2.9726563,0.1904297
			c-2.0390625,0.2333984-3.1054688-0.421875-2.8867188-2.6865234
			C265.609375,307.0292969,265.4931641,305.5263672,265.4931641,304.0351563z"/>
		<path fill-rule="evenodd" clip-rule="evenodd" fill="none" d="M458.78125,320.3476563
			c-0.1142578,1.0917969-0.0810547,2.6171875-0.4658203,4.0283203c-0.7265625,2.6640625-3.3505859,4.609375-5.8203125,4.5898438
			c-2.3857422-0.0195313-4.6542969-1.6464844-5.6191406-4.1416016c-1.1552734-2.9892578-1.0136719-6.0751953-0.2324219-9.0888672
			c0.7148438-2.7529297,3.7402344-4.8408203,6.2929688-4.65625c2.7900391,0.2021484,5.0292969,2.3183594,5.578125,5.4101563
			C458.7167969,317.6220703,458.6826172,318.7978516,458.78125,320.3476563z"/>
		<path fill-rule="evenodd" clip-rule="evenodd" fill="none" d="M492.3701172,316.1884766
			c-1.1542969,0-2.3222656,0.1044922-3.4599609-0.03125c-1.0478516-0.1259766-2.0654297-0.5107422-3.0966797-0.7822266
			c0.3242188-0.9082031,0.5175781-1.8955078,1-2.7109375c1.4814453-2.5039063,3.84375-3.2714844,7.3300781-2.6835938
			c2.8271484,0.4755859,3.9472656,2.7041016,5.1269531,4.8486328c0.1074219,0.1972656-0.5996094,1.2167969-0.96875,1.2402344
			c-1.9707031,0.1279297-3.953125,0.0605469-5.9306641,0.0605469
			C492.3710938,316.1494141,492.3710938,316.1689453,492.3701172,316.1884766z"/>
		<path fill-rule="evenodd" clip-rule="evenodd" fill="none" d="M148.4140625,315.9316406
			c1.0957031-3.6328125,2.4882813-6.1123047,6.4326172-6.0712891c4.0839844,0.0419922,5.2363281,0.8486328,7.3642578,6.0712891
			C157.7529297,315.9316406,153.3984375,315.9316406,148.4140625,315.9316406z"/>
	</g>
</g>
</svg>
