<?xml version="1.0" encoding="utf-8"?>
<!-- Generator: Adobe Illustrator 16.0.0, SVG Export Plug-In . SVG Version: 6.00 Build 0)  -->
<!DOCTYPE svg PUBLIC "-//W3C//DTD SVG 1.1//EN" "http://www.w3.org/Graphics/SVG/1.1/DTD/svg11.dtd" [
	<!ENTITY ns_extend "http://ns.adobe.com/Extensibility/1.0/">
	<!ENTITY ns_ai "http://ns.adobe.com/AdobeIllustrator/10.0/">
	<!ENTITY ns_graphs "http://ns.adobe.com/Graphs/1.0/">
	<!ENTITY ns_vars "http://ns.adobe.com/Variables/1.0/">
	<!ENTITY ns_imrep "http://ns.adobe.com/ImageReplacement/1.0/">
	<!ENTITY ns_sfw "http://ns.adobe.com/SaveForWeb/1.0/">
	<!ENTITY ns_custom "http://ns.adobe.com/GenericCustomNamespace/1.0/">
	<!ENTITY ns_adobe_xpath "http://ns.adobe.com/XPath/1.0/">
]>
<svg version="1.1" id="Layer_1" xmlns:x="&ns_extend;" xmlns:i="&ns_ai;" xmlns:graph="&ns_graphs;"
	 xmlns="http://www.w3.org/2000/svg" xmlns:xlink="http://www.w3.org/1999/xlink" x="0px" y="0px" width="612px" height="792px"
	 viewBox="0 0 612 792" style="enable-background:new 0 0 612 792;" xml:space="preserve">
<metadata><?xpacket begin="﻿" id="W5M0MpCehiHzreSzNTczkc9d"?>
<x:xmpmeta xmlns:x="adobe:ns:meta/" x:xmptk="Adobe XMP Core 5.3-c011 66.145661, 2012/02/06-14:56:27        ">
   <rdf:RDF xmlns:rdf="http://www.w3.org/1999/02/22-rdf-syntax-ns#">
      <rdf:Description rdf:about=""
            xmlns:xmp="http://ns.adobe.com/xap/1.0/"
            xmlns:xmpGImg="http://ns.adobe.com/xap/1.0/g/img/">
         <xmp:CreatorTool>Adobe Illustrator CS6 (Windows)</xmp:CreatorTool>
         <xmp:CreateDate>2016-03-03T11:43:12-06:00</xmp:CreateDate>
         <xmp:ModifyDate>2016-03-03T11:43:13-06:00</xmp:ModifyDate>
         <xmp:MetadataDate>2016-03-03T11:43:13-06:00</xmp:MetadataDate>
         <xmp:Thumbnails>
            <rdf:Alt>
               <rdf:li rdf:parseType="Resource">
                  <xmpGImg:width>256</xmpGImg:width>
                  <xmpGImg:height>192</xmpGImg:height>
                  <xmpGImg:format>JPEG</xmpGImg:format>
                  <xmpGImg:image>/9j/4AAQSkZJRgABAgEASABIAAD/7QAsUGhvdG9zaG9wIDMuMAA4QklNA+0AAAAAABAASAAAAAEA&#xA;AQBIAAAAAQAB/+4ADkFkb2JlAGTAAAAAAf/bAIQABgQEBAUEBgUFBgkGBQYJCwgGBggLDAoKCwoK&#xA;DBAMDAwMDAwQDA4PEA8ODBMTFBQTExwbGxscHx8fHx8fHx8fHwEHBwcNDA0YEBAYGhURFRofHx8f&#xA;Hx8fHx8fHx8fHx8fHx8fHx8fHx8fHx8fHx8fHx8fHx8fHx8fHx8fHx8fHx8f/8AAEQgAwAEAAwER&#xA;AAIRAQMRAf/EAaIAAAAHAQEBAQEAAAAAAAAAAAQFAwIGAQAHCAkKCwEAAgIDAQEBAQEAAAAAAAAA&#xA;AQACAwQFBgcICQoLEAACAQMDAgQCBgcDBAIGAnMBAgMRBAAFIRIxQVEGE2EicYEUMpGhBxWxQiPB&#xA;UtHhMxZi8CRygvElQzRTkqKyY3PCNUQnk6OzNhdUZHTD0uIIJoMJChgZhJRFRqS0VtNVKBry4/PE&#xA;1OT0ZXWFlaW1xdXl9WZ2hpamtsbW5vY3R1dnd4eXp7fH1+f3OEhYaHiImKi4yNjo+Ck5SVlpeYmZ&#xA;qbnJ2en5KjpKWmp6ipqqusra6voRAAICAQIDBQUEBQYECAMDbQEAAhEDBCESMUEFURNhIgZxgZEy&#xA;obHwFMHR4SNCFVJicvEzJDRDghaSUyWiY7LCB3PSNeJEgxdUkwgJChgZJjZFGidkdFU38qOzwygp&#xA;0+PzhJSktMTU5PRldYWVpbXF1eX1RlZmdoaWprbG1ub2R1dnd4eXp7fH1+f3OEhYaHiImKi4yNjo&#xA;+DlJWWl5iZmpucnZ6fkqOkpaanqKmqq6ytrq+v/aAAwDAQACEQMRAD8A9U4q7FXYq7FXYq7FXYq7&#xA;FXybJqF/LI0klzK8jks7s7EknqSSc60QA6PCHJI9Vv1y7/3/ACf8E39cPCO5HGe931y7/wB/yf8A&#xA;BN/XHhHcvGe931y7/wB/yf8ABN/XHhHcvGe931y7/wB/yf8ABN/XHhHcvGe931y8/wB/yf8ABt/X&#xA;HhHcvGe99S+X5ZJdB02WVi8klrAzuxqSxjUkknuc5XKKmfeXt8BvHEnuCPyttdirsVdirsVdirsV&#xA;dirsVdirsVdirsVdirsVdirsVdirsVdirsVdirsVdirsVfKcmh61HI0b2FwroSrKYnqCNiOmdYMs&#xA;T1DwxwzHQ/JRnsL63TnPbSwoTQNIjKK+FSMImDyLGUJDmFDJMHYqqQW1xcPwgieZwKlY1LGnjQYC&#xA;QObKMSeSv+h9X/5Ybj/kU/8ATI+JHvDLwp9x+T6e8vI8egaZHIpR0tIFdGFCCI1BBBzl8x9Z95e1&#xA;wCscfcEwyttdirsVdirsVdirsVdirsVdirsVdirsVdirsVdirsVdirsVdirsVdirsVdirsVdirBf&#xA;zn/5QiX/AJiIf1nM/s7+9+DrO1/7j4h4BnQPKOxV6X+RH/KRah/zB/8AM1M1nan0D3u57F/vJf1f&#xA;0vbs0b0rsVdirsVdirsVdirsVdirsVdirsVdirsVdirsVdirsVdirsVdirsVdirsVdirsVdirsVY&#xA;L+c//KES/wDMRD+s5n9nf3vwdZ2v/cfEPAM6B5R2KvS/yI/5SLUP+YP/AJmpms7U+ge93PYv95L+&#xA;r+l7dmjelWTzwwQvNPIsUMYLSSOQqqo3JJOwGEAk0EEgCy838yfnbpNm7W+i251CVag3Dkxwg/5O&#xA;3J/w+ebLD2ZKW8jTp9R2xCO0Bxfcwe8/OPz1O5aK6itATXhDDGQPb96JT+OZ0ezsQ6X8XWT7Wznk&#xA;QPh+u0LH+avn6Mmmqk13IaGBv1x5M6HD/N+9gO084/i+wfqTrS/zw8zW7gahbwX0X7VAYZPoZar/&#xA;AMJlE+zIHkSHJxds5B9QEvsel+VPzG8ueYyIbeU218f+POeiuf8AUNeL/Rv7ZrM+jnj3O473c6bX&#xA;482w2l3FlGYrmuxV2KrLi4gt4XnuJFhgjBaSVyFVQOpJOwwgEmgiUgBZ5PNfMX536VaSPBotsb+R&#xA;dvrMhMcNfFRTm34Zs8PZkjvI06bUdsxjtAcXn0YVefnJ55nYmK5htAf2YYUIH/I0SnM2PZ2IdL+L&#xA;rp9rZzyIHw/XaDT80/PyMWGrNU+MUBH3FCMn+Rw/zfvax2ln/nfYP1J3pX54eZbdwNRt4L6H9qgM&#xA;Mn0MtV/4TKMnZkD9JIcnF2zkH1AS+x6h5V8/eXvMq8LKUxXiir2U1FlAHUruQw91Pzpmrz6WeLny&#xA;73dabXY830nfuZHmM5jsVdirsVdirsVdirsVdirsVdirsVYL+c//AChEv/MRD+s5n9nf3vwdZ2v/&#xA;AHHxDwDOgeUdir0v8iP+Ui1D/mD/AOZqZrO1PoHvdz2L/eS/q/pe1XNxBbW8lxcOIoIVLyyNsFVR&#xA;Uk/IZpACTQeklIAWeT56/MD8wr/zLePbwM0OixN+4t+hkp0kl8Sew6D5750Wk0gxCz9Tyeu18sxo&#xA;bQ/HNh+ZjrnYq7FXYq2jujq6MVdSGVlNCCNwQRiQkGnt/wCVf5jyauBouryctSjWtrcnrOqipVv8&#xA;tR949xvo9do+D1R+n7npeze0Dk9E/q6eb0nNY7hSu7u2s7WW6uZBFbwKZJZG2CqoqScMYkmhzYyk&#xA;IizyD558/fmDfeZ7wxRFrfR4j+4tq0Lkf7slp1bwHb8T0Wk0gxC/4nk9drpZjQ2h3frYjmY69Vtr&#xA;S6upfStoXnlO4jiUu33KCcEpAc2UYmRoC1e80XWbJOd7YXFsn800Txjf3YDIxyRlyILOeGcfqBHw&#xA;QeTalS3uLi2njuLeRop4mDRyoSrKw6EEYCARRZRkQbHN7/8Alp5/HmWya1veKavaKDLTYSp09VR2&#xA;32Yf1zn9bpPCNj6S9V2drvGjUvrH2+bNswXZOxV2KuxV2KuxV2KuxV2KuxV2KsF/Of8A5QiX/mIh&#xA;/Wcz+zv734Os7X/uPiHgGdA8o7FXpf5Ef8pFqH/MH/zNTNZ2p9A97uexf7yX9X9Kf/nh5iktdMtd&#xA;Egbi18TLdU6+lGRxX5M+/wDscx+zMNyMz0cvtnUcMRAfxc/c8VzdvNuxV7P5C/KLTF0+LUfMMRuL&#xA;qdRJHZksqRKRVeYFCz+IOw6ZpdV2hK+GGw73o9F2VHhEsgsnoy68/LnyTdQmJ9IgjB6PCDEw9wyF&#xA;cw46zKD9Rc+fZ+GQrhDxf8wvIk3lbUE9J2n0y6qbWZvtAjrG9NuQ8e4zd6TVDKP6Qec1+iOCW28T&#xA;yYlmW4CtY3tzY3kF5bOY7i3dZInHZlNRglESFHkWcJmJBHMPqXQtVi1fRrPUotku4lk4/wArEfEv&#xA;+xaozlcuPgkY9z22HKMkBIdQ80/PHzNJGlt5et3oJQLm9p3UGkSH6VLEfLNn2Zh5zPwdN2zqKrGP&#xA;ef0PH83Dz6ZeWtDuNd1y00qA8WuXo8nXgijk7f7FQTlWbKMcDI9G/T4TlmIDq+l9D0HStEsUstNg&#xA;WGFQOTADm5H7Tt1Zs5nLllM3IvZYcEMceGIpHuiSIySKHRhRlYVBB6gg5WC2EW8R/NzyHa6RJHrW&#xA;lxCKxuH9O5t0HwxympVlHZW326A/PN52fqjP0y5h5vtTRDH64/SebzXNm6ZM/LOuT6HrtnqcJP8A&#xA;o8gMqD9uM7On+yWuVZsQnAxLfp8xxTEh0fUkUsc0SSxtyjkUOjDoVYVBzliKe2BsWF2BLsVdirsV&#xA;dirsVdirsVdirsVYL+c//KES/wDMRD+s5n9nf3vwdZ2v/cfEPAM6B5R2KvS/yI/5SLUP+YP/AJmp&#xA;ms7U+ge93PYv95L+r+lK/wA47x5/PNzExJFpDDCtewKCXb6Zct7OjWIedtPa07zkdwH6/wBLCMzn&#xA;WJv5R0+PUfNGl2UorFNcxiVT3QMCw+lRlOonw45HycjS4+PLGJ731FnLPbOxVh35taal75HvWIrJ&#xA;ZmO5iPgVYK3/AAjNmZoJ8OUebr+1MfFgPlu+d86N5F2KvffyWvGuPJSxMai0uZYV+R4y/wDM3Of7&#xA;SjWX3h6rsid4a7if1/peS/mLfve+dtXlY19OdoF9hBSKn/CZt9HDhxR933uh18+LNI+dfLZjmZLh&#xA;p55P81T+WdWbUobaO5kMTQhJCQByIPIEd/hplGowDLHhJpytJqThnxAXszX/AJXzq/8A1a7f/g3z&#xA;C/kqP84ux/luf80O/wCV86v/ANWu3/4N8f5Kj/OK/wAtz/mhK/M35t6hr2i3GlT6dBFHccayBnZl&#xA;4MHBFe9Vy3DoBjkJAnZp1HakssDAxG7Asz3VOxV9Lfl1em88kaPMTUrAIa/8YGMX/GmczrI8OWQ8&#xA;3stBPiwRPl92zI8xnMdirsVdirsVdirsVdirsVdirBfzn/5QiX/mIh/Wcz+zv734Os7X/uPiHgGd&#xA;A8o7FXpf5Ef8pFqH/MH/AMzUzWdqfQPe7nsX+8l/V/SkP5rwmLz9qnWjmF1J/wAqBP45kaA3hH46&#xA;uL2mKzy+H3MSzLcBkv5bMg886QXbiPWIB9yjAD6TmNrP7qTm9n/38fe+lM5l7F2Ksc/MW4WDyRrD&#xA;tShtzHv4yEIPxbMnRi8sfe4evlWCXufNOdM8a7FXuv5GIy+ULkkUD38hX5elEP1jND2p/eD3fren&#xA;7GH7k/1v0B495qV18z6wrmrre3IY9akStXNzg/u4+4PP6n+9l/WP3pXlrQitN0nU9TmMGnWst3Mq&#xA;82SFC5Cjapp23yM8kYi5GmzHilM1EWmX+BfOX/VlvP8AkS/9Mq/NYv5wbvyWb+bL5O/wL5y/6st5&#xA;/wAiX/pj+axfzgv5LN/Nl8nf4F85f9WW8/5Ev/TH81i/nBfyWb+bL5O/wL5y/wCrLef8iX/pj+ax&#xA;fzgv5LN/Nl8nf4F85f8AVlvP+RL/ANMfzWL+cF/JZv5svk9w/Kyw1Kw8nW9pqNu9tPHJLxikBVgr&#xA;OWBIPuTmj104yyExNvS9mwlHCBIUd2W5hue7FXYq7FXYq7FXYq7FXYq7FWC/nP8A8oRL/wAxEP6z&#xA;mf2d/e/B1na/9x8Q8AzoHlHYq9L/ACI/5SLUP+YP/mamaztT6B73c9i/3kv6v6VP88tMaDzLa34W&#xA;kV7bhS3jJCSG/wCFZcPZk7gR3FHbOOsgl3j7nnGbJ06I02+m0/ULa+g/vrWVJo/DlGwYV+7IziJR&#xA;IPVnjmYSEh0L6m0jVLPVdNt9Rs3529ygdD3Feqn3U7HOVyQMJGJ5h7fFlE4iQ5FF5BseZ/nd5igg&#xA;0aLQ43rdXjrLOg/ZhjNRX/WcCnyObPszCTLj6B03bGcCAgOZ+54lm8eadir6P/LDTH07yTpscgIl&#xA;nVrlwf8Ai5iy/wDCFc5vWz4spew7Ox8GGPnv83jf5paY1h531EUIjuWW5jJ7iVQWP/B8hm50M+LE&#xA;PLZ57tLHw55ee7FMy3AZt+UGuQ6Z5vjjnYJDqEbWvJtgHYho/vZeP05g9oYjLHt03dn2VmEM1HlL&#xA;Z9B5zz1bsVdiqEh1jSZ7uSzhvYJbuI0lt0lRpFI7MgPIZM45AWQaaxlgTQItF5BsdirsVdirsVdi&#xA;rsVdirsVdirsVdirBfzn/wCUIl/5iIf1nM/s7+9+DrO1/wC4+IeAZ0DyjsVel/kR/wApFqH/ADB/&#xA;8zUzWdqfQPe7nsX+8l/V/S9G/MbyofMnl2S3hA+v2x9ezJ7uo3Sv+Wu3zpmt0efw52eR5u41+l8b&#xA;HQ+obh84SRyRSNHIpSRCVdGFCCDQgg50oNvHkVstxQyDyt578w+WmZdPlV7aQ8pLSYF4i381AVKn&#xA;/VIzHz6WGXnzcvTa3Jh+k7dzJ7z88/M0sBjtrS1tpCKGajuQfFQzcfvBzFj2ZAHckubPtnKRsAHn&#xA;9/f3moXkt5ezNPdTHlLK5qSf8+mbCEBEUOTqpzMzcjZKhkmDI/IXlK48y69FbcT9RhIlv5eyxg/Z&#xA;r/M9KD7+2Y2q1AxQvr0czRaU5slfwjm+lURERUQBUUAKo2AA2AGcyS9kBTzz84/KMmq6THq9nHzv&#xA;NOB9VFFWe3O7f8Afi+Vc2PZ2o4JcJ5H73UdraUzhxjnH7nhWb55hwJBBBoRuCMVepeUvzruLO3js&#xA;9fge7SMBVvYiDNQdPUViA5/yqg/PNVqOzQTcDXk7zS9sGIrIL8+rNB+b/kP0TJ9ekD/759CXn9/H&#xA;j/w2YX8n5b5fa7H+VcFc/sLBfOX5zXeoQvZaDG9lbuKSXclBOwPUIFJCfOpPyzP0/ZwibnufsdZq&#xA;+1zMcOPYd/V5mGYMGBIYGoI61zZumZVoH5h+d7CWK2s72S7DsEjtZx64Yk0CjlVx8lYZi5dJiluR&#xA;X2Obg1+eJABvyO76H01799Pt31BEjvmjU3McVSiyEfEFrXYHOcnVmuT1uMy4RxfV1RGRZuxV2Kux&#xA;V2KuxV2KuxV2KuxVgv5z/wDKES/8xEP6zmf2d/e/B1na/wDcfEPAM6B5R2KvS/yI/wCUi1D/AJg/&#xA;+ZqZrO1PoHvdz2L/AHkv6v6Xt2aN6V5/+YX5Wwa8z6npZW31YisqNtHPQUFf5W269+/jmw0muOP0&#xA;y+n7nU6/s0ZfVHaf3vENT0nUtLu2tNRtntrhOscgpt4g9CPcZvYZIzFxNh5vJilA1IUULkmt2Kux&#xA;Vk/lL8vfMHmOVGhiNtp5Px30oISn+QOrn5fSRmLqNXDHz3Pc5ul0GTMdhUe9775a8s6X5d0xLDT0&#xA;oo+KWZqc5H7u5/zpnP5s0skrL1Wn08cUeGKa5U3uxV5N59/J955pdT8tqodyWm02oUVPUwk0A/1T&#xA;9Hhm30vaFDhn8/1uh1vZVnix/L9TyS7s7uzna3u4Xt502eKVSjD5g0ObeMgRYdDKBiaIoqWFi7FX&#xA;YqjdI0TVtYuha6bayXUx6hBso8WY/Co9ychkyxgLkabcWGeQ1EWXuP5e/ljbeXaahqDJc6uwopXe&#xA;OAHqEr1Y92+ge+i1etOTYbR+96XQdnDD6pbz+5neYDtHYq7FXYq7FXYq7FXYq7FXYq7FWC/nP/yh&#xA;Ev8AzEQ/rOZ/Z3978HWdr/3HxDwDOgeUdir0v8iP+Ui1D/mD/wCZqZrO1PoHvdz2L/eS/q/pe3Zo&#xA;3pXYqhtQ0vTdSgNvqFrFdQ9eEyBwD4io2PvkoTlE2DTDJjjMVIWGJXv5O+R7li0dtLak7kQytT7p&#xA;OeZke0co624E+ycB6EfFCr+SPk0NUyXjCteJlSny2QHJfynl8mH8j4f6Xz/YnWlflt5L0x1kg02O&#xA;WVeklwWmNfGjllB+QynJrMsuZcjF2fhhyj892TAAAACgGwAzFc12KuxV2KuxVB6no2k6pF6Wo2cN&#xA;2g6CVFYj/VJ3H0ZOGSUfpNNeTDCYqQBYrd/k75GnJMdrLbE/75mf9UhfMuPaOUdbcGXZOA9K+KF/&#xA;5Uj5N/nvP+Rqf80ZL+U8vkw/kfD/AEvmj7H8pfI1owY2LXLjoZ5HYf8AAgqp+kZXLX5T1pth2Xgj&#xA;0v3sqsrCysYBb2VvHbQL0ihRUX7lAGYspGRsm3OhCMRURQV8iydirsVdirsVYx5486w+WrWILF69&#xA;9chvq8Z2QBaVZyN6fF0HXMDX64YANrkeTuOyOyjq5GzUI8+/4Nu2va15EiksZxDq95bwyLOD6VGL&#xA;Kz0Kj4arUDEnJl04MTUyB5IAw6fWkTF4oyIrn319rzryPr3mN/OVjZ3mo3UqepIk0EszyKSEaoIZ&#xA;iDQjNJoNRlOeMZSkfi9V2vo9ONJKcIRBoUREDqHtedU+fOxV2KuxVgv5z/8AKES/8xEP6zmf2d/e&#xA;/B1na/8AcfEPAM6B5R2KvS/yI/5SLUP+YP8A5mpms7U+ge93PYv95L+r+lln5pxea7cLqunX0ltp&#xA;dvEiXEcMzROJGkI5kLxqDyUdc4ntUZh64yIgB0NdX032elppfuskRLJImrAO1cvvYZ5cl8/a7PLH&#xA;puq3TPAod/VupAKMaftEjNXpjqcpIhKW39Iu/wBdHRaeIOTHGj3RCKsfP3nDQNXNrq0r3KQPwurW&#xA;bizUHdZOtabjehyzH2hnwzqZuuYLTm7G0upxcWICJI2I/Unf5mXnme0nt9Z0/UZYtHuUjihWGVko&#xA;7KXqUFK8gKg5l9qTyxInGRED3F1/YGLTTicU4A5Ykk2L8ubJ/wAtNRvr/wAqwzXs73EyySJ6sh5O&#xA;VU7VY7n6cz+zMkp4QZGy6ft7BDFqSIDhFDkynNg6Z2KuxV2KuxV2KoDXrXUbvSLq202cW19IlIJy&#xA;SoU1HdQSNu4ynUQlKBETUnJ0eTHDLGWQcUBzDyXy7rHmay8822mX+qXE4jujbTo00ksbGpTo56V6&#xA;bZzmmzZY6gQlIn1VzJe312l0+TRyyQxxFx4h6QD39HtOdS+fuxV2KuxV2KuxV2KuxV4x+bmlXVt5&#xA;gS/km9SC/X9ym/7v0VVWXcnx5beOcv2xhMcvETtL9D3/ALNamM8HABRhz87v+xmP5YeX7zTtKF9N&#xA;eGeHUIYpIbb4uMXU9zTfl2GbPsrTyhDiJsSA27nQ+0Gthly8AjRgSCe95fZWWoX3m1rTT5vq93Nc&#xA;yrHNyKcaluR5Lv8AZr0zQQhKebhiakSXsMuWGPS8WQcUREbfJF3NvrPlHzbHELovcRvG7Sxs3GVH&#xA;oaMD1B3BByyUZ6bNV77fFpxzxa7Sk8PpIPweo/mN5ouNB0RTaELfXb+lC5FeAAq70PcdB883/aWq&#xA;OHH6fqLx3YfZ8dTm9f0RFnz7g8vstK07VdPk1HU/MaQ6o5YxQTcpGqp25uTUcj92aGGGOSPFPJU/&#xA;N7DLqcmGYx48JOPqRt8h5Mo/KnzdqE182h30zXETIz2jueTIU3KVO5Ur08KZn9k6yRl4cjfc6f2j&#xA;7Mxxh40Bwm9/O+qcfnP/AMoRL/zEQ/rOdf2d/e/B867X/uPiHgGdA8o7FXpf5Ef8pFqH/MH/AMzU&#xA;zWdqfQPe7nsX+8l/V/S9G/M3/lB9S/54f9REecn2p/i8vh94e97A/wAch/nf7kvLfJHnMeWJbyQ2&#xA;n1v6yiKAJPToUJPXi/XlnP6HW+ASau3su1uyvzYiOLh4b6Xz+IQ036X84+ZpZoIK3N468lQHhGiq&#xA;EBZvBVXc5CXHqcpIG8vsbo+FoNOAT6Yj4k8/vegfmxaraeS9OtVJZbe5hiVj1ISCRa/hm57Xhw4I&#xA;juI+4vMezmTj1c5fzoyPzlFvyJp1xqX5bzWNvcG1mnklVJxWqnkD2IO9KY6DGZ6UxBom0dsZ44u0&#xA;BOQ4gANmL/l/darB59trC4upHCtcQzoZGZGMcTnv1HJAcwOzpzGpEST1H2F3PbWPFLRSnGI/hI27&#xA;yP0FLvNsOuaD5hmtm1KaVgRPFMrupIc8hUE7EHKNYMmHKRxE9XK7Nlh1OAS4AOlUHqP5h6HqGp6T&#xA;61nfNafUElnkQFgJAFrQlSKU4ntm/wC0cEskLjKuGz73juxNXjxZanHi46Hu3eWeWLLzdr081lpt&#xA;/KihA1wZLiRI+NaDkAST92c/pYZsxMYSPnuXsu0Mul00RPJAeXpFobU08w+WdWuNP+vSwXEdOclt&#xA;NIqsGAYGo4noe+QyjLgmY8RB8i3ac4NXiE+EGJ/nAJt5l8n+cNL01dY1K99ejKJAJpJJYy/QksKd&#xA;djQ5kanR58ceOcr+JtwdB2npc2Twsca/zQAXoH5W6vf6n5ZZ72Vp5be4eBZXNWKBEccidz9vvm57&#xA;KzSyYvUbo19zzHtDpoYdRUBQlEH7SP0PMPMCXsnny8jsSVvXv2W2ZTxIkMlEoe2+aHUCR1B4fq4t&#xA;vm9hojAaKJn9Hh7+6t0X5m8qeYfKr22pyX3qSztxNzC7h1kA5ULGhNadcs1Wky6epmW56hp0HaOD&#xA;WCWMRoDoQKpncfn2dPy8XXHCvqIP1ahACmevEMQP8n46fRm3HaB/LeJ/Fy+P43ebl2NE6/wR/d/V&#xA;/m936GBaXY23mUXN9r/mJLS6DFYkuDyY1FagFlCp2ouafFjGe5ZMlHzel1GaWk4YYMJlHrX9h396&#xA;b/lz5q1Gy8wJoNzc/W7CZ2hifkXVHWvFomP7DU6fTmT2bq5QyeGTcTt/Y4PbnZ2PJg8eMeGYFnp8&#xA;/MIX8xtO1bRdaNyNTlkj1GSaeJFZ09Ic6hPtH7PKgyvtLHPFkviPqs+5u7Dz4tRh4eAAwAB5G9uf&#xA;JV0mx88eb7y11OSUixtpIwjyOUj/AHRHIooqWbbc065LDj1GpkJk+kfoYanNo9DCWMD1yB5Czv3/&#xA;AKnsmdO8E7FXl/52rIRo7cT6a/WAX7cm9Pb/AIXNB24D6Pj+h7H2TI/ed/p/3yZeUPPukReVG9WG&#xA;dV0S3gS6bipDF29NeHxdz40y/R9oQGHcH0AX9zidp9jZTqdjH97KVfDffZ5voOu29h5rg1iaNjAs&#xA;7yOi0LBZOQ2rStOWaPT5xDMJnlb1es0csumOIHfhA+SdfmlIF84rPSqNBBIvuu/9Myu1T+/vyDge&#xA;z0b0nD/SkGRefh/irylZa5pMckkNs8jSQstJAh+FyQC32SnY9Mze0P8ACMIyQ5B1XY3+B6qWHKQD&#xA;IDfpfT52x3yvqX5cx6SI9c09zqEXItKPUYSgmq04sApptTYZhaXLpRCskfV8d3a9oYNect4Z+g9N&#xA;tvsZT5AvPKmoavJJpOgyWctspK3nMugVvho1W2Zh2Fc2HZ88M5kwgY11dN2zi1OLEBlyiYl/DVfo&#xA;6fBV/OyUp5MC1H7y7iXf2V22/wCBzquzR+9+DwPbB/c/EPBM37yzsVel/kR/ykWof8wf/M1M1nan&#xA;0D3u57F/vJf1f0sw/NnzJZ22kyaCUdry9SOVWFOCxrLyqTWtSY6UpnF9r6mMYHH/ABSr7/2Ppfs3&#xA;oJzyjP8AwwsfGv2sG/L/AF/RNHv521S0NyLhUjhZUSQoeW+zldj7eGans7UY8Ujxi7ei7a0WbPAe&#xA;HLh4bJ3Iv5PdY4ool4xoqL/KoAH4Z1oAHJ84lIncvMfzi8wWskcOgrG/1iKVLqSU0CBeDqFG9Sfj&#xA;zQ9s6gEDH1u3sPZfRSBOckcJBj58x+pGflDr9nJp7aGEkF3D6lyzkD0yhZV2Na1q3hlnY+oiY+H/&#xA;ABDdo9ptHMZPG24TUfO6LB4dRfy558lvJISRaXcweI/aMblkNPfg1RmqGTwNQZEcpF6KWAarRCAP&#xA;1Qjv5ij94Q3nHzGvmDW31BIjDFwWOKNjVgq9zTxJOV63U+Nk4qpt7L0P5XCIE2bt6drX5haPJ5Ra&#xA;89G4UamlxbW0ZVa81XiSxDU41br+Gb7P2jA4eKj6rAeQ0nYmUarguP7sxkfd8ubB/wAsPMVno+tP&#xA;HdI7C/EdvGyAHi5cULVI237Zquy9THFko/xbPRe0Ghnnwgxr0WfsUvzT/wCU0u/9SH/k2uR7W/vz&#xA;8PuZezv+KR95+9mvnLX7LXfy4uNQs1dInljThKAGDLKoNaFh+ObTW6iObSmUeV/pdB2Xo56bXjHO&#xA;ro8vckf5beddI0XR7yyvVl9QSSXatGoYMvpovEbj4qp3298xOzNdDFAxlff9gdj292Tl1GWM4VVC&#xA;P2n7N2JXevg+bZNdtUPH659aijkoCQH5BWpWlR1zXT1H77xB/Ot3WPRf4KMMj/Bwn5J95+8/WfmO&#xA;ztLSzt5Ykif1pjLxrz4lQqhS1R8R3OZnaHaEc8RGIIdd2N2NPSzlOZBsUK7k6/wjqR/KtbdYm+ve&#xA;r9f+rgfERWnGnj6fxU+jMr8nL8nVeq+Kvx5Ov/lPH/KXFforgv8AHnsxzydfeRIrSaHzHZFrkPyi&#xA;uR6jBloPgKo2xB9swdFk04BGUb9+7te1MOtMgdPL09Rt892TeUb3yTqPmKOHS/L0sbwn1Ib3mWCc&#xA;dw8ilqL7bnfM/R5NPPLUMZ26uo7TxazFgJyZgb2Me/yG2/2JF+afmPT9X1SG2tA5OnGWGZ3ACsxY&#xA;A8N60BU9QMxO1tTHJMCP8Nh2Ps7ocmDGZTr10R+1nH5aeZdMv9Ih0q2jkjuNOgQT81UIxJPJkIY/&#xA;teIGbXszVQnAQHOIee7e0GTFlOWRBjORr9rMs2joHYqoXthZX0Bt72CO5gJqY5VDrUdDQ98hPHGY&#xA;qQsNmLNPHLigTE+Sja6Ho1pby21tYwRW8/8AfRLGoV+3xinxfTkYYIRBAiAC2ZNXlnISlKRkORvl&#xA;7lFPLHlpGDppNkrqQVYW8QII6EHjkRpcQ/gj8gzPaGoIo5J/6Y/rRF3pGlXj87uyguHI48pYkc0H&#xA;arA5OeGEvqAPwa8epy4xUZSj7iQr29tb20KQW8SQwxiiRRqEVR7KKAZKMREUBQapzlM8UjZPUpXd&#xA;eT/K91MZp9Lt2lY1ZggUk+J40rlE9HhkbMQ5uPtPUwFRnKvemVnZWdlAILOCO3hG4jiUItfGgpl0&#xA;IRiKiKDiZcs8h4pkyPm8n/PLzHZyx2egwOJJ4pfrN0FIPAhSkan3IdjT5Zu+zMJFzPuec7Z1ANYx&#xA;z5l5Jm3dA7FXrP5CWbGbV70j4VWGFT4klmb7qDNR2rLaId92JDeUvc9UvdG0e+kWS9sbe6kUcVea&#xA;JJGC1rQFgdt80U8EJm5RB94enxarLjFQnKI8iQox+WfLkUiyR6VZpIhBR1t4gQR0IIXIjS4gbEY/&#xA;INktfqCKOSdf1j+tMsvcRB3ui6PfSCW9sbe6kUcVeaJJGA60BYHbKp4ITNyiD7w34tVlxioTlEeR&#xA;IbstH0iwdnsbG3tXcUdoIkjJHWhKgYYYYQ+mIHuC5dVlyCpylL3klTvvL+h38wnvbC3uJgKepJGr&#xA;NQdiSN8jk0+OZuUQT7meHW5sYqE5RHkVsvlzy9Lx9XS7STgoROUETcVG4UVXYb4DpsR5xj8gsddn&#xA;jyyTH+cVaTR9IktEs5LG3e0jPJLdokManfcIRxHU5M4YEcJiK7qYR1WUS4xKXEetm/mpQeXPL1vM&#xA;k0Gl2kU0Z5RyJBErKR3BC1GRjpsQNiMQfcGc9dnkKlOZB/pFdd6Fol5MZ7vT7a5mIAMssMbtQdBy&#xA;YE4Z6fHI3KIJ9wY49ZmxioTlEeUiFRdK0xbI2K2cC2TfatRGgiNTXdKcevthGKHDw0OHurZidRkM&#xA;+Pilx99m/mow+XfL8DFoNMtImZSjMkEakqwoymi9COuRjpsY5Rj8g2T12eWxnM/5xdb+XtAtpVmt&#xA;9MtIZl+zJHBGrD5EKDjHTY4mxGIPuCz12eYqU5kecitj8s+XYrn61HplslwDyEoiQEN4jbY4BpcQ&#xA;NiIv3Jlr85jwmcuH3lMsvcRKr7yr5bvpTNd6bbyysatJwAYn3ZaE/TmPk0mKZuURbm4e0dRjFRnI&#xA;D3o2x03T9Ph9Gxto7aKtSkShAT4mnXLceKMBUQAHHzZ55Tc5GR80NL5a8uTSvLLpVnJK5LPI9vEz&#xA;MTuSSVqTlZ0uImzGPyDdHX6iIoZJgD+kf1q1lpGk2DM1jZQWrOKO0ESRkgdjxArk4YYQ+kAe4NeX&#xA;U5cm05Sl7ySi8saHYq7FXYq7FXYq7FWA/nTf31l5VtpLO4ktpHvo0Z4nZGK+lKaVUg0qozYdmwEs&#xA;hsXt+p1Xa85RxAg16v0F4z/izzVw9P8ATN96dKcPrM1KeFOWbr8vj/mj5B5381l/nS+ZSoksSzGp&#xA;O5J6k5a0uxQ7FX0Z+V3l6TRPKVuk68Lq8Jup1I3UyABFPyRRUeNc5zXZuPIa5DZ6/s3B4eIXzO7L&#xA;cw3PdirsVdirsVdirsVdirsVdirsVdirsVdirsVdirsVdirsVdirsVdirsVdirsVdirzr89f+URt&#xA;P+Y+P/kzNmy7L/vD/V/SHUdtf3Q/rfoLwvN68w7FV0MM00qxQo0srnikaAszE9gBucSQNykAk0Hq&#xA;/wCXf5S3S3MOr+Yo/SSIh7fTm3ZmG4aXwA/l6+NOh1Gr14rhh83e6Dss2J5Pl+t7BmnegdirsVdi&#xA;rsVdirsVdirsVdirsVdirsVdirsVdirsVdirsVdirsVdirsVdirsVdirTuiIzuwVFBLMTQADqScV&#xA;JeC+evzHfVfMcD2aJPpGmyH0reZQ8VwejtIjAgqw2XwG+xzf6XR8EDf1S+x5bW9oceQVvCP2vRtL&#xA;8pflx5m0qDU7fSYRDcLUrGXhKMPtIwiZKFSKZrp6jNikYmTt8el0+aAkIij8PuRC/lR5AVgw0oVH&#xA;jPcEfcZMj+fzfzvsDP8AkzT/AM37T+tPtL0DRNKUjTrGC0rszRIqsfm1OR+nMeeWU/qJLlY8EIfS&#xA;AEflba7FXYq7FXYq7FXYq7FXYq7FXYq7FXYq7FXYq7FXYq7FXYq7FXYq7FXYq7FXYq7FXYq8y/Of&#xA;zgbGxXy/ZvS5vV53jKd1grQL85CN/b55tOztPxHjPIcnS9r6vhj4Y5nn7v2vE83bzbO/yn85nRNZ&#xA;GnXclNM1FgjVO0cx2R9+gP2W+/tmBr9Nxx4h9Qdp2Xq/Dnwn6Zfe9+zn3qnYq7FXYq7FXYq7FXYq&#xA;7FXYq7FXYq7FXYq7FXYq7FXYq7FXYq7FXYq7FXYq7FXYq7FXYqh9Rv7fT7C4vrluMFrG0sp78UFT&#xA;T32yUImRAHVhkmIRMjyD5d17WLrWdXutTujWW5kL8a1Cr0VB7KtAM6nFjEIiI6PE58pyTMj1QGWN&#xA;TsVfRf5XeZX13ytC07872yP1a5J6txFUc/6yEb+Nc5zXYfDybcju9f2bqPFxC/qGzLsw3PdirsVd&#xA;irsVdirsVdirsVdirsVdirsVdirsVdirsVdirsVdirsVdirsVdirsVdirsVYR+cd49v5IuEQ0+tT&#xA;RQsR4cuZ/wCIZndnRvKPJ1va06wHzIfPudC8m7FXYq9R/Ia6kXV9UtAf3UlukrD/ACo34j8JDmr7&#xA;Vj6QfN3fYkjxyHk9ozSPRuxV2KuxV2KuxV2KuxV2KuxV2KuxV2KuxV2KuxV2KuxV2KuxV2KuxV2K&#xA;uxV2KuxV2KsX/MvRptX8m39vApe4iC3ESDqTEeTADuSlae+ZWiyCGUE8nC7RwnJhIHPm+bs6V452&#xA;KuxV69+RGjTKupaxIpWNwtrAT+1Q85Pu+HNP2pkG0fi9B2LiPqn8Hreah3zsVdirsVdirsVdirsV&#xA;dirsVdirsVdirsVdirsVdirsVdirsVdirsVdirsVdirsVdirsVeUeevydku7qXUvLvBXlJebT3IQ&#xA;Fj1MTH4RX+U0Hv2zbaXtGhwz+botb2SZHix/L9TzyTyD50jdkbRroldiVjLD6GWoObEavEf4g6k6&#xA;HMP4SyPy1+TXmK/nSTVwNNsgQXBKtOw8FVahfm33HMbN2jCI9PqLl6fsnJI+v0x+17dpmm2WmWMN&#xA;hYxCG1t14xRjsPfxJO5OaOczI2eb0uPHGERGOwCJyLN2KuxV2KuxV2KuxV2KuxV2KuxV2KuxV2Ku&#xA;xV2KuxV2KuxV2KuxV2Kv/9k=</xmpGImg:image>
               </rdf:li>
            </rdf:Alt>
         </xmp:Thumbnails>
      </rdf:Description>
      <rdf:Description rdf:about=""
            xmlns:xmpTPg="http://ns.adobe.com/xap/1.0/t/pg/"
            xmlns:stDim="http://ns.adobe.com/xap/1.0/sType/Dimensions#"
            xmlns:xmpG="http://ns.adobe.com/xap/1.0/g/">
         <xmpTPg:NPages>1</xmpTPg:NPages>
         <xmpTPg:HasVisibleTransparency>False</xmpTPg:HasVisibleTransparency>
         <xmpTPg:HasVisibleOverprint>False</xmpTPg:HasVisibleOverprint>
         <xmpTPg:MaxPageSize rdf:parseType="Resource">
            <stDim:w>612.000000</stDim:w>
            <stDim:h>792.000000</stDim:h>
            <stDim:unit>Points</stDim:unit>
         </xmpTPg:MaxPageSize>
         <xmpTPg:PlateNames>
            <rdf:Seq>
               <rdf:li>Cyan</rdf:li>
               <rdf:li>Magenta</rdf:li>
               <rdf:li>Yellow</rdf:li>
               <rdf:li>Black</rdf:li>
            </rdf:Seq>
         </xmpTPg:PlateNames>
         <xmpTPg:SwatchGroups>
            <rdf:Seq>
               <rdf:li rdf:parseType="Resource">
                  <xmpG:groupName>Default Swatch Group</xmpG:groupName>
                  <xmpG:groupType>0</xmpG:groupType>
               </rdf:li>
            </rdf:Seq>
         </xmpTPg:SwatchGroups>
      </rdf:Description>
      <rdf:Description rdf:about=""
            xmlns:dc="http://purl.org/dc/elements/1.1/">
         <dc:format>image/svg+xml</dc:format>
         <dc:title>
            <rdf:Alt>
               <rdf:li xml:lang="x-default">Untitled-2qrqraratrwqgtey</rdf:li>
            </rdf:Alt>
         </dc:title>
      </rdf:Description>
      <rdf:Description rdf:about=""
            xmlns:xmpMM="http://ns.adobe.com/xap/1.0/mm/"
            xmlns:stRef="http://ns.adobe.com/xap/1.0/sType/ResourceRef#"
            xmlns:stEvt="http://ns.adobe.com/xap/1.0/sType/ResourceEvent#">
         <xmpMM:RenditionClass>proof:pdf</xmpMM:RenditionClass>
         <xmpMM:DocumentID>xmp.did:9291546767E1E511B35B82586587995F</xmpMM:DocumentID>
         <xmpMM:InstanceID>xmp.iid:9291546767E1E511B35B82586587995F</xmpMM:InstanceID>
         <xmpMM:OriginalDocumentID>uuid:d0d4cd04-ca72-46af-9745-37026557c2e2</xmpMM:OriginalDocumentID>
         <xmpMM:DerivedFrom rdf:parseType="Resource">
            <stRef:instanceID>uuid:d9c174d5-16fb-40f9-8351-ef6b203041d4</stRef:instanceID>
            <stRef:documentID>uuid:d0d4cd04-ca72-46af-9745-37026557c2e2</stRef:documentID>
            <stRef:originalDocumentID>uuid:d0d4cd04-ca72-46af-9745-37026557c2e2</stRef:originalDocumentID>
            <stRef:renditionClass>proof:pdf</stRef:renditionClass>
         </xmpMM:DerivedFrom>
         <xmpMM:History>
            <rdf:Seq>
               <rdf:li rdf:parseType="Resource">
                  <stEvt:action>saved</stEvt:action>
                  <stEvt:instanceID>xmp.iid:9291546767E1E511B35B82586587995F</stEvt:instanceID>
                  <stEvt:when>2016-03-03T11:43:13-06:00</stEvt:when>
                  <stEvt:softwareAgent>Adobe Illustrator CS6 (Windows)</stEvt:softwareAgent>
                  <stEvt:changed>/</stEvt:changed>
               </rdf:li>
            </rdf:Seq>
         </xmpMM:History>
      </rdf:Description>
      <rdf:Description rdf:about=""
            xmlns:pdf="http://ns.adobe.com/pdf/1.3/">
         <pdf:Producer>Adobe PDF library 10.01</pdf:Producer>
      </rdf:Description>
   </rdf:RDF>
</x:xmpmeta>
                                                                                                    
                                                                                                    
                                                                                                    
                                                                                                    
                                                                                                    
                                                                                                    
                                                                                                    
                                                                                                    
                                                                                                    
                                                                                                    
                                                                                                    
                                                                                                    
                                                                                                    
                                                                                                    
                                                                                                    
                                                                                                    
                                                                                                    
                                                                                                    
                                                                                                    
                                                                                                    
                           
<?xpacket end="w"?>
	</metadata>
<g>
	<g>
		<path style="fill-rule:evenodd;clip-rule:evenodd;fill:none;" d="M50.4414063,587.0439453
			c0-127.3613281,0-254.7255859,0-382.0878906c170.3730469,0,340.7451172,0,511.1181641,0
			c0,127.3623047,0,254.7265625,0,382.0878906C391.1865234,587.0439453,220.8144531,587.0439453,50.4414063,587.0439453z
			 M172.5224609,493.0361328c-2.0048828,2.7832031-3.8789063,5.6738281-6.0390625,8.3300781
			c-6.0693359,7.46875-11.2109375,15.5488281-15.6640625,24.0390625
			c-3.5117188,6.6953125-7.4003906,13.3046875-8.8583984,20.8632813
			c-1.8681641,9.6835938-0.4785156,18.9296875,5.3945313,26.9570313
			c7.8857422,10.7773438,21.1503906,14.8554688,33.9628906,11.3320313
			c16.9335938-4.6542969,24.875-21.6269531,21.6376953-37.7675781c-1.9101563-9.5175781-6.4892578-17.96875-11.5039063-26.0722656
			c-5.4697266-8.8417969-11.6591797-17.2382813-17.4921875-25.8574219
			c-0.1191406-0.1777344,0.2929688-0.7128906,0.4570313-1.0820313c3.2685547,0.4609375,6.5419922,0.8867188,9.8046875,1.3847656
			c9.5712891,1.4667969,19.2246094,1.9082031,28.6621094-0.2617188
			c18.6386719-4.2832031,30.9746094-15.4140625,35.7021484-34.3808594c1.890625-7.5859375,2.7480469-15.2900391,2.84375-23.0458984
			c0.1738281-13.9980469-0.0244141-28.0009766-0.0273438-42.0019531
			c-0.0097656-51.0058594-0.0039063-102.0117188-0.0039063-153.0175781c0-0.6669922,0.0019531-1.3330078,0-2
			c-0.015625-5.5488281,0.0605469-4.6171875,4.4833984-4.6474609c5.5-0.0361328,11.0009766-0.0410156,16.5019531,0.0078125
			c2.0498047,0.0185547,3.0585938-0.7177734,3.0429688-2.9121094c-0.0595703-8.3339844-0.0458984-16.6679688-0.0087891-25.0029297
			c0.0078125-1.5224609-0.6474609-2.0839844-2.0927734-2.0107422c-0.9970703,0.0507813-2,0.0039063-2.9990234,0.0039063
			c-29.0039063,0-58.0068359,0-87.0107422,0c-0.8330078,0-1.671875,0.0605469-2.4990234-0.0107422
			c-1.6484375-0.1416016-2.3876953,0.4101563-2.3730469,2.2148438c0.0683594,8.5,0.0605469,17.0019531,0.0068359,25.5029297
			c-0.0117188,1.7900391,0.7529297,2.2421875,2.4091797,2.2246094c6.3330078-0.0673828,12.6679688-0.0498047,19.0019531-0.0195313
			c6.4716797,0.03125,5.5107422-0.6503906,5.5136719,5.6074219c0.0224609,61.6738281,0.0419922,123.3476563-0.0273438,185.0214844
			c-0.0078125,6.7861328-0.4248047,13.5830078-0.9296875,20.3535156
			c-0.6103516,8.1835938-5.2099609,14.3789063-12.6787109,15.7773438c-4.4296875,0.828125-9.2304688,0.21875-13.7880859-0.3535156
			c-4.3671875-0.546875-5.5068359-0.0410156-5.5146484,4.328125
			C172.4189453,475.3701172,172.4882813,484.2041016,172.5224609,493.0361328z M261.9248047,321.5078125
			c0.5146484,5.0957031,0.7207031,10.2451172,1.6025391,15.2763672
			c2.7910156,15.9316406,11.0507813,28.4638672,24.2568359,37.7539063
			c9.6748047,6.8066406,20.5498047,10.5253906,32.2275391,11.3466797c8.2314453,0.578125,16.4912109,0.3007813,24.6826172-1.7587891
			c13.6367188-3.4267578,24.9472656-10.3242188,33.7714844-21.1992188
			c7.0175781-8.6494141,10.7558594-18.6113281,12.3144531-29.6962891
			c1.3359375-9.5078125,1.4023438-18.9902344-0.5390625-28.1816406
			C385.6962891,283.5419922,372.5068359,268.9970703,352.0869141,261
			c-8.7460938-3.4257813-17.8779297-4.2304688-27.2119141-4.1777344
			c-13.4384766,0.0761719-25.7695313,3.5800781-36.7490234,11.2900391
			c-10.8535156,7.6210938-18.8447266,17.4609375-22.8417969,30.3837891
			C262.9541016,306.03125,262.1113281,313.6572266,261.9248047,321.5078125z M488.2509766,329.8203125
			c14.4960938,0,28.9941406-0.0410156,43.4902344,0.0449219c2.1757813,0.0126953,3.0683594-0.6474609,2.8183594-2.8173828
			c-0.6601563-5.7333984-1.1367188-11.4931641-1.9648438-17.2021484
			c-2.1777344-15.0322266-8.2089844-28.078125-19.8925781-38.2216797
			c-7.7714844-6.7490234-16.6875-11.4287109-26.6445313-13.4638672c-9.2460938-1.890625-18.671875-1.7226563-28.1542969-0.390625
			c-14.5800781,2.0458984-26.5976563,8.7099609-36.5507813,19.1259766
			c-11.9375,12.4951172-17.3828125,27.8554688-17.6210938,44.9472656
			c-0.0878906,6.2138672,0.5449219,12.5947266,1.9511719,18.6435547
			c4.3769531,18.8300781,15.8964844,31.9335938,33.5957031,39.5712891c9.984375,4.3085938,20.5,5.8457031,31.3476563,6.0224609
			c9.171875,0.1503906,18.1816406-0.6142578,26.9570313-3.2041016
			c13.9609375-4.1210938,25.1757813-12.1962891,33.5253906-24.1542969c1.6152344-2.3125,1.4335938-2.8408203-1.2734375-3.7177734
			c-8.578125-2.7783203-17.21875-5.375-25.7480469-8.2929688c-1.6269531-0.5585938-2.3066406-0.1386719-3.3964844,0.7724609
			c-3.5527344,2.9658203-7.0019531,6.1386719-10.8886719,8.6054688c-5.2167969,3.3115234-11.140625,5.1191406-17.3691406,4.7294922
			c-4.9238281-0.3066406-9.6933594-1.7382813-14.1796875-3.9033203
			c-10.3359375-4.9882813-14.4628906-13.9238281-15.6699219-24.7089844
			c-0.1835938-1.6416016,0.3652344-2.5410156,2.1777344-2.3955078c0.9941406,0.0800781,1.9980469,0.0107422,2.9980469,0.0107422
			C461.2568359,329.8203125,474.7529297,329.8203125,488.2509766,329.8203125z M406.5224609,435.140625
			c0.0039063,0,0.0078125,0,0.0117188,0c0,2.8300781,0.0898438,5.6621094-0.0292969,8.4863281
			c-0.0859375,2.03125,0.8808594,2.5986328,2.6933594,2.5732422c3.4941406-0.0507813,6.9921875-0.0898438,10.484375,0.0136719
			c2.1445313,0.0644531,3.0625-0.7763672,2.8710938-2.9091797c-0.0742188-0.8261719-0.0371094-1.6660156-0.0039063-2.4960938
			c0.046875-1.2011719-0.4179688-1.6855469-1.6972656-1.8574219c-3.484375-0.4667969-3.4824219-0.5507813-3.5078125-4.0449219
			c-0.015625-2.1640625-0.0117188-4.328125,0-6.4912109c0.0214844-4.4238281,0.8320313-5.4160156,5.125-6.3007813
			c4.3847656-0.9042969,6.6855469,0.8037109,7.0117188,5.2558594c0.0839844,1.1601563,0.0253906,2.3300781,0.0253906,3.4941406
			c0.0039063,4.3291016,0.0136719,8.6552734,0.0039063,12.9833984c-0.0039063,1.25,0.0859375,2.3505859,1.7734375,2.3408203
			c4.1621094-0.0253906,8.3222656,0.0078125,12.484375-0.0410156c0.4257813-0.0039063,1.1914063-0.3623047,1.21875-0.6181641
			c0.1914063-1.7910156,0.453125-3.6328125,0.1796875-5.3808594c-0.0800781-0.5175781-1.8144531-1.1210938-2.7695313-1.0898438
			c-2.2070313,0.0761719-2.8535156-0.78125-2.8085938-2.9140625c0.0957031-4.6572266,0.1191406-9.3271484-0.1230469-13.9765625
			c-0.2617188-5.0712891-2.3769531-6.9775391-7.2988281-8.5488281c-3.6210938-1.15625-6.8847656-0.1210938-10.2050781,0.6455078
			c-3.4941406,0.8066406-8.21875,0.9238281-11.3847656-0.2402344c-0.1523438-0.0566406-0.3417969-0.0146484-0.4921875-0.0751953
			c-4.5-1.8027344-8.7460938-0.4960938-12.9453125,1.1025391c-1.0488281,0.4013672-1.9511719,1.40625-2.7558594-0.4101563
			c-0.2050781-0.4609375-1.3984375-0.6630859-2.1425781-0.6777344c-3.4941406-0.0683594-6.9902344-0.1015625-10.484375-0.0058594
			c-2.671875,0.0732422-3.0195313,0.6162109-3.0546875,3.8925781c-0.0332031,2.8515625-0.0371094,3.0400391,2.9140625,3.1123047
			c2.1328125,0.0517578,2.921875,0.6728516,2.84375,2.8681641c-0.1445313,4.1552734-0.0996094,8.3212891-0.0136719,12.4814453
			c0.0351563,1.8105469-0.4003906,2.6503906-2.4570313,2.7421875c-3.25,0.1425781-3.875,1.2636719-3.265625,4.734375
			c0.2597656,1.4804688,0.9335938,2.4150391,2.6054688,2.4072266c5.4921875-0.0273438,10.9863281-0.0136719,16.4785156-0.0117188
			c1.671875,0.0019531,2.3671875-1.0009766,2.4941406-2.4951172c0.0820313-0.9902344,0.1953125-2.0351563-0.0273438-2.9804688
			c-0.1484375-0.6289063-0.7617188-1.4160156-1.3457031-1.6191406c-1.3398438-0.4628906-3.3984375-0.15625-4.0292969-1.0058594
			c-0.7285156-0.984375-0.2597656-2.8710938-0.2734375-4.3652344c-0.0195313-2.1650391,0.2050781-4.3544922-0.0625-6.4853516
			c-0.2890625-2.2880859,0.7753906-3.4550781,2.6484375-4.1191406c1.3808594-0.4892578,2.8339844-0.9433594,4.2792969-1.0429688
			c3.375-0.2324219,4.8984375,1.1914063,5.0117188,4.5800781
			C406.5986328,429.4775391,406.5224609,432.3095703,406.5224609,435.140625z M279.0351563,398.7246094
			c-0.0097656,0.125-0.0175781,0.25-0.0273438,0.375c-3.5009766,0-7.0019531-0.0429688-10.5019531,0.0117188
			c-3.7431641,0.0585938-3.984375,0.3330078-4.1103516,3.9589844c-0.1230469,3.5712891-0.1289063,3.6552734,3.6005859,3.9150391
			c1.5810547,0.1103516,2.4345703,0.4248047,2.421875,2.2539063c-0.0615234,9.0009766-0.0322266,18.0029297-0.0214844,27.0048828
			c0.0019531,1.5507813-0.5546875,2.5390625-2.2509766,2.6679688c-1.1220703,0.0839844-2.8085938-0.0917969-3.2207031,0.5273438
			c-0.6357422,0.9570313-0.5273438,2.4980469-0.5,3.7871094c0.0585938,2.8310547,0.1181641,2.9111328,3.2919922,2.9443359
			c5.8330078,0.0605469,11.6679688,0.0605469,17.5019531,0c3.2841797-0.0332031,3.9052734-0.7470703,4.0927734-4.1630859
			c0.1455078-2.6523438-0.0712891-2.9199219-2.5224609-3.0957031c-4.2880859-0.3085938-4.2890625-0.3085938-4.2939453-4.7734375
			c-0.0009766-1,0.0439453-2.0029297-0.0048828-3c-0.0722656-1.4638672,0.5341797-2.078125,2.0400391-2.0517578
			c2.6650391,0.0488281,5.3447266,0.1054688,7.9960938-0.1054688c3.6435547-0.2900391,7.3740234-0.8349609,10.0107422-3.640625
			c4.2363281-4.5068359,6.1064453-9.7685547,3.96875-15.9355469c-1.9248047-5.5498047-5.9619141-8.6943359-11.6416016-9.4267578
			C289.6210938,399.3027344,284.3144531,399.1230469,279.0351563,398.7246094z M463.5263672,416.3212891
			c-0.2988281-2.8447266-0.6542969-5.2675781-0.78125-7.7041016c-0.1289063-2.4921875-0.0664063-4.9951172-0.0234375-7.4921875
			c0.0253906-1.4902344-0.6464844-2.0546875-2.1015625-2.0371094c-3.6640625,0.0449219-7.3300781-0.0556641-10.9902344,0.0351563
			c-2.6347656,0.0664063-2.8671875,0.4033203-2.9003906,3.4541016c-0.0214844,1.7626953-0.5136719,3.6162109,2.5214844,3.6982422
			c3.1933594,0.0869141,3.2539063,0.4072266,3.2695313,3.5205078c0.0390625,8.3261719,0.0195313,16.6533203,0.0097656,24.9794922
			c-0.0058594,3.7226563-0.0136719,3.7988281-3.8183594,4.1835938c-1.4609375,0.1464844-2.1132813,0.6464844-2.0058594,2.1230469
			c0.0605469,0.8300781,0.0917969,1.6738281-0.0039063,2.4960938c-0.2324219,1.9726563,0.6328125,2.6787109,2.5546875,2.6357422
			c3.4941406-0.0820313,6.9941406,0,10.4902344-0.046875c0.8105469-0.0097656,2.0566406,0.0214844,2.3515625-0.4443359
			c1.6679688-2.6308594,3.125-1.015625,4.9003906-0.1484375c7.1132813,3.4775391,15.5820313,0.0546875,18.4101563-7.3691406
			c1.640625-4.3134766,1.75-8.9179688,0.8632813-13.2617188c-1.1835938-5.8017578-4.5214844-10.4365234-10.7011719-11.8066406
			C471.3916016,412.2109375,467.3525391,413.2509766,463.5263672,416.3212891z M126.4589844,415.921875
			c0-5.1191406-0.1035156-9.6132813,0.0439453-14.0996094c0.0742188-2.2441406-0.7763672-2.8535156-2.8876953-2.7617188
			c-3.3261719,0.1455078-6.6660156-0.0390625-9.9951172,0.0634766c-2.796875,0.0869141-3.0654297,0.5107422-3.1630859,3.8291016
			c-0.1025391,3.4589844-0.1123047,3.5703125,2.7148438,3.8242188c1.5175781,0.1357422,2.4970703,0.3154297,2.4863281,2.1816406
			c-0.0527344,9.3300781-0.0390625,18.6601563-0.0087891,27.9902344c0.0048828,1.484375-0.5957031,2.0644531-2.0644531,2.0664063
			c-0.9423828,0-2.6230469,0.1386719-2.6982422,0.4882813c-0.3349609,1.5664063-0.5126953,3.3046875-0.1289063,4.8261719
			c0.1933594,0.7675781,1.6835938,1.6767578,2.6171875,1.7099609c4.8251953,0.1699219,9.6601563,0.078125,14.4921875,0.078125
			c1.4033203-0.0019531,2.5664063-0.1132813,2.7519531-2.0166016c0.3193359-3.2734375-0.03125-4.7832031-2.0869141-5
			c-1.8994141-0.1992188-2.1113281-1.0449219-2.0888672-2.5605469c0.0537109-3.6650391-0.0332031-7.3320313,0.0341797-10.9970703
			c0.046875-2.6035156,2.3027344-4.3945313,5.3710938-4.421875c2.0566406-0.0185547,3.4921875,1.6914063,3.5732422,4.4863281
			c0.0820313,2.8300781-0.0605469,5.6669922,0.0371094,8.4960938c0.1357422,3.9365234,0.4033203,7.8662109,0.6142578,11.796875
			c3.9824219,0.0742188,7.9648438,0.1484375,11.9472656,0.2207031c0.1660156,0.0039063,0.3339844-0.015625,0.4990234,0
			c1.5615234,0.1445313,2.0263672-0.6982422,1.9570313-2.1005859c-0.0488281-0.9960938-0.0615234-2.0019531,0.0058594-2.9980469
			c0.0986328-1.4746094-0.5039063-2.2285156-2.0019531-2.0175781c-2.5869141,0.3632813-3.0205078-0.9648438-2.9609375-3.2109375
			c0.1230469-4.6601563,0.1308594-9.3330078-0.0556641-13.9902344c-0.21875-5.4892578-3.7617188-8.6621094-9.2089844-8.9277344
			C132.7392578,412.7060547,129.8359375,414.1972656,126.4589844,415.921875z M369.6142578,426.7060547
			c-0.0039063,0-0.0058594,0-0.0078125,0c0-3.4980469-0.0175781-6.9941406,0.0078125-10.4921875
			c0.0097656-1.3017578-0.1914063-2.3007813-1.8417969-2.2832031c-3.8300781,0.0419922-7.6601563,0.0136719-11.4902344,0.0585938
			c-0.4550781,0.0058594-1.2695313,0.2402344-1.3027344,0.4580078c-0.2578125,1.7685547-0.546875,3.5654297-0.4746094,5.3388672
			c0.0761719,1.8095703,1.6992188,1.2333984,2.7167969,1.2050781c1.8261719-0.0507813,2.2441406,0.8408203,2.2128906,2.4521484
			c-0.0703125,3.4960938,0.0488281,6.9970703-0.0683594,10.4912109c-0.0292969,0.8955078-0.4042969,2.0654297-1.0449219,2.5966797
			c-1.8769531,1.5605469-4.2324219,2.171875-6.5410156,1.359375c-1.9824219-0.6992188-1.7773438-2.9179688-2.125-4.5957031
			c-0.2324219-1.1181641-0.0449219-2.3222656-0.0449219-3.4882813c-0.0039063-4.4960938-0.0429688-8.9931641,0.0117188-13.4892578
			c0.0175781-1.6230469-0.4472656-2.4541016-2.2519531-2.40625c-3.4960938,0.09375-6.9941406,0.0107422-10.4921875,0.0556641
			c-0.6240234,0.0078125-1.7431641,0.1914063-1.7861328,0.4423828c-0.3085938,1.7578125-0.546875,3.5566406-0.5097656,5.3359375
			c0.0371094,1.8662109,1.6582031,1.28125,2.6689453,1.2431641c1.7851563-0.0673828,2.2832031,0.7089844,2.2597656,2.3759766
			c-0.0664063,4.6621094-0.1523438,9.3320313,0.0273438,13.9873047c0.2226563,5.7597656,3.2988281,9.6220703,10.1894531,9.5537109
			c2.0878906-0.0195313,4.2441406-0.5859375,6.2324219-1.2939453c1.6386719-0.5820313,3.0878906-1.8925781,4.296875,0.4794922
			c4.4863281-0.0292969,8.9804688,0.0898438,13.453125-0.171875c1.5566406-0.0908203,2.3925781-5.5380859,1.125-6.5595703
			c-0.2363281-0.1914063-0.5917969-0.2597656-0.9042969-0.3242188c-1.4003906-0.2929688-3.4199219-0.1113281-4.0449219-0.9609375
			c-0.7285156-0.9902344-0.2558594-2.875-0.2675781-4.3730469
			C369.6005859,431.3691406,369.6142578,429.0380859,369.6142578,426.7060547z M526.2646484,439.4472656
			c-3.8300781-1.9433594-7.1777344-3.3164063-11.4414063-0.3261719c-4.4316406,3.1074219-9.9765625,0.7539063-11.8574219-4.0917969
			c-0.8730469-2.2519531-0.4472656-2.9580078,2.0878906-2.9814453c6.1621094-0.0556641,12.3242188,0.0097656,18.4863281-0.03125
			c3.1074219-0.0205078,3.1328125-0.0771484,3.1035156-2.890625c-0.0664063-6.0849609-2.5664063-10.9619141-7.8417969-13.9863281
			c-5.6875-3.2578125-11.7851563-3.3417969-17.515625-0.2265625c-6.3847656,3.4716797-9.1972656,9.1074219-8.890625,16.4658203
			c0.2910156,6.9902344,3.1933594,11.9003906,9.453125,14.2832031
			C508.7978516,448.3095703,520.3427734,448.4677734,526.2646484,439.4472656z M189.3417969,439.2480469
			c-2.5146484-0.7753906-4.9091797-1.921875-7.3779297-2.1152344c-1.3515625-0.1054688-2.8037109,1.4472656-4.2529297,2.1621094
			c-4.4658203,2.2070313-9.9824219,0.4257813-11.890625-3.8007813c-0.9736328-2.1572266-0.2363281-3.4326172,2.140625-3.4501953
			c6.1572266-0.0458984,12.3144531,0.0136719,18.4716797-0.0273438c3.1630859-0.0205078,3.1992188-0.078125,3.0732422-3.390625
			c-0.4042969-10.6455078-9.6982422-18.171875-21.7695313-15.1640625
			c-7.6933594,1.9179688-12.6103516,7.7548828-12.8076172,17.2607422
			c-0.1474609,7.0488281,3.6445313,12.2324219,9.7558594,14.8378906
			C171.8076172,448.5986328,183.5244141,448.5966797,189.3417969,439.2480469z M326.6035156,418.9980469
			c-0.0097656,0-0.0195313,0-0.0292969,0c0-5.828125-0.0253906-11.65625,0.0166016-17.4853516
			c0.0117188-1.5654297-0.3251953-2.4892578-2.1845703-2.4394531c-3.6611328,0.0986328-7.3271484,0.0664063-10.9902344,0.0117188
			c-1.5205078-0.0224609-2.0947266,0.6503906-2.0166016,2.0957031c0.0439453,0.8300781,0.0791016,1.6738281-0.0117188,2.4960938
			c-0.2509766,2.2675781,0.4365234,3.4941406,2.9931641,3.1757813c1.9296875-0.2421875,2.0371094,1.1123047,2.0332031,2.5771484
			c-0.0244141,8.9921875-0.0527344,17.984375,0.0214844,26.9765625c0.015625,1.9179688-0.5927734,2.8417969-2.5566406,2.578125
			c-2.0224609-0.2695313-2.6972656,0.6757813-2.4902344,2.5742188c0.0898438,0.8242188,0.046875,1.6660156,0.0195313,2.4980469
			c-0.0449219,1.4003906,0.4921875,2.1474609,2.0097656,2.1376953c5.4960938-0.0351563,10.9912109,0.0214844,16.484375-0.0859375
			c0.5351563-0.0097656,1.3378906-0.8408203,1.5097656-1.4365234c0.2675781-0.9257813,0.0644531-1.9804688,0.1210938-2.9765625
			c0.0957031-1.6738281-0.0683594-3.0527344-2.3300781-2.7109375c-2.4082031,0.3632813-2.6503906-1.0839844-2.625-3.0019531
			C326.6503906,430.3222656,326.6035156,424.6601563,326.6035156,418.9980469z M546.6455078,420.8623047
			c0-1.6953125-0.0507813-2.9951172,0.0136719-4.2890625c0.0917969-1.9003906-0.7363281-2.6923828-2.6484375-2.6523438
			c-3.4980469,0.0722656-7-0.0136719-10.4980469,0.0517578c-0.5800781,0.0117188-1.6152344,0.4150391-1.6464844,0.7177734
			c-0.1835938,1.8085938-0.3496094,3.6816406-0.0195313,5.4375c0.0898438,0.4707031,1.9570313,0.9082031,2.9726563,0.8388672
			c2.3027344-0.1572266,2.8105469,0.8759766,2.7460938,2.9335938c-0.1191406,3.828125-0.0097656,7.6640625-0.0410156,11.4980469
			c-0.0253906,3.296875-0.0488281,3.4472656-3.484375,3.5332031c-1.953125,0.046875-2.765625,0.6269531-2.5214844,2.5839844
			c0.0820313,0.65625,0.0859375,1.3417969,0.0019531,1.9980469c-0.2949219,2.2890625,0.8730469,2.7509766,2.9042969,2.7119141
			c5.4980469-0.1015625,10.9980469-0.0527344,16.4980469-0.0273438c3.9628906,0.0195313,3.5957031,0.1777344,3.6347656-3.9345703
			c0.0039063-0.5-0.0273438-1.0019531,0-1.5c0.0683594-1.2480469-0.4921875-1.8378906-1.7558594-1.7753906
			c-0.6660156,0.0332031-1.3359375,0.0273438-2-0.0039063c-3.1523438-0.140625-3.1523438-0.1464844-3.1464844-3.4609375
			c0-0.5-0.0371094-1.0048828,0.0078125-1.5c0.5722656-6.1162109,3.9121094-10.1796875,8.9882813-10.9589844
			c3.7109375-0.5693359,3.7109375-0.5693359,3.7226563-4.4003906c0.0019531-0.5,0.0097656-1,0-1.4990234
			c-0.0878906-4.0898438-0.890625-4.6162109-4.7578125-3.6699219
			C551.5810547,414.4824219,549.3916016,417.6308594,546.6455078,420.8623047z M100.5527344,401.0292969
			c-2.6035156,1.8710938-4.6621094,3.5439453-6.9091797,4.9072266c-2.1591797,1.3115234-3.5390625,2.8037109-3.3623047,5.5419922
			c0.0488281,0.7431641-0.8291016,2.1689453-1.3935547,2.2294922c-3.5458984,0.375-2.2021484,3.015625-2.5,4.9052734
			c-0.3486328,2.2148438,1.1425781,2.2333984,2.6875,2.5791016c0.5634766,0.1259766,1.2089844,1.4121094,1.2294922,2.1845703
			c0.1269531,4.8144531,0.3789063,9.6533203,0.0234375,14.4433594c-0.3876953,5.2207031,2.8291016,9.1767578,9.1337891,9.0732422
			c6.1308594-0.1015625,7.2265625-1.1611328,7.0625-7.2412109c-0.0117188-0.4453125-0.2558594-0.8867188-0.3896484-1.3183594
			c-5.0498047,0.953125-5.5146484,0.6386719-5.5732422-3.9169922c-0.0449219-3.4873047,0.0693359-6.9785156-0.0390625-10.4619141
			c-0.0625-2.0019531,0.3759766-2.9775391,2.6992188-2.9951172c3.3583984-0.0263672,3.3574219-0.2226563,3.3320313-3.6337891
			c-0.0214844-3.0117188-0.0117188-3.1699219-3.1289063-3.3671875c-2.1533203-0.1367188-2.9365234-1.015625-2.890625-3.0751953
			C100.6054688,407.7529297,100.5527344,404.6181641,100.5527344,401.0292969z"/>
		<path style="fill-rule:evenodd;clip-rule:evenodd;fill:#288CBD;" d="M172.5224609,493.0361328
			c-0.0341797-8.8320313-0.1035156-17.6660156-0.0859375-26.4960938c0.0078125-4.3691406,1.1474609-4.875,5.5146484-4.328125
			c4.5576172,0.5722656,9.3583984,1.1816406,13.7880859,0.3535156c7.46875-1.3984375,12.0683594-7.59375,12.6787109-15.7773438
			c0.5048828-6.7705078,0.921875-13.5673828,0.9296875-20.3535156
			c0.0693359-61.6738281,0.0498047-123.3476563,0.0273438-185.0214844
			c-0.0029297-6.2578125,0.9580078-5.5761719-5.5136719-5.6074219c-6.3339844-0.0302734-12.6689453-0.0478516-19.0019531,0.0195313
			c-1.65625,0.0175781-2.4208984-0.4345703-2.4091797-2.2246094c0.0537109-8.5009766,0.0615234-17.0029297-0.0068359-25.5029297
			c-0.0146484-1.8046875,0.7246094-2.3564453,2.3730469-2.2148438c0.8271484,0.0712891,1.6660156,0.0107422,2.4990234,0.0107422
			c29.0039063,0,58.0068359,0,87.0107422,0c0.9990234,0,2.0019531,0.046875,2.9990234-0.0039063
			c1.4453125-0.0732422,2.1005859,0.4882813,2.0927734,2.0107422c-0.0371094,8.3349609-0.0507813,16.6689453,0.0087891,25.0029297
			c0.015625,2.1943359-0.9931641,2.9306641-3.0429688,2.9121094c-5.5009766-0.0488281-11.0019531-0.0439453-16.5019531-0.0078125
			c-4.4228516,0.0302734-4.4990234-0.9013672-4.4833984,4.6474609c0.0019531,0.6669922,0,1.3330078,0,2
			c0,51.0058594-0.0058594,102.0117188,0.0039063,153.0175781c0.0029297,14.0009766,0.2011719,28.0039063,0.0273438,42.0019531
			c-0.0957031,7.7558594-0.953125,15.4599609-2.84375,23.0458984
			c-4.7275391,18.9667969-17.0634766,30.0976563-35.7021484,34.3808594
			c-9.4375,2.1699219-19.0908203,1.7285156-28.6621094,0.2617188c-3.2626953-0.4980469-6.5361328-0.9238281-9.8046875-1.3847656
			C173.7861328,493.5322266,173.1542969,493.2822266,172.5224609,493.0361328z"/>
		<path style="fill-rule:evenodd;clip-rule:evenodd;fill:#288CBD;" d="M261.9248047,321.5078125
			c0.1865234-7.8505859,1.0292969-15.4765625,3.359375-23.0117188
			c3.9970703-12.9228516,11.9882813-22.7626953,22.8417969-30.3837891
			c10.9794922-7.7099609,23.3105469-11.2138672,36.7490234-11.2900391
			c9.3339844-0.0527344,18.4658203,0.7519531,27.2119141,4.1777344
			c20.4199219,7.9970703,33.609375,22.5419922,38.1542969,44.0488281c1.9414063,9.1914063,1.875,18.6738281,0.5390625,28.1816406
			c-1.5585938,11.0849609-5.296875,21.046875-12.3144531,29.6962891c-8.8242188,10.875-20.1347656,17.7724609-33.7714844,21.1992188
			c-8.1914063,2.0595703-16.4511719,2.3369141-24.6826172,1.7587891
			c-11.6777344-0.8212891-22.5527344-4.5400391-32.2275391-11.3466797
			c-13.2060547-9.2900391-21.4658203-21.8222656-24.2568359-37.7539063
			C262.6455078,331.7529297,262.4394531,326.6035156,261.9248047,321.5078125z M302.5869141,321.8320313
			c-0.7626953,6.2568359,0.4814453,12.7324219,2.9814453,18.9326172
			c3.7480469,9.2958984,10.6601563,14.9589844,20.7636719,15.0136719c9.65625,0.0507813,17.0517578-4.5761719,21.2236328-13.6435547
			c1.8828125-4.0898438,2.5429688-8.4238281,3.2441406-12.859375c1.4589844-9.2138672,0.734375-18.1318359-2.4042969-26.7939453
			c-2.2734375-6.2753906-6.3164063-11.3603516-12.7705078-13.8095703
			c-11.8710938-4.5068359-25.7148438-0.5839844-30.4003906,13.6894531
			C303.1777344,308.5966797,302.1601563,314.8408203,302.5869141,321.8320313z"/>
		<path style="fill-rule:evenodd;clip-rule:evenodd;fill:#288CBD;" d="M488.2509766,329.8203125
			c-13.4980469,0-26.9941406,0-40.4921875,0.0009766c-1,0-2.0039063,0.0693359-2.9980469-0.0107422
			c-1.8125-0.1455078-2.3613281,0.7539063-2.1777344,2.3955078c1.2070313,10.7851563,5.3339844,19.7207031,15.6699219,24.7089844
			c4.4863281,2.1650391,9.2558594,3.5966797,14.1796875,3.9033203c6.2285156,0.3896484,12.1523438-1.4179688,17.3691406-4.7294922
			c3.8867188-2.4667969,7.3359375-5.6396484,10.8886719-8.6054688c1.0898438-0.9111328,1.7695313-1.3310547,3.3964844-0.7724609
			c8.5292969,2.9179688,17.1699219,5.5146484,25.7480469,8.2929688c2.7070313,0.8769531,2.8886719,1.4052734,1.2734375,3.7177734
			c-8.3496094,11.9580078-19.5644531,20.0332031-33.5253906,24.1542969
			c-8.7753906,2.5898438-17.7851563,3.3544922-26.9570313,3.2041016
			c-10.8476563-0.1767578-21.3632813-1.7138672-31.3476563-6.0224609
			c-17.6992188-7.6376953-29.21875-20.7412109-33.5957031-39.5712891c-1.40625-6.0488281-2.0390625-12.4296875-1.9511719-18.6435547
			c0.2382813-17.0917969,5.6835938-32.4521484,17.6210938-44.9472656
			c9.953125-10.4160156,21.9707031-17.0800781,36.5507813-19.1259766c9.4824219-1.3320313,18.9082031-1.5,28.1542969,0.390625
			c9.9570313,2.0351563,18.8730469,6.7148438,26.6445313,13.4638672
			c11.6835938,10.1435547,17.7148438,23.1894531,19.8925781,38.2216797c0.828125,5.7089844,1.3046875,11.46875,1.9648438,17.2021484
			c0.25,2.1699219-0.6425781,2.8300781-2.8183594,2.8173828
			C517.2451172,329.7792969,502.7470703,329.8203125,488.2509766,329.8203125z M468.6083984,307.9091797
			c0,0.0019531,0,0.0039063,0,0.0068359c7.1523438,0,14.3027344,0.0097656,21.4550781-0.0039063
			c5.1464844-0.0097656,5.3339844-0.2939453,3.75-5.3789063c-0.0976563-0.3134766-0.125-0.6513672-0.2363281-0.9589844
			c-3.2011719-8.7861328-8.2304688-15.7636719-17.9726563-18.0009766
			c-4.7363281-1.0878906-9.5136719-1.0957031-14.2304688,0.0449219c-2.0507813,0.4970703-4.1796875,1.1162109-5.9648438,2.1904297
			c-7.1953125,4.3232422-10.1152344,11.4228516-11.7988281,19.171875c-0.5097656,2.3466797,0.0585938,2.8964844,2.5449219,2.9121094
			C453.6396484,307.9384766,461.1240234,307.9091797,468.6083984,307.9091797z"/>
		<path style="fill-rule:evenodd;clip-rule:evenodd;fill:#288CBD;" d="M172.5224609,493.0361328
			c0.6318359,0.2460938,1.2636719,0.4960938,1.8945313,0.7421875c-0.1640625,0.3691406-0.5761719,0.9042969-0.4570313,1.0820313
			c5.8330078,8.6191406,12.0224609,17.015625,17.4921875,25.8574219c5.0146484,8.1035156,9.59375,16.5546875,11.5039063,26.0722656
			c3.2373047,16.140625-4.7041016,33.1132813-21.6376953,37.7675781c-12.8125,3.5234375-26.0771484-0.5546875-33.9628906-11.3320313
			c-5.8730469-8.0273438-7.2626953-17.2734375-5.3945313-26.9570313c1.4580078-7.5585938,5.3466797-14.1679688,8.8583984-20.8632813
			c4.453125-8.4902344,9.5947266-16.5703125,15.6640625-24.0390625
			C168.6435547,498.7099609,170.5175781,495.8193359,172.5224609,493.0361328z"/>
		<path style="fill-rule:evenodd;clip-rule:evenodd;fill:#FE5C25;" d="M406.5224609,435.140625
			c0-2.8310547,0.0761719-5.6630859-0.0195313-8.4892578c-0.1132813-3.3886719-1.6367188-4.8125-5.0117188-4.5800781
			c-1.4453125,0.0996094-2.8984375,0.5537109-4.2792969,1.0429688c-1.8730469,0.6640625-2.9375,1.8310547-2.6484375,4.1191406
			c0.2675781,2.1308594,0.0429688,4.3203125,0.0625,6.4853516c0.0136719,1.4941406-0.4550781,3.3808594,0.2734375,4.3652344
			c0.6308594,0.8496094,2.6894531,0.5429688,4.0292969,1.0058594c0.5839844,0.203125,1.1972656,0.9902344,1.3457031,1.6191406
			c0.2226563,0.9453125,0.109375,1.9902344,0.0273438,2.9804688c-0.1269531,1.4941406-0.8222656,2.4970703-2.4941406,2.4951172
			c-5.4921875-0.0019531-10.9863281-0.015625-16.4785156,0.0117188c-1.671875,0.0078125-2.3457031-0.9267578-2.6054688-2.4072266
			c-0.609375-3.4707031,0.015625-4.5917969,3.265625-4.734375c2.0566406-0.0917969,2.4921875-0.9316406,2.4570313-2.7421875
			c-0.0859375-4.1601563-0.1308594-8.3261719,0.0136719-12.4814453c0.078125-2.1953125-0.7109375-2.8164063-2.84375-2.8681641
			c-2.9511719-0.0722656-2.9472656-0.2607422-2.9140625-3.1123047c0.0351563-3.2763672,0.3828125-3.8193359,3.0546875-3.8925781
			c3.4941406-0.0957031,6.9902344-0.0625,10.484375,0.0058594c0.7441406,0.0146484,1.9375,0.2167969,2.1425781,0.6777344
			c0.8046875,1.8164063,1.7070313,0.8115234,2.7558594,0.4101563c4.1992188-1.5986328,8.4453125-2.9052734,12.9453125-1.1025391
			c0.1503906,0.0605469,0.3398438,0.0185547,0.4921875,0.0751953c3.1660156,1.1640625,7.890625,1.046875,11.3847656,0.2402344
			c3.3203125-0.7666016,6.5839844-1.8017578,10.2050781-0.6455078c4.921875,1.5712891,7.0371094,3.4775391,7.2988281,8.5488281
			c0.2421875,4.6494141,0.21875,9.3193359,0.1230469,13.9765625c-0.0449219,2.1328125,0.6015625,2.9902344,2.8085938,2.9140625
			c0.9550781-0.03125,2.6894531,0.5722656,2.7695313,1.0898438c0.2734375,1.7480469,0.0117188,3.5898438-0.1796875,5.3808594
			c-0.0273438,0.2558594-0.7929688,0.6142578-1.21875,0.6181641c-4.1621094,0.0488281-8.3222656,0.015625-12.484375,0.0410156
			c-1.6875,0.0097656-1.7773438-1.0908203-1.7734375-2.3408203c0.0097656-4.328125,0-8.6542969-0.0039063-12.9833984
			c0-1.1640625,0.0585938-2.3339844-0.0253906-3.4941406c-0.3261719-4.4521484-2.6269531-6.1601563-7.0117188-5.2558594
			c-4.2929688,0.8847656-5.1035156,1.8769531-5.125,6.3007813c-0.0117188,2.1630859-0.015625,4.3271484,0,6.4912109
			c0.0253906,3.4941406,0.0234375,3.578125,3.5078125,4.0449219c1.2792969,0.171875,1.7441406,0.65625,1.6972656,1.8574219
			c-0.0332031,0.8300781-0.0703125,1.6699219,0.0039063,2.4960938c0.1914063,2.1328125-0.7265625,2.9736328-2.8710938,2.9091797
			c-3.4921875-0.1035156-6.9902344-0.0644531-10.484375-0.0136719c-1.8125,0.0253906-2.7792969-0.5419922-2.6933594-2.5732422
			c0.1191406-2.8242188,0.0292969-5.65625,0.0292969-8.4863281
			C406.5302734,435.140625,406.5263672,435.140625,406.5224609,435.140625z"/>
		<path style="fill-rule:evenodd;clip-rule:evenodd;fill:#FE5C25;" d="M279.0351563,398.7246094
			c5.2792969,0.3984375,10.5859375,0.578125,15.8291016,1.2539063c5.6796875,0.7324219,9.7167969,3.8769531,11.6416016,9.4267578
			c2.1376953,6.1669922,0.2675781,11.4287109-3.96875,15.9355469c-2.6367188,2.8056641-6.3671875,3.3505859-10.0107422,3.640625
			c-2.6513672,0.2109375-5.3310547,0.1542969-7.9960938,0.1054688c-1.5058594-0.0263672-2.1123047,0.5878906-2.0400391,2.0517578
			c0.0488281,0.9970703,0.0039063,2,0.0048828,3c0.0048828,4.4648438,0.0058594,4.4648438,4.2939453,4.7734375
			c2.4511719,0.1757813,2.6679688,0.4433594,2.5224609,3.0957031c-0.1875,3.4160156-0.8085938,4.1298828-4.0927734,4.1630859
			c-5.8339844,0.0605469-11.6689453,0.0605469-17.5019531,0c-3.1738281-0.0332031-3.2333984-0.1132813-3.2919922-2.9443359
			c-0.0273438-1.2890625-0.1357422-2.8300781,0.5-3.7871094c0.4121094-0.6191406,2.0986328-0.4433594,3.2207031-0.5273438
			c1.6962891-0.1289063,2.2529297-1.1171875,2.2509766-2.6679688c-0.0107422-9.0019531-0.0400391-18.0039063,0.0214844-27.0048828
			c0.0126953-1.8291016-0.8408203-2.1435547-2.421875-2.2539063c-3.7294922-0.2597656-3.7236328-0.34375-3.6005859-3.9150391
			c0.1259766-3.6259766,0.3671875-3.9003906,4.1103516-3.9589844c3.5-0.0546875,7.0009766-0.0117188,10.5019531-0.0117188
			C279.0175781,398.9746094,279.0253906,398.8496094,279.0351563,398.7246094z M282.4931641,414.0410156
			c0,1.4912109,0.1162109,2.9941406-0.0263672,4.4716797c-0.21875,2.2646484,0.8476563,2.9199219,2.8867188,2.6865234
			c0.9853516-0.1132813,1.9892578-0.0693359,2.9726563-0.1904297c3.6367188-0.4482422,5.5253906-2.3574219,6.0517578-6.0488281
			c0.3955078-2.7724609-1.7558594-6.8466797-4.5224609-7.5117188c-2.1582031-0.5195313-4.5322266-0.1484375-6.8105469-0.1738281
			c-0.1845703,1.5917969-0.390625,3.1826172-0.5429688,4.7792969
			C282.4394531,412.7099609,282.4921875,413.3779297,282.4931641,414.0410156z"/>
		<path style="fill-rule:evenodd;clip-rule:evenodd;fill:#FE5C25;" d="M463.5263672,416.3212891
			c3.8261719-3.0703125,7.8652344-4.1103516,12.0449219-3.1845703c6.1796875,1.3701172,9.5175781,6.0048828,10.7011719,11.8066406
			c0.8867188,4.34375,0.7773438,8.9482422-0.8632813,13.2617188c-2.828125,7.4238281-11.296875,10.8466797-18.4101563,7.3691406
			c-1.7753906-0.8671875-3.2324219-2.4824219-4.9003906,0.1484375c-0.2949219,0.4658203-1.5410156,0.4345703-2.3515625,0.4443359
			c-3.4960938,0.046875-6.9960938-0.0351563-10.4902344,0.046875c-1.921875,0.0429688-2.7871094-0.6630859-2.5546875-2.6357422
			c0.0957031-0.8222656,0.0644531-1.6660156,0.0039063-2.4960938c-0.1074219-1.4765625,0.5449219-1.9765625,2.0058594-2.1230469
			c3.8046875-0.3847656,3.8125-0.4609375,3.8183594-4.1835938c0.0097656-8.3261719,0.0292969-16.6533203-0.0097656-24.9794922
			c-0.015625-3.1132813-0.0761719-3.4335938-3.2695313-3.5205078c-3.0351563-0.0820313-2.5429688-1.9355469-2.5214844-3.6982422
			c0.0332031-3.0507813,0.265625-3.3876953,2.9003906-3.4541016c3.6601563-0.0908203,7.3261719,0.0097656,10.9902344-0.0351563
			c1.4550781-0.0175781,2.1269531,0.546875,2.1015625,2.0371094c-0.0429688,2.4970703-0.1054688,5,0.0234375,7.4921875
			C462.8720703,411.0537109,463.2275391,413.4765625,463.5263672,416.3212891z M475.7822266,430.3535156
			c-0.0996094-1.5498047-0.0644531-2.7255859-0.2675781-3.8583984c-0.5488281-3.0917969-2.7871094-5.2080078-5.578125-5.4101563
			c-2.5527344-0.1845703-5.578125,1.9033203-6.2929688,4.65625c-0.78125,3.0136719-0.921875,6.0996094,0.2324219,9.0888672
			c0.9648438,2.4960938,3.234375,4.1230469,5.6191406,4.1425781c2.4707031,0.0195313,5.09375-1.9257813,5.8203125-4.5908203
			C475.7001953,432.9707031,475.6669922,431.4453125,475.7822266,430.3535156z"/>
		<path style="fill-rule:evenodd;clip-rule:evenodd;fill:#FE5C25;" d="M126.4589844,415.921875
			c3.3769531-1.7246094,6.2802734-3.2158203,9.7958984-3.0449219c5.4472656,0.265625,8.9902344,3.4384766,9.2089844,8.9277344
			c0.1865234,4.6572266,0.1787109,9.3300781,0.0556641,13.9902344c-0.0595703,2.2460938,0.3740234,3.5742188,2.9609375,3.2109375
			c1.4980469-0.2109375,2.1005859,0.5429688,2.0019531,2.0175781c-0.0673828,0.9960938-0.0546875,2.0019531-0.0058594,2.9980469
			c0.0693359,1.4023438-0.3955078,2.2451172-1.9570313,2.1005859c-0.1650391-0.015625-0.3330078,0.0039063-0.4990234,0
			c-3.9824219-0.0722656-7.9648438-0.1464844-11.9472656-0.2207031c-0.2109375-3.9306641-0.4785156-7.8603516-0.6142578-11.796875
			c-0.0976563-2.8291016,0.0449219-5.6660156-0.0371094-8.4960938c-0.0810547-2.7949219-1.5166016-4.5048828-3.5732422-4.4863281
			c-3.0683594,0.0273438-5.3242188,1.8183594-5.3710938,4.421875c-0.0673828,3.6650391,0.0195313,7.3320313-0.0341797,10.9970703
			c-0.0224609,1.515625,0.1894531,2.3613281,2.0888672,2.5605469c2.0556641,0.2167969,2.40625,1.7265625,2.0869141,5
			c-0.1855469,1.9033203-1.3486328,2.0146484-2.7519531,2.0166016c-4.8320313,0-9.6669922,0.0917969-14.4921875-0.078125
			c-0.9335938-0.0332031-2.4238281-0.9423828-2.6171875-1.7099609c-0.3837891-1.5214844-0.2060547-3.2597656,0.1289063-4.8261719
			c0.0751953-0.3496094,1.7558594-0.4882813,2.6982422-0.4882813c1.46875-0.0019531,2.0693359-0.5820313,2.0644531-2.0664063
			c-0.0302734-9.3300781-0.0439453-18.6601563,0.0087891-27.9902344c0.0107422-1.8662109-0.96875-2.0458984-2.4863281-2.1816406
			c-2.8271484-0.2539063-2.8173828-0.3652344-2.7148438-3.8242188c0.0976563-3.3183594,0.3662109-3.7421875,3.1630859-3.8291016
			c3.3291016-0.1025391,6.6689453,0.0820313,9.9951172-0.0634766c2.1113281-0.0917969,2.9619141,0.5175781,2.8876953,2.7617188
			C126.3554688,406.3085938,126.4589844,410.8027344,126.4589844,415.921875z"/>
		<path style="fill-rule:evenodd;clip-rule:evenodd;fill:#FE5C25;" d="M369.6142578,426.7060547
			c0,2.3320313-0.0136719,4.6630859,0.0039063,6.9951172c0.0117188,1.4980469-0.4609375,3.3828125,0.2675781,4.3730469
			c0.625,0.8496094,2.6445313,0.6679688,4.0449219,0.9609375c0.3125,0.0644531,0.6679688,0.1328125,0.9042969,0.3242188
			c1.2675781,1.0214844,0.4316406,6.46875-1.125,6.5595703c-4.4726563,0.2617188-8.9667969,0.1425781-13.453125,0.171875
			c-1.2089844-2.3720703-2.6582031-1.0615234-4.296875-0.4794922c-1.9882813,0.7080078-4.1445313,1.2744141-6.2324219,1.2939453
			c-6.890625,0.0683594-9.9667969-3.7939453-10.1894531-9.5537109c-0.1796875-4.6552734-0.09375-9.3251953-0.0273438-13.9873047
			c0.0234375-1.6669922-0.4746094-2.4433594-2.2597656-2.3759766c-1.0107422,0.0380859-2.6318359,0.6230469-2.6689453-1.2431641
			c-0.0371094-1.7792969,0.2011719-3.578125,0.5097656-5.3359375c0.0429688-0.2509766,1.1621094-0.4345703,1.7861328-0.4423828
			c3.4980469-0.0449219,6.9960938,0.0380859,10.4921875-0.0556641c1.8046875-0.0478516,2.2695313,0.7832031,2.2519531,2.40625
			c-0.0546875,4.4960938-0.015625,8.9931641-0.0117188,13.4892578c0,1.1660156-0.1875,2.3701172,0.0449219,3.4882813
			c0.3476563,1.6777344,0.1425781,3.8964844,2.125,4.5957031c2.3085938,0.8125,4.6640625,0.2011719,6.5410156-1.359375
			c0.640625-0.53125,1.015625-1.7011719,1.0449219-2.5966797c0.1171875-3.4941406-0.0019531-6.9951172,0.0683594-10.4912109
			c0.03125-1.6113281-0.3867188-2.5029297-2.2128906-2.4521484c-1.0175781,0.0283203-2.640625,0.6044922-2.7167969-1.2050781
			c-0.0722656-1.7734375,0.2167969-3.5703125,0.4746094-5.3388672c0.0332031-0.2177734,0.8476563-0.4521484,1.3027344-0.4580078
			c3.8300781-0.0449219,7.6601563-0.0166016,11.4902344-0.0585938c1.6503906-0.0175781,1.8515625,0.9814453,1.8417969,2.2832031
			c-0.0253906,3.4980469-0.0078125,6.9941406-0.0078125,10.4921875
			C369.6083984,426.7060547,369.6103516,426.7060547,369.6142578,426.7060547z"/>
		<path style="fill-rule:evenodd;clip-rule:evenodd;fill:#FE5C25;" d="M526.2646484,439.4472656
			c-5.921875,9.0205078-17.4667969,8.8623047-24.4160156,6.2148438c-6.2597656-2.3828125-9.1621094-7.2929688-9.453125-14.2832031
			c-0.3066406-7.3583984,2.5058594-12.9941406,8.890625-16.4658203c5.7304688-3.1152344,11.828125-3.03125,17.515625,0.2265625
			c5.2753906,3.0244141,7.7753906,7.9013672,7.8417969,13.9863281c0.0292969,2.8134766,0.0039063,2.8701172-3.1035156,2.890625
			c-6.1621094,0.0410156-12.3242188-0.0244141-18.4863281,0.03125c-2.5351563,0.0234375-2.9609375,0.7294922-2.0878906,2.9814453
			c1.8808594,4.8457031,7.4257813,7.1992188,11.8574219,4.0917969
			C519.0869141,436.1308594,522.4345703,437.5039063,526.2646484,439.4472656z M509.3701172,426.1943359
			c0.0019531-0.0195313,0.0019531-0.0390625,0.0019531-0.0585938c1.9765625,0,3.9589844,0.0673828,5.9296875-0.0605469
			c0.3691406-0.0234375,1.0761719-1.0429688,0.96875-1.2402344c-1.1796875-2.1445313-2.2988281-4.3730469-5.1269531-4.8486328
			c-3.4863281-0.5878906-5.8476563,0.1796875-7.3300781,2.6835938c-0.4824219,0.8154297-0.6757813,1.8027344-1,2.7109375
			c1.03125,0.2714844,2.0488281,0.65625,3.0976563,0.7822266
			C507.0478516,426.2988281,508.2158203,426.1943359,509.3701172,426.1943359z"/>
		<path style="fill-rule:evenodd;clip-rule:evenodd;fill:#FE5C25;" d="M189.3417969,439.2480469
			c-5.8173828,9.3486328-17.5341797,9.3505859-24.6572266,6.3125c-6.1113281-2.6054688-9.9033203-7.7890625-9.7558594-14.8378906
			c0.1972656-9.5058594,5.1142578-15.3427734,12.8076172-17.2607422
			c12.0712891-3.0078125,21.3652344,4.5185547,21.7695313,15.1640625c0.1259766,3.3125,0.0898438,3.3701172-3.0732422,3.390625
			c-6.1572266,0.0410156-12.3144531-0.0185547-18.4716797,0.0273438c-2.3769531,0.0175781-3.1142578,1.2929688-2.140625,3.4501953
			c1.9082031,4.2265625,7.4248047,6.0078125,11.890625,3.8007813c1.4492188-0.7148438,2.9013672-2.2675781,4.2529297-2.1621094
			C184.4326172,437.3261719,186.8271484,438.4726563,189.3417969,439.2480469z M165.4140625,425.9375
			c4.984375,0,9.3388672,0,13.796875,0c-2.1279297-5.2226563-3.2802734-6.0292969-7.3642578-6.0712891
			C167.9023438,419.8251953,166.5097656,422.3046875,165.4140625,425.9375z"/>
		<path style="fill-rule:evenodd;clip-rule:evenodd;fill:#FE5C25;" d="M326.6035156,418.9980469
			c0,5.6621094,0.046875,11.3242188-0.0253906,16.984375c-0.0253906,1.9179688,0.2167969,3.3652344,2.625,3.0019531
			c2.2617188-0.3417969,2.4257813,1.0371094,2.3300781,2.7109375c-0.0566406,0.9960938,0.1464844,2.0507813-0.1210938,2.9765625
			c-0.171875,0.5957031-0.9746094,1.4267578-1.5097656,1.4365234c-5.4931641,0.1074219-10.9882813,0.0507813-16.484375,0.0859375
			c-1.5175781,0.0097656-2.0546875-0.7373047-2.0097656-2.1376953c0.0273438-0.8320313,0.0703125-1.6738281-0.0195313-2.4980469
			c-0.2070313-1.8984375,0.4677734-2.84375,2.4902344-2.5742188c1.9638672,0.2636719,2.5722656-0.6601563,2.5566406-2.578125
			c-0.0742188-8.9921875-0.0458984-17.984375-0.0214844-26.9765625c0.0039063-1.4648438-0.1035156-2.8193359-2.0332031-2.5771484
			c-2.5566406,0.3183594-3.2441406-0.9082031-2.9931641-3.1757813c0.0908203-0.8222656,0.0556641-1.6660156,0.0117188-2.4960938
			c-0.078125-1.4453125,0.4960938-2.1181641,2.0166016-2.0957031c3.6630859,0.0546875,7.3291016,0.0869141,10.9902344-0.0117188
			c1.859375-0.0498047,2.1962891,0.8740234,2.1845703,2.4394531c-0.0419922,5.8291016-0.0166016,11.6572266-0.0166016,17.4853516
			C326.5839844,418.9980469,326.59375,418.9980469,326.6035156,418.9980469z"/>
		<path style="fill-rule:evenodd;clip-rule:evenodd;fill:#FE5C25;" d="M546.6455078,420.8623047
			c2.7460938-3.2314453,4.9355469-6.3798828,8.9707031-7.3671875c3.8671875-0.9462891,4.6699219-0.4199219,4.7578125,3.6699219
			c0.0097656,0.4990234,0.0019531,0.9990234,0,1.4990234c-0.0117188,3.8310547-0.0117188,3.8310547-3.7226563,4.4003906
			c-5.0761719,0.7792969-8.4160156,4.8427734-8.9882813,10.9589844c-0.0449219,0.4951172-0.0078125,1-0.0078125,1.5
			c-0.0058594,3.3144531-0.0058594,3.3203125,3.1464844,3.4609375c0.6640625,0.03125,1.3339844,0.0371094,2,0.0039063
			c1.2636719-0.0625,1.8242188,0.5273438,1.7558594,1.7753906c-0.0273438,0.4980469,0.0039063,1,0,1.5
			c-0.0390625,4.1123047,0.328125,3.9541016-3.6347656,3.9345703c-5.5-0.0253906-11-0.0742188-16.4980469,0.0273438
			c-2.03125,0.0390625-3.1992188-0.4228516-2.9042969-2.7119141c0.0839844-0.65625,0.0800781-1.3417969-0.0019531-1.9980469
			c-0.2441406-1.9570313,0.5683594-2.5371094,2.5214844-2.5839844c3.4355469-0.0859375,3.4589844-0.2363281,3.484375-3.5332031
			c0.03125-3.8339844-0.078125-7.6699219,0.0410156-11.4980469c0.0644531-2.0576172-0.4433594-3.0908203-2.7460938-2.9335938
			c-1.015625,0.0693359-2.8828125-0.3681641-2.9726563-0.8388672c-0.3300781-1.7558594-0.1640625-3.6289063,0.0195313-5.4375
			c0.03125-0.3027344,1.0664063-0.7060547,1.6464844-0.7177734c3.4980469-0.0654297,7,0.0205078,10.4980469-0.0517578
			c1.9121094-0.0400391,2.7402344,0.7519531,2.6484375,2.6523438
			C546.5947266,417.8671875,546.6455078,419.1669922,546.6455078,420.8623047z"/>
		<path style="fill-rule:evenodd;clip-rule:evenodd;fill:#FE5C25;" d="M100.5527344,401.0292969
			c0,3.5888672,0.0527344,6.7236328-0.0185547,9.8544922c-0.0458984,2.0595703,0.7373047,2.9384766,2.890625,3.0751953
			c3.1171875,0.1972656,3.1074219,0.3554688,3.1289063,3.3671875c0.0253906,3.4111328,0.0263672,3.6074219-3.3320313,3.6337891
			c-2.3232422,0.0175781-2.7617188,0.9931641-2.6992188,2.9951172c0.1083984,3.4833984-0.0058594,6.9746094,0.0390625,10.4619141
			c0.0585938,4.5556641,0.5234375,4.8701172,5.5732422,3.9169922c0.1337891,0.4316406,0.3779297,0.8730469,0.3896484,1.3183594
			c0.1640625,6.0800781-0.9316406,7.1396484-7.0625,7.2412109c-6.3046875,0.1035156-9.5214844-3.8525391-9.1337891-9.0732422
			c0.3554688-4.7900391,0.1035156-9.6289063-0.0234375-14.4433594c-0.0205078-0.7724609-0.6660156-2.0585938-1.2294922-2.1845703
			c-1.5449219-0.3457031-3.0361328-0.3642578-2.6875-2.5791016c0.2978516-1.8896484-1.0458984-4.5302734,2.5-4.9052734
			c0.5644531-0.0605469,1.4423828-1.4863281,1.3935547-2.2294922c-0.1767578-2.7382813,1.203125-4.2304688,3.3623047-5.5419922
			C95.890625,404.5732422,97.9492188,402.9003906,100.5527344,401.0292969z"/>
		<path style="fill-rule:evenodd;clip-rule:evenodd;fill:none;" d="M302.5869141,321.8320313
			c-0.4267578-6.9912109,0.5908203-13.2353516,2.6376953-19.4707031
			c4.6855469-14.2734375,18.5292969-18.1962891,30.4003906-13.6894531
			c6.4541016,2.4492188,10.4970703,7.5341797,12.7705078,13.8095703c3.1386719,8.6621094,3.8632813,17.5800781,2.4042969,26.7939453
			c-0.7011719,4.4355469-1.3613281,8.7695313-3.2441406,12.859375c-4.171875,9.0673828-11.5673828,13.6943359-21.2236328,13.6435547
			c-10.1035156-0.0546875-17.015625-5.7177734-20.7636719-15.0136719
			C303.0683594,334.5644531,301.8242188,328.0888672,302.5869141,321.8320313z"/>
		<path style="fill-rule:evenodd;clip-rule:evenodd;fill:none;" d="M468.6083984,307.9091797
			c-7.484375,0-14.96875,0.0292969-22.453125-0.0166016c-2.4863281-0.015625-3.0546875-0.5654297-2.5449219-2.9121094
			c1.6835938-7.7490234,4.6035156-14.8486328,11.7988281-19.171875c1.7851563-1.0742188,3.9140625-1.6933594,5.9648438-2.1904297
			c4.7167969-1.140625,9.4941406-1.1328125,14.2304688-0.0449219c9.7421875,2.2373047,14.7714844,9.2148438,17.9726563,18.0009766
			c0.1113281,0.3076172,0.1386719,0.6455078,0.2363281,0.9589844c1.5839844,5.0849609,1.3964844,5.3691406-3.75,5.3789063
			c-7.1523438,0.0136719-14.3027344,0.0039063-21.4550781,0.0039063
			C468.6083984,307.9130859,468.6083984,307.9111328,468.6083984,307.9091797z"/>
		<path style="fill-rule:evenodd;clip-rule:evenodd;fill:none;" d="M282.4921875,414.0410156
			c0-0.6630859-0.0527344-1.3310547,0.0097656-1.9873047c0.1523438-1.5966797,0.3583984-3.1875,0.5429688-4.7792969
			c2.2783203,0.0253906,4.6523438-0.3457031,6.8105469,0.1738281c2.7666016,0.6650391,4.9179688,4.7392578,4.5224609,7.5117188
			c-0.5263672,3.6914063-2.4150391,5.6005859-6.0517578,6.0488281c-0.9833984,0.1210938-1.9873047,0.0771484-2.9726563,0.1904297
			c-2.0390625,0.2333984-3.1054688-0.421875-2.8867188-2.6865234
			C282.609375,417.0351563,282.4931641,415.5322266,282.4921875,414.0410156z"/>
		<path style="fill-rule:evenodd;clip-rule:evenodd;fill:none;" d="M475.7822266,430.3535156
			c-0.1152344,1.0917969-0.0820313,2.6171875-0.4667969,4.0283203c-0.7265625,2.6650391-3.3496094,4.6103516-5.8203125,4.5908203
			c-2.3847656-0.0195313-4.6542969-1.6464844-5.6191406-4.1425781c-1.1542969-2.9892578-1.0136719-6.0751953-0.2324219-9.0888672
			c0.7148438-2.7529297,3.7402344-4.8408203,6.2929688-4.65625c2.7910156,0.2021484,5.0292969,2.3183594,5.578125,5.4101563
			C475.7177734,427.6279297,475.6826172,428.8037109,475.7822266,430.3535156z"/>
		<path style="fill-rule:evenodd;clip-rule:evenodd;fill:none;" d="M509.3701172,426.1943359
			c-1.1542969,0-2.3222656,0.1044922-3.4589844-0.03125c-1.0488281-0.1259766-2.0664063-0.5107422-3.0976563-0.7822266
			c0.3242188-0.9082031,0.5175781-1.8955078,1-2.7109375c1.4824219-2.5039063,3.84375-3.2714844,7.3300781-2.6835938
			c2.828125,0.4755859,3.9472656,2.7041016,5.1269531,4.8486328c0.1074219,0.1972656-0.5996094,1.2167969-0.96875,1.2402344
			c-1.9707031,0.1279297-3.953125,0.0605469-5.9296875,0.0605469
			C509.3720703,426.1552734,509.3720703,426.1748047,509.3701172,426.1943359z"/>
		<path style="fill-rule:evenodd;clip-rule:evenodd;fill:none;" d="M165.4140625,425.9375
			c1.0957031-3.6328125,2.4882813-6.1123047,6.4326172-6.0712891c4.0839844,0.0419922,5.2363281,0.8486328,7.3642578,6.0712891
			C174.7529297,425.9375,170.3984375,425.9375,165.4140625,425.9375z"/>
	</g>
</g>
</svg>
